<?xml version="1.0" encoding="utf-8"?>
<!-- Generator: Adobe Illustrator 23.0.3, SVG Export Plug-In . SVG Version: 6.00 Build 0)  -->
<svg version="1.1" id="Layer_5" xmlns="http://www.w3.org/2000/svg" xmlns:xlink="http://www.w3.org/1999/xlink" x="0px" y="0px"
	 viewBox="0 0 512 512" style="enable-background:new 0 0 512 512;" xml:space="preserve">
<style type="text/css">
	.st0{fill:#3E67B1;}
</style>
<path class="st0" d="M480,312H360v-92.7L490.1,89.3c9-9,13.9-20.9,13.9-33.7C504,29.4,482.6,8,456.4,8c-12.7,0-24.7,5-33.7,13.9
	L360,84.7V64c0-22.1-17.9-40-40-40h-57.5c-3.3-9.3-12.1-16-22.5-16H128c-10.4,0-19.2,6.7-22.5,16H48C25.9,24,8,41.9,8,64v336
	c0,22.1,17.9,40,40,40h216v40c0,13.2,10.8,24,24,24h192c13.2,0,24-10.8,24-24V336C504,322.8,493.2,312,480,312z M392,344v16h-16v-16
	h-16v16h-16v-32h80v32h-16v-16H392z M264,336v56H56V72h49.5c3.3,9.3,12.1,16,22.5,16h112c10.4,0,19.2-6.7,22.5-16H312v60.7
	l-86.9,86.9l-23.7,63.3c-0.9,2.4-1.4,5-1.4,7.6c0,11.9,9.7,21.5,21.5,21.5c2.6,0,5.2-0.5,7.6-1.4l63.3-23.8l19.6-19.6V312h-24
	C274.8,312,264,322.8,264,336L264,336z M288,268.7L271.3,252L404,119.3l16.7,16.7L288,268.7z M235.1,238.4l38.4,38.4l-50.1,18.8
	c-3.4,1.3-7.5-1.5-7.5-5.2c0-0.7,0.1-1.3,0.4-1.9L235.1,238.4z M387.3,80L400,67.3l44.7,44.7L432,124.7L387.3,80z M392.7,108
	L260,240.7L243.3,224L376,91.3L392.7,108z M344,312h-16v-60.7l16-16V312z M434.1,33.3c6-6,13.9-9.3,22.3-9.3
	c17.4,0,31.6,14.2,31.6,31.6c0,8.4-3.3,16.4-9.3,22.3L456,100.7L411.3,56L434.1,33.3z M344,64v36.7l-16,16V72c0-8.8-7.2-16-16-16
	h-48V40h56C333.2,40,344,50.8,344,64z M120,32c0-4.4,3.6-8,8-8h112c4.4,0,8,3.6,8,8v32c0,4.4-3.6,8-8,8H128c-4.4,0-8-3.6-8-8V32z
	 M48,424c-13.2,0-24-10.8-24-24V64c0-13.2,10.8-24,24-24h56v16H56c-8.8,0-16,7.2-16,16v320c0,8.8,7.2,16,16,16h208v16H48z M488,480
	c0,4.4-3.6,8-8,8H288c-4.4,0-8-3.6-8-8V336c0-4.4,3.6-8,8-8h40v48h112v-48h40c4.4,0,8,3.6,8,8V480z"/>
<path class="st0" d="M392,456h16v16h-16V456z"/>
<path class="st0" d="M456,456h16v16h-16V456z"/>
<path class="st0" d="M424,456h16v16h-16V456z"/>
<path class="st0" d="M392,424h80v16h-80V424z"/>
<path class="st0" d="M162.3,90.3L148.7,104H72v80h80v-60.7l21.7-21.7L162.3,90.3z M136,168H88v-48h44.7L112,140.7l-10.3-10.3
	l-11.3,11.3l21.7,21.7l24-24V168z"/>
<path class="st0" d="M72,280h80v-80H72V280z M88,216h48v48H88V216z"/>
<path class="st0" d="M72,376h80v-80H72V376z M88,312h48v48H88V312z"/>
<path class="st0" d="M184,104h64v16h-64V104z"/>
<path class="st0" d="M184,136h64v16h-64V136z"/>
<path class="st0" d="M184,168h64v16h-64V168z"/>
<path class="st0" d="M184,328h64v16h-64V328z"/>
<path class="st0" d="M184,360h64v16h-64V360z"/>
</svg>
