<svg id="Layer_1" data-name="Layer 1" xmlns="http://www.w3.org/2000/svg" viewBox="0 0 1792.64 965.25"><defs><style>.cls-1{fill:#e6e6e6;}.cls-2{fill:#3e67b1;}</style></defs><title>delaware</title><path class="cls-1" d="M1597.5,607.85l8.11,46.75,7.38,36.95,4.47,11.52,2.75,6.59-5.16,6.45-1.76,11.63,1.69,6.88-.76,6.46-.86,6,2,4.63,1.52,4.27-63.7.2-17.85,2.09-.49,2.75,7.12,8.77-1.66,7.12L1538,781.8l-27.71-4-1-55.46,5.49-59,5.56-48.7-2.25-7.31h39.27Z" transform="translate(-382.59 1.16)"/><path class="cls-1" d="M1471.46,568.26l-.33,3.17-3.18,5.43-5.46,3.71-1.23,6.33-4.93,5,.36,11.06-3.54,3.54-.59,3-5.6,2.85-.1,5.46L1442.69,628l-3.61,2.12-5.53,5.13-3.31,7.75-6.82,13-.69,8.84,3.6,9.77-1.52,7.32-26.38-1.26-34.11,1.22-30.16,0,1.79-21.12-7.22-.13-6,.49-1.63-2.45.9-32.84.63-36.88-6.2-40.66,38,.57,34.53.1,32.94,0,35.59,2.35,2.59,4.8-3.51,4.14-3.51,4.14-1.92,3.84Z" transform="translate(-382.59 1.16)"/><path class="cls-1" d="M1084.67,411.19l.33,61.88,0,57.71-30.06-.13-37.38,0-53.07,0-49.33-.1H866.26L866,370.24h62.57l62.54-.07h93.63l-.06,39.73Z" transform="translate(-382.59 1.16)"/><path class="cls-1" d="M2029.16,328.26l.26,22.78-1.92,6.06-13.77,2.08-18.15,2.06-24.36,9.7-1.13-5,6.79-4-2.45-3.54,1.75-31.85,23.91.79" transform="translate(-382.59 1.16)"/><path class="cls-1" d="M1865.54,460l.16-2.35-2.61-3.44,2.55-1.92,3.94,4.14Z" transform="translate(-382.59 1.16)"/><path class="cls-1" d="M1726.62,765.38l4.07,26.29,11.89,29.3,14,26.58v13.74l13.58,35.89,1.32,31L1765,958,1752,964.09l-15.4-4.17-4.93-15.07-11.85-7.94-16.56-29.8-15.29-25.46-2.85-16.88,5.36-21.49-7.18-19.83L1663,802.06l-17.81-13.64L1610,803.49l-7.19-10-29.5-16.19L1538,781.8l2.25-4.93,1.66-7.12-7.12-8.77.49-2.75,17.85-2.09,63.7-.2,4.77,9.74,31.38,1.68,50.62,5.4,2.32,6.29,4-3.21.07-12.55,3.77-1.22,6.19,2.65Z" transform="translate(-382.59 1.16)"/><path class="cls-1" d="M1422.56,265.19l.46,2.35,4.08,6.79-2.82,3.24.1,8.94,1.29,3.81,2,6.72,10.2,4.07,3,6.46,1.82,3.21,3.68,2.15,1.49,4.54,4.93,3.37,3.21,3.61-1.65,11.26-5.8,9.44-2.08,3-7.15,2.41-10.7,2-2.81,7.15,3.87,3.21,1.33,6.39-4.08,7.12-2.08,6.26-8,6.09-.63,7.45-4.3-3.41-6-6.62-34.14.89-35.92.3-28,.07-28,0-2-7.41.86-7.35-.66-7.12-3.21-11.92-2.09-5-2.22-1.35-.26-9.64-2-6.92-5.67-7.88.07-3.47-2-6.95-1.39-4.18,0-3.87-5.07-4.7,2.52-6.95,1.62-6.82.76-4.61-4-5.69,0-10.43,4.17,0,34.13.06,42.41-.56,45.63-.26Z" transform="translate(-382.59 1.16)"/><path class="cls-1" d="M802.56,221.72l1.12.8,0,106.2-93.16.37-93.5-.3.46-76.31,2.72-12.29-2.52-5.66-5.86-2.91.07-7,4.4-9.89,6.72-8.68,4.47-14.2,4.21-11.42,3.14-5.76-1.65-6.76-5.23-3.64-7.39-8.61.27-8L618,140.84l-.89-63.6-.17-59.79,30.69-.07,2.52,49.3L658.34,79l0,8.31,5.79,7.35L671.32,99l5.2,7.12,8.7,14.07,8,6.59,9.4.43-3.44,10-3,11.85,2.61,11.52-3.64,2.88.33,11.43,5.56,4.4,6.16-5.3,3.18-6.25,3.81,1.22,3.74,6.13,3.57,14,5.53,5.5,2,11.52,1.89,3.18,6.35,1.09,3.84,6.35,5.53,11.33,5.76-6,10.23,1.59.83-4.3,17.65,2.71,7.15-1.39,4.43-8.67,3.38,1.19,3,6.12" transform="translate(-382.59 1.16)"/><path class="cls-1" d="M1529.5,307.93v.1l.26,11,8.41,22h0l0,47.84,0,47L1534.53,447l2.58,2.95,1.66,6.82-.27,5.36-2.61,2.45-2.25,6.59-6.49,8.64-4.37,10.63-1,8,.2,2.91-3.54,5.47,2.68,3.7-5.46,2.85-7.09,3.28,1.2,8.54-4.08,3.21-7.54-3.61-8.31-2.08-2.12,3.77,1.22,5.9-5.56-6.06-3.34,1-4-9.6,1.16-5.86-2.35-9.5-3.15-1.16-8.18-8.64-3.54-.17-6.16-5.56-4.43-6,2-7,2.88-5.79,1.75-7.35-5.92-6.43-5.9,2.59-3.57-1.69-.5-6.69-2.61-7.61-2.89-1.86-7.18-5.4-6-6.85-5.16-8.31-2.82-12.15,2.75-10.13.63-7.45,8-6.09,2.08-6.26,4.08-7.12-1.33-6.39-3.87-3.21,2.81-7.15,10.7-2,7.15-2.41,2.08-3,5.8-9.44,1.65-11.26-3.21-3.61-4.93-3.37-1.49-4.54-3.68-2.15-1.82-3.21h31.88l32.58.1,24,.36v-.1Z" transform="translate(-382.59 1.16)"/><path class="cls-1" d="M1623.06,342.27l-.1,37.41-.23,39.69-.2,27.91-1.79,1.89,2.55,8.18-1.36,2.94-5.26.07-4.87,3.51-7.38-1.42-.7,7.64-4.37,2.92-4.1,6.82-4.44,1.22L1584,492.8l-6.32-3.37-2-4.84-5.43,7.88-3.44,4.37-6.72-4.63-7.22,3.77-2.35,3.81-9.6-6-6.72,4.3-8.05-3-.3,4.37-4-1,1-8,4.37-10.63,6.49-8.64,2.25-6.59,2.61-2.45.27-5.36-1.66-6.82-2.58-2.95,3.58-11.19,0-47,0-47.84h0l2.85,2.82,10.63-.23,8.44-4.57h0l33.6.2,29.37-.2Z" transform="translate(-382.59 1.16)"/><path class="cls-1" d="M1316.58,530.48l-27.41,0-56.18.07-56.22.07-31.22.06-31.22,0-29.37,0,0-57.71-.33-61.88h210.06l7.42,5.4,4-.06.89,5.86-4.37,7.48,2.35,3.84,3.88,8.44,8.21,3.81-.33,42.61Z" transform="translate(-382.59 1.16)"/><path class="cls-1" d="M1692.32,474.83l.6,3.77-.33,8.21,3.7,6.16,1.53,6,4.53,5.1,3.15,4.74,6.06.72-12.49,11.66-9.73,4.57-.76,3.14-3.34,4.11-8.55,4.63-2.78,3.78-6.42,2.41-9,2.19-21.12,1.26-27.51-1.66-9,.46L1582.93,545l-18.27-.34-16.82-.19-19.53,1.09-1-1.76-6.19.07.1,6.09-44.6-.36,7-4.08,5-3.21-.59-6.09,1-3.9-1.22-5.9,2.12-3.77,8.31,2.08,7.54,3.61,4.08-3.21-1.2-8.54,7.09-3.28,5.46-2.85-2.68-3.7,3.54-5.47-.2-2.91,4,1,.3-4.37,8.05,3,6.72-4.3,9.6,6,2.35-3.81,7.22-3.77,6.72,4.63,3.44-4.37,5.43-7.88,2,4.84,6.32,3.37,6.85-11.75,4.44-1.22,4.1-6.82,4.37-2.92.7-7.64,7.38,1.42,4.87-3.51,5.26-.07,1.36-2.94-2.55-8.18,1.79-1.89,10.69.93,5.53,3.87,8.31,9,6.62,2.85,4.8,3.21,7.42-1.13,5.5,2.29,6.68-2.19,5.93-.66,2.48,5.56Z" transform="translate(-382.59 1.16)"/><path class="cls-1" d="M1904.67,422.45,1907,473.5h20.82l1.76,3.61-12.06,13.58-7.25.59-2.45,2.68-15.89-18.9-1.32-29.93-5.17,14.07.43,34.37-18.67-11.76-1.82-5.59-5.1,1.72-4.14-2.15,3.55-8.88,5.33-3.74.56-3.21,4-3.57-3.94-4.14-2.55,1.92-5.8-4.44-6.62-2.41L1853,443l-4.14-3-4.6-1.36-2.45-5.13-3.81-5.76-9.63-3.22-6,3.08-3.41,3-9.2-1.62-4.21,4.21-6.15,1.62L1794,439.4l-4.8,3.58.27-20.43,29,0,9.9-.06,22.14-.17,26.72.2Z" transform="translate(-382.59 1.16)"/><path class="cls-1" d="M2065.24,282.77l-3.31.43-1.45-6-5.73-6.32,1.16-4.24-4-79.23,12.88-7.71,11.09-20.26,9.54-35.06L2109.21,90l10.4,12,20.92-7.78,13.87,13.21,0,61.55,20.43,25,.43,18.71-30.4,13.87-30.32,10.23-35.43,25.95Z" transform="translate(-382.59 1.16)"/><path class="cls-1" d="M1631.3,131.44h0l10.43,1.39h0l-4,4.47,15.53,17.91-27.52,4-1.06-.2-24.56-4.74-24.37,8.94-21.22,4-18.34,28.24-.8-.3,0,.07-4.17-5.2,2.32-7.12-6.89-.4,1.42-7.21,1.89-3.58-2.75-6.26-7.38-2.84-1.72-7.35-6.09-.57-8.84-.06-18-8.08-27.32-8-2.51-8.15-4.9-1.49,0-.13-1.92.93-.26-.24.26.24,24.11-11.56,25.06-14.8,27.54-15.19-10,24.16,17.71,5.8,22,17.28,27.71-10.06,30.69-4,6.56,12.68,9.53,1.82Zm66.78,155.47h0l-.79.56-14.7,23.28-6.86,14.73h0L1665,341.6h0l-11.79.37h-14.2l-16,.3,0-3.28-29.37.2-33.6-.2h0l6.32-5.76,12.68-20.43.86-27.94-10.36-26.46,1.55-18.3,8.15-21.36L1587,204l12.48-10.53,2.91,14.77,5.53-21.75,6.89-4.5,4.37-16.92,26.55,8.9,23.11,17.29,2.55,20-2.85,19.9-17.18,17.32,1.59,10.85,6.19.37,19.37-19,11.55,4.34,5.63,25,1.56,17.48Z" transform="translate(-382.59 1.16)"/><path class="cls-1" d="M1473.41,63.9v0l-31.85,15.3-22.18,18.4-21.19,19.27-.1,6.69-8.21,2.52.33,25.29-1,0-7.71,5-6.66,4.27-4.47,8.22,6.56,8.34-2.35,11.16,0,11.91-1,9.67,9.11,8.41,3.74.4,10.1,6.22,3.51,2.95,2.18,4.67,7.88,7.45,10.53,6.42,1,3.57.06,10.37.83,4.83-41-.79-45.63.26-42.41.56-34.13-.06.43-40.36-3.81-42.08-5.46-3.44-3.08-6.86,1.69-6,7-5,.53-6.52,0-8.15-2-6.85-2.62-7.32-1.52-9.2L1250.3,113l-1.06-2.49L1248,97.07l-.13-6.16-.6-5.49-1.55-9.37-3.78-9.54L1238.25,58l-.53-8.5-.4-9.17,1.06-6,.2-5.49L1235.67,22l-.46-4.67,64.62.06.1-18.3,10.56-.27L1316,25l9.73,8,21.82,2.88,31.85,7.51,30.29,14.5,25.3-6.09Z" transform="translate(-382.59 1.16)"/><path class="cls-1" d="M1416.27,396.23l-2.75,10.13,2.82,12.15,5.16,8.31,6,6.85,7.18,5.4,2.89,1.86,2.61,7.61.5,6.69,3.57,1.69,5.9-2.59,5.92,6.43-1.75,7.35-2.88,5.79-2,7,4.43,6,6.16,5.56,3.54.17,8.18,8.64,3.15,1.16,2.35,9.5L1476,517.7l4,9.6,3.34-1,5.56,6.06-1,3.9.59,6.09-5,3.21-7,4.08-.83,3.74-1.88,5.49-2.42,9.41h-20.39l1.92-3.84,3.51-4.14,3.51-4.14-2.59-4.8L1421.83,549l-32.94,0-34.53-.1-38-.57.37-17.81h-.17l.24-41.91.33-42.61-8.21-3.81-3.88-8.44-2.35-3.84,4.37-7.48-.89-5.86-4,.06-7.42-5.4-4.07-8.7-4.83-5.23-5.27-6.46-.63-3.38,28,0,28-.07,35.92-.3,34.14-.89,6,6.62Z" transform="translate(-382.59 1.16)"/><path class="cls-1" d="M1902.19,547.9l4.37,38.47-19.87,28.2-30.62,14.54-26.72,18.94-11.06,2.18-34.92-35.62-34.67-.37.07-4.4-4.87-6.42-3.14,2.51-.27-3.37-14.6-1.76-28.8-.3L1680.24,607l-3.15,1.13-38.83-.3.69-8.05,6.59-2.38,2.15-4.1,4.44-4.61,6.32-1,7.35-1.76,7.15-3.31,3.08-3.37,6-3.05-.16-2.78,7.84-5.2,2.52,3.38,11.52-7.25,5.4.76,4.8-6.49,6.35-1.66-.33-5.53.8-4.83,52.67,1.66,62.21.2,33-.34" transform="translate(-382.59 1.16)"/><path class="cls-1" d="M1235.21,17.35l.46,4.67,2.91,6.82-.2,5.49-1.06,6,.4,9.17.53,8.5,3.64,8.51,3.78,9.54,1.55,9.37.6,5.49.13,6.16,1.29,13.44,1.06,2.49.37,10.36,1.52,9.2,2.62,7.32,2,6.85,0,8.15-59.4,2.45-50.72-.1-64,.2-59.63.19-1.59-55-.46-85.51,108.13.13Z" transform="translate(-382.59 1.16)"/><path class="cls-1" d="M1259.37,308.26l1.39,4.18,2,6.95-.07,3.47,5.67,7.88,2,6.92.26,9.64,2.22,1.35,2.09,5,3.21,11.92.66,7.12-.86,7.35,2,7.41.63,3.38,5.27,6.46,4.83,5.23,4.07,8.7H1084.67V409.9l.06-39.73h-62.34l-.23-83.56h170.4l8.08,5.36,11.49,3.38,2.68-2,7.42.16,11.15-.43,8.08,5.47,8.58,3.54,1.42,3.51,2.65,2" transform="translate(-382.59 1.16)"/><path class="cls-1" d="M2065.24,282.77l-5.29,9.57-3.71-.83-6.62,2.88-3.22,4.17-37.74-.36-2.48-4.4,2.45-5.5.76-11.19,1-2.68,1.06-10.13,3.41-8.58,2.58-3.74,3.71-10.26.7-6.95,1.06-4.24,6-2.09,7-5.06,1.22-5.43-2.32-6.26,3.68-11.95-.07,0,3.15-10.85,10.36-1.4,4,79.23-1.16,4.24,5.73,6.32,1.45,6Z" transform="translate(-382.59 1.16)"/><path class="cls-1" d="M1757,385.07l-4.31,2.09,1.29,5.2-1.42,9.37-3.24,10.59-3,8.74-.53,4.17-8.51,9.21-3.57,1.95-4.24,1.13-3.77-.9-7,6.92-1.25,7.22-1,3.9-2.78,1.59-.4-4.47-4.2-1-4.4,8.68-.5,8.81-4.07,5.52-7.75,1-5.83-3.81-2.48-5.56-5.93.66-6.68,2.19-5.5-2.29-7.42,1.13-4.8-3.21-6.62-2.85-8.31-9-5.53-3.87-10.69-.93.2-27.91.23-39.69.1-37.41,16-.34h14.2l11.79-.36h0l19.24,8.61,15.59,2.12,22.61-5.5L1741,335.25l16-5.63Z" transform="translate(-382.59 1.16)"/><path class="cls-1" d="M1316.38,548.29l6.2,40.66-.63,36.88-.9,32.84-13.44-7.31-8.77-4-7.09,2.55-11-.4-6.49.07-5.33,3-5.23,1.56-4.57-1.82-10.43,2-4.73-6.23-4.87,5.4-8.51-2.42-8.77-5.83-9.37,3.78-4.1-9-14.54.89-9.3-2-10.46-2.68-4.64-7.81-8.21,2.52-5.1-3-7.45-4.07v-73.9H1055l-.07-19.23,30.06.13,29.37,0,31.22,0,31.22-.06,56.22-.07,56.18-.07,27.41,0h.17Z" transform="translate(-382.59 1.16)"/><path class="cls-1" d="M620.53,155.67l7.39,8.61,5.23,3.64,1.65,6.76-3.14,5.76-4.21,11.42L623,206.06l-6.72,8.68-4.4,9.89-.07,7,5.86,2.91,2.52,5.66-2.72,12.29L617,328.79v.13l-92.77.2-131.6-.3-10-23.57,9.47-45.69,2.18-48.93,5.57-67,6.48-.6,9.54.2,7.58,4.11,9.07,2.55,5.8,8.57.82,7.48,2.32,6.26,7.22,1.69,7.65-.13,12.08-4.7,7.09-1.43,11.15,1.92,4.9,2.32,6.56-1.59,7.12-3.57,14.07.56,11.58-4.9,6.1-3.64,8,1.95L556.11,156Z" transform="translate(-382.59 1.16)"/><path class="cls-1" d="M1939.3,355.64l-3.81,1.82-5.46,9.27-5,3.61,1.69,5.36-3.67,5-.14,6.58,3.38,1.26.56,4.34,9.84,10.56-4,4.44-7.39,5.36-2.25,2.55-6.39,3.71-6.72-2.12-2.81,1.82-2.42,3.21-27.48.1-26.72-.2-22.14.17-9.9.06-29,0H1757V385.07l.06-55.45h0l23.53-12.12.07-.07v11.36h94.19l42.41.07,6.79,6.55,3.71,3.78-.83,4.6,2,6,5.33,2.88Z" transform="translate(-382.59 1.16)"/><path class="cls-1" d="M2050.41,349.88l-22.91,7.22,1.92-6.06-.26-22.78,13.17-.46,2.32,10.92,4.9,4.8Z" transform="translate(-382.59 1.16)"/><path class="cls-1" d="M1818.29,650.23,1806,676.42,1778.8,699.3l-32.65,18.64-5.36-1.89-2.85-1.36,0-7-3-6.89-5.83-4,1.06-2.72-1.85-4.1-2.22-8.44-10-7.49-3.64-8.87-7.41-6.06-2.16-4.66-10.85-8.88-3.71-6.65L1682.52,627l-5.43-2.32-8.41-6.25,5-7.19,3.41-3.14,3.15-1.13,16.85-6.49,28.8.3,14.6,1.76.27,3.37,3.14-2.51,4.87,6.42-.07,4.4,34.67.37Z" transform="translate(-382.59 1.16)"/><path class="cls-1" d="M1259.44,265.16l-4.17,0,0,10.43,4,5.69-.76,4.61-1.62,6.82-2.52,6.95,5.07,4.7,0,3.87-5.26-.59-2.65-2-1.42-3.51-8.58-3.54-8.08-5.47-11.15.43-7.42-.16-2.68,2L1200.64,292l-8.08-5.36h-170.4l-.8-88.33,1.59-40.66,59.63-.19,64-.2,50.72.1,59.4-2.45-.53,6.52-7,5-1.69,6,3.08,6.86,5.46,3.44,3.81,42.08Z" transform="translate(-382.59 1.16)"/><path class="cls-1" d="M1658.45,546l46.45,1.32,15.83-.76-.8,4.83.33,5.53-6.35,1.66-4.8,6.49-5.4-.76-11.52,7.25-2.52-3.38-7.84,5.2.16,2.78-6,3.05-3.08,3.37-7.15,3.31-7.35,1.76-6.32,1-4.44,4.61-2.15,4.1-6.59,2.38-.69,8.05-16.66.4-24.1-.37-40.09-.49h-39.27l-34.23-.83h-30.76l3.54-3.54-.36-11.06,4.93-5,1.23-6.33,5.46-3.71,3.18-5.43.33-3.17,2.42-9.41,1.88-5.49.83-3.74,44.6.36-.1-6.09,6.19-.07,1,1.76,19.53-1.09,16.82.19,18.27.34,17.91,1.05,9-.46,27.51,1.66Z" transform="translate(-382.59 1.16)"/><path class="cls-1" d="M1893.18,523.76l9,24.14-33.51.19-33,.33-62.21-.19-52.67-1.69-15.83.76L1658.48,546l9-2.18,6.42-2.38,2.78-3.78,8.55-4.63,3.31-4.11.76-3.14,9.73-4.57,12.48-11.66,1.39,6.66,3.51,3.54,4.74,3.15,9.83-4.71,3.74,2.75,11.65-3.27.67-3.51,3.54,1.39,3.87-2.85,4.34.56,5-3,.66-3.58-.5-4.6,4.24-6.82,6-5.16,1.52-5.83,5.36-7.05,3-8.64,4.14,3.08,4.63,2.84,4.47-1.52,1.49-3.61,3.08-4.93,3.48-5.66,2.25,1.65,4.64-5.16,6.12-5.23,3.87-4,2.45-10.69,16,10.89,3.51-7.55,4.57,1.36,4.14,3-2.29,4.31,6.59,2.41,5.83,4.47,2.58,3.41-.13,2.35-.56,3.22-5.33,3.74-3.55,8.84,4.14,2.15,5.07-1.72,1.82,5.56,19.66,22.08,6,18.74Zm24.3-33.07-7.25.59-2.45,2.68-10.69,26.49,2.85,1.56Z" transform="translate(-382.59 1.16)"/><path class="cls-1" d="M2008.66,298.2l-25.76-.7,1.33-35.16-4.47-.33-.56-1.62,2-6.26-2.88-11.29,3.15-9-1.72-6.62L1979,214.3l1.22-5.62.66-8.91,57.51-.07.07,0-3.68,11.95,2.32,6.26-1.22,5.43-7,5.06-6,2.09-1.06,4.24-.7,6.95L2017.4,252l-2.58,3.74-3.41,8.58-1.06,10.13-1,2.68-.76,11.19-2.45,5.5Z" transform="translate(-382.59 1.16)"/><path class="cls-1" d="M616.89,17.45l.17,59.79.89,63.6,2.85,6.85-.27,8-64.42.33-11.19,4.67-8-1.95-6.1,3.64-11.58,4.9-14.07-.56-7.12,3.57-6.56,1.59-4.9-2.32-11.15-1.92-7.09,1.43-12.08,4.7-7.65.13-7.22-1.69-2.32-6.26-.82-7.48-5.8-8.57-9.07-2.55-7.58-4.11-9.54-.2-6.48.6-8.55-37.68L386.1,61.55,429.6,70l13.84,36.09L451.15,94l-5-38-14.8-38.83,92.76.2Z" transform="translate(-382.59 1.16)"/><path class="cls-1" d="M1448.25,129.48l.27.24,2-.93,0,.13,4.9,1.49,2.52,8.14,27.31,8,18,8.08,8.84.06,6.06.6,1.72,7.35,7.39,2.85,2.78,6.22-1.92,3.58-1.43,7.21,6.89.4-2.32,7.12,4.17,5.2,0-.07.79.33-.3.43-12.21,15.83L1528,217l23-28.3,4.7-.17-16.22,33.8-7.05,30.23-5.93,24.27,3.91,20.82-.83,10.33h-.1v.1l-24-.36-32.58-.1H1440.9l-3-6.46-10.2-4.07-2-6.72-1.29-3.81-.1-8.94,2.82-3.24-4.08-6.79-.46-2.35-.83-4.83-.06-10.37-1-3.57L1410.11,240l-7.88-7.45-2.18-4.67-3.51-2.95-10.1-6.22-3.74-.4-9.11-8.41,1-9.67,0-11.91,2.35-11.16-6.56-8.34,4.47-8.22,6.66-4.27,7.71-5,1,0-.33-25.29,8.21-2.52h0l31.29-9.47Z" transform="translate(-382.59 1.16)"/><path class="cls-1" d="M1789.46,422.55l-.27,20.43,4.8-3.58,5.37-4.63,6.15-1.62,4.21-4.21,9.2,1.62,3.41-3,6-3.08,9.63,3.22,3.81,5.76,2.45,5.13-3.48,7.55-16-10.9-2.45,10.7-3.91,4-6.09,5.2-4.64,5.17-2.25-1.66-3.47,5.66-3.08,4.94-1.53,3.6-4.47,1.56-4.63-2.85-4.14-3.08-3,8.64-5.33,7.06-1.56,5.82-6,5.17L1764,502l.53,4.63-.7,3.58-4.93,3-4.37-.56-3.84,2.85-3.54-1.39-.7,3.51-11.62,3.27-3.77-2.75-9.84,4.71-4.73-3.15-3.54-3.54-1.39-6.66-6.06-.72-3.15-4.74-4.53-5.1-1.53-6-3.7-6.16.33-8.21-.6-3.77,7.75-1,4.07-5.52.5-8.81,4.4-8.68,4.2,1,.4,4.47,2.78-1.59,1-3.9,1.25-7.22,7-6.92,3.77.9,4.24-1.13,3.57-1.95,8.51-9.21.53-4.17,3-8.74,3.24-10.59,1.42-9.37-1.29-5.2,4.31-2.09v37.48Z" transform="translate(-382.59 1.16)"/><path class="cls-1" d="M1021.36,198.28l.8,88.33.23,83.56H991.1l-62.54.07H866l-62.47-1.06.13-40.46,0-106.2-1.12-.8.56-1.56L803,197.88l61.48-.29,48.57.46,56.25-.23Z" transform="translate(-382.59 1.16)"/><path class="cls-1" d="M1054.9,530.65l.07,19.23V719.19H941.67l.34,3.12,3.47,5.86H891.75l-.4,15-25.06.06,0-212.78h48.86l49.33.1,53.07,0Z" transform="translate(-382.59 1.16)"/><path class="cls-1" d="M866,370.24l.27,160.24-45.29-.3-60-.06-50.36.59-.09-201.62,93.16-.37-.13,40.46Z" transform="translate(-382.59 1.16)"/><path class="cls-1" d="M2060,292.34l-.3,22.41L2069.94,337l12.95,1-3.28-15.26L2089,332,2086.5,344l-21.09,6.72-15-.79-.86-6.36-4.9-4.8-2.32-10.92-13.17.46-29.07-1-23.91-.79,6.72-29,25.76.7,37.74.36,3.22-4.17,6.62-2.88" transform="translate(-382.59 1.16)"/><path class="cls-1" d="M1518.14,607.36l2.25,7.31-5.56,48.7-5.49,59,1,55.46-19.14,8.08-17.94-.57-.56-3.57-1.1-6-4.14-4.17-2-4.57,2.08-5.93.9-6-29.43-.07-27.55-1.16-1.26-9.07,3.81-4.07,2.85-8.78,2.81-7.68,6-5.69,1.45-7,4.31-3.74-4-6.32,1.26-4.57-4.5-7.61,2.84-5.33-2.25-2.12,1.52-7.32-3.6-9.77.69-8.84,6.82-13,3.31-7.75,5.53-5.13,3.61-2.12,4.17-10.13.1-5.46,5.6-2.85.59-3h30.76Z" transform="translate(-382.59 1.16)"/><path class="cls-1" d="M1023,157.62l-1.59,40.66-52.07-.46-56.25.23-48.57-.46-61.48.29.13,22.28-.56,1.56-3.41-2.42-3-6.12L792.72,212l-4.43,8.67-7.15,1.39-17.65-2.71-.83,4.3-10.23-1.59-5.76,6-5.53-11.33-3.84-6.35L731,209.31l-1.89-3.18-2-11.52-5.53-5.5-3.57-14L714.23,169l-3.81-1.22L707.24,174l-6.16,5.3-5.56-4.4-.33-11.43,3.64-2.88-2.61-11.52,3-11.85,3.44-10-9.4-.43-8-6.59-8.7-14.07L671.32,99l-7.22-4.34-5.79-7.35,0-8.31L650.1,66.68l-2.52-49.3,93.33-.06,93.33-.07,93.3-.07,93.36-.06.46,85.51Z" transform="translate(-382.59 1.16)"/><path class="cls-1" d="M1677.09,608.12l-3.41,3.14-5,7.19,8.41,6.25,5.43,2.32,5.83,11.89,3.71,6.65,10.85,8.88,2.16,4.66,7.41,6.06,3.64,8.87,10,7.49,2.22,8.44,1.85,4.1-1.06,2.72,5.83,4,3,6.89,0,7,2.85,1.36,5.36,1.89-13.57,26.75-6,20.69-6.59-.66-6.19-2.65-3.77,1.22-.07,12.55-4,3.21-2.32-6.29-50.62-5.4-31.38-1.68-4.77-9.74-1.52-4.27-2-4.63.86-6,.76-6.46-1.69-6.88,1.76-11.63,5.16-6.45-2.75-6.59L1613,691.55l-7.38-36.95-8.11-46.75,24.1.37,16.66-.4Z" transform="translate(-382.59 1.16)"/><path class="cls-1" d="M1963.24,372l-10.76,20,7.85,1.75-5.4,29.3-22.71,31-2.35-10.3-6.86-2.08-7.48-10.53-2.75.46-.79-7.78,4.63-4.2,6.39-3.71,2.25-2.55,7.39-5.36,4-4.44-9.84-10.56-.56-4.34-3.38-1.26.14-6.58,3.67-5-1.69-5.36,5-3.61,5.46-9.27,3.81-1.82Z" transform="translate(-382.59 1.16)"/><path class="cls-1" d="M1982.9,297.5l-6.72,29-1.75,31.85,2.45,3.54-6.79,4,1.13,5,44.2-5.53,9.27,7.81L1981,385.54l-19.9.1,2.19-13.68-23.94-16.32-5-2.95-5.33-2.88-2-6,.83-4.6-3.71-3.78-6.79-6.55-42.41-.07h-94.19V317.43l26.85-25.16-.59-4.07v-.1l-4.28-12.31,16.26-5.4,24.57,1.59,25.55,3.54,23.41-14.14-1.85-16.78-3.54-6.72-.1-.07h0l.1.07,32.31-29.73,14.1-8.08,47.44-.3-.66,8.91L1979,214.3l.73,12.95,1.72,6.62-3.15,9,2.88,11.29-2,6.26.56,1.62,4.47.33" transform="translate(-382.59 1.16)"/><path class="cls-1" d="M1321.05,658.67l1.63,2.45,6-.49,7.22.13-1.79,21.12,1.89,39.37,5.13,4.13,1.72,5.67,2.69,8.44,3.6,8.28,2.75,4.93-3,13.24-2,3.94-2.71,8.61,2.28,2.38-.1,7.19-4.66,4.73-3.18,5.27,2.55,4.73-26.66,7.48-28.4,26.36-31,15.26-17,16.78-7.19,15.76-.3,24.07,1.56,16.66,5.93,11.75L1225.8,938l-22.18-7.62-24.33-10.72-8.74-16.33-6.89-24.46-18.41-20-10.79-20.72-15.66-24.31-22-14.23-25.52.69-19.7,28.15-25.89-10.67L1009.51,807l-7.75-19.69L991.4,768.49l-18.57-15.92-16-11.49-11.39-12.91L942,722.31l-.34-3.12H1055V549.88h93.69v73.9l7.45,4.07,5.1,3,8.21-2.52,4.64,7.81,10.46,2.68,9.3,2,14.54-.89,4.1,9,9.37-3.78,8.77,5.83,8.51,2.42,4.87-5.4,4.73,6.23,10.43-2,4.57,1.82,5.23-1.56,5.33-3,6.49-.07,11,.4,7.09-2.55,8.77,4Z" transform="translate(-382.59 1.16)"/><path class="cls-1" d="M1424.81,682l2.25,2.12-2.84,5.33,4.5,7.61-1.26,4.57,4,6.32-4.31,3.74-1.45,7-6,5.69-2.81,7.68-2.85,8.78-3.81,4.07,1.26,9.07,27.55,1.16,29.43.07-.9,6-2.08,5.93,2,4.57,4.14,4.17,1.1,6,.56,3.57-3.58,14.93,9.74,21.39-42.94,1.42L1410,815.8l-18-7.32-23.77-4.63-27.05-1.06-2.55-4.73,3.18-5.27,4.66-4.73.1-7.19-2.28-2.38,2.71-8.61,2-3.94,3-13.24-2.75-4.93-3.6-8.28-2.69-8.44-1.72-5.67-5.13-4.13-1.89-39.37,30.16,0,34.11-1.22Z" transform="translate(-382.59 1.16)"/><path class="cls-2" d="M1916.62,419.54l-4.63,4.2.79,7.78,6.53,21.62,8.47,20.36H1907l-2.29-51.05,2.42-3.21,2.81-1.82Z" transform="translate(-382.59 1.16)"/><path class="cls-1" d="M866.26,530.48l0,212.78-61.81.2-71.22-25.72-47.14-17.88,2.88-7.09,4.14,0,3.44-7.39-5.53-5.09L690,674.76l-1.62-6.55,6.09-8.58,2.48-17.11,9.47-7.72-5.93-7.21-4-7.12-2.58-6.62-1.72-5.14-.63-3.41,1.92-7.45-1.52-7.48-.66-7.38,0-8.24-2.78-5.27,2.12-4.73h6.59l6,2.71,4.27,1.53,2.05-5.87,1.36-1.29-.24-31.12,50.36-.59,60,.06Z" transform="translate(-382.59 1.16)"/><path class="cls-1" d="M710.49,329.09l.09,201.62.24,31.12-1.36,1.29L707.41,569l-4.27-1.53-6-2.71h-6.59l-2.12,4.73,2.78,5.27,0,8.24.66,7.38,1.52,7.48-1.92,7.45-52.41-48.56-56-51.45-58.9-53.57,0-122.6,92.77-.2v-.13Z" transform="translate(-382.59 1.16)"/><path class="cls-1" d="M524.22,329.12l0,122.6,58.9,53.57,56,51.45,52.41,48.56.63,3.41,1.72,5.14,2.58,6.62,4,7.12,5.93,7.21-9.47,7.72-2.48,17.11-6.09,8.58,1.62,6.55,1.09,5.57,5.53,5.09-3.44,7.39-4.14,0-39.63,3.88-35.49,2.84-3.78-13.6-13.24-19.2-33.31-22.35L551,643l-13.54-11.82-24.7-2.88-8-6.09L501,601.36l-30.3-38.43-26-54,1.09-9.1-13.77-13-24.14-33.31-4.34-32.77-16.62-22.19,6.82-34-1.09-35.66Z" transform="translate(-382.59 1.16)"/></svg>