<?xml version="1.0" encoding="utf-8"?>
<!-- Generator: Adobe Illustrator 23.0.3, SVG Export Plug-In . SVG Version: 6.00 Build 0)  -->
<svg version="1.1" id="Layer_1" xmlns="http://www.w3.org/2000/svg" xmlns:xlink="http://www.w3.org/1999/xlink" x="0px" y="0px"
	 viewBox="0 0 512 512" style="enable-background:new 0 0 512 512;" xml:space="preserve">
<style type="text/css">
	.st0{fill:#3E67B1;}
</style>
<path class="st0" d="M508.3,199.2l-55.1-45V70.6c0-16.9-13.7-30.6-30.6-30.6H342c-5.5,0-10,4.5-10,10s4.5,10,10,10h80.6
	c5.9,0,10.6,4.8,10.6,10.6v177.5L302,347.9l-131.2-99.8v-89.2c0,0,0,0,0,0V70.6c0-5.9,4.8-10.6,10.6-10.6H262c5.5,0,10-4.5,10-10
	s-4.5-10-10-10h-80.6c-16.9,0-30.6,13.7-30.6,30.6v83.5l-55.1,45c-2.3,1.9-3.7,4.7-3.7,7.7v111H47c-5.5,0-10,4.5-10,10
	c0,5.5,4.5,10,10,10h45v103.4c0,16.9,13.7,30.6,30.6,30.6h358.8c16.9,0,30.6-13.7,30.6-30.6V206.9
	C512,203.9,510.7,201.1,508.3,199.2z M492,436.8L373.7,318.5l118.3-90V436.8z M453.2,180l33.5,27.4l-33.5,25.5V180z M302,370.5
	c2.1,0,4.3-0.7,6.1-2l49.6-37.7L478.9,452H125.1l121.3-121.3l49.6,37.7C297.7,369.8,299.9,370.5,302,370.5z M112,228.6l118.3,90
	L112,436.8V228.6z M150.8,232.9l-33.5-25.5l33.5-27.4V232.9z"/>
<path class="st0" d="M64,382H10c-5.5,0-10,4.5-10,10c0,5.5,4.5,10,10,10h54c5.5,0,10-4.5,10-10C74,386.4,69.5,382,64,382z"/>
<path class="st0" d="M302,60c2.6,0,5.2-1.1,7.1-2.9s2.9-4.4,2.9-7.1s-1.1-5.2-2.9-7.1S304.6,40,302,40s-5.2,1.1-7.1,2.9
	S292,47.4,292,50s1.1,5.2,2.9,7.1S299.4,60,302,60z"/>
<path class="st0" d="M220.9,185c0,44.7,36.4,81.1,81.1,81.1s81.1-36.4,81.1-81.1s-36.4-81.1-81.1-81.1S220.9,140.3,220.9,185z
	 M363.1,185c0,33.7-27.4,61.1-61.1,61.1s-61.1-27.4-61.1-61.1s27.4-61.1,61.1-61.1S363.1,151.3,363.1,185z"/>
<path class="st0" d="M286.4,175.8c-3.9-3.9-10.2-3.9-14.1,0c-3.9,3.9-3.9,10.2,0,14.1l17.7,17.7c2,2,4.5,2.9,7.1,2.9s5.1-1,7.1-2.9
	l31-31c3.9-3.9,3.9-10.2,0-14.1c-3.9-3.9-10.2-3.9-14.1,0L297,186.3L286.4,175.8z"/>
</svg>
