<svg height="512pt" viewBox="0 -40 512 512" width="512pt" xmlns="http://www.w3.org/2000/svg"><path d="m508.328125 159.203125-55.089844-45.039063v-83.546874c0-16.882813-13.734375-30.617188-30.621093-30.617188h-80.617188c-5.523438 0-10 4.476562-10 10s4.476562 10 10 10h80.617188c5.855468 0 10.621093 4.765625 10.621093 10.617188v177.492187l-131.238281 99.78125-131.238281-99.78125v-89.160156s0-.003907 0-.007813v-88.324218c0-5.851563 4.765625-10.617188 10.621093-10.617188h80.617188c5.523438 0 10-4.476562 10-10s-4.476562-10-10-10h-80.617188c-16.886718 0-30.621093 13.734375-30.621093 30.617188v83.546874l-55.089844 45.039063c-2.324219 1.898437-3.671875 4.742187-3.671875 7.742187v111.019532h-45c-5.523438 0-10 4.476562-10 10 0 5.519531 4.476562 10 10 10h45v103.417968c0 16.882813 13.734375 30.617188 30.617188 30.617188h358.765624c16.882813 0 30.617188-13.734375 30.617188-30.617188v-234.4375c0-3-1.347656-5.84375-3.671875-7.742187zm-16.328125 237.632813-118.320312-118.320313 118.320312-89.957031zm-38.761719-256.839844 33.53125 27.414062-33.53125 25.492188zm-151.238281 190.457031c2.132812 0 4.265625-.679687 6.054688-2.039063l49.558593-37.679687 121.265625 121.265625h-353.757812l121.265625-121.265625 49.5625 37.679687c1.785156 1.359376 3.917969 2.039063 6.050781 2.039063zm-190-141.894531 118.320312 89.957031-118.320312 118.320313zm38.761719 4.34375-33.53125-25.492188 33.53125-27.414062zm0 0"/><path d="m64 341.964844h-54c-5.523438 0-10 4.476562-10 10 0 5.519531 4.476562 10 10 10h54c5.523438 0 10-4.480469 10-10 0-5.523438-4.476562-10-10-10zm0 0"/><path d="m302 20c2.628906 0 5.210938-1.070312 7.070312-2.929688 1.859376-1.859374 2.929688-4.441406 2.929688-7.070312s-1.070312-5.210938-2.929688-7.070312c-1.859374-1.859376-4.441406-2.929688-7.070312-2.929688s-5.210938 1.070312-7.070312 2.929688c-1.859376 1.859374-2.929688 4.441406-2.929688 7.070312s1.070312 5.210938 2.929688 7.070312c1.859374 1.859376 4.441406 2.929688 7.070312 2.929688zm0 0"/><path d="m220.867188 144.992188c0 44.738281 36.394531 81.136718 81.132812 81.136718s81.132812-36.398437 81.132812-81.136718c0-44.738282-36.394531-81.132813-81.132812-81.132813s-81.132812 36.394531-81.132812 81.132813zm142.265624 0c0 33.710937-27.421874 61.136718-61.132812 61.136718s-61.132812-27.425781-61.132812-61.136718c0-33.710938 27.421874-61.132813 61.132812-61.132813s61.132812 27.425781 61.132812 61.132813zm0 0"/><path d="m286.421875 135.757812c-3.90625-3.90625-10.234375-3.90625-14.140625 0-3.90625 3.902344-3.90625 10.234376 0 14.140626l17.652344 17.652343c1.953125 1.953125 4.511718 2.929688 7.070312 2.929688s5.117188-.976563 7.070313-2.929688l30.976562-30.976562c3.902344-3.902344 3.902344-10.234375 0-14.140625-3.90625-3.90625-10.238281-3.90625-14.144531 0l-23.902344 23.902344zm0 0"/></svg>