<svg id="Layer_1" data-name="Layer 1" xmlns="http://www.w3.org/2000/svg" viewBox="0 0 771.99 984.32"><defs><style>.cls-1{fill:#e6e6e6;stroke:#e6e6e6;}.cls-1,.cls-2{stroke-width:0.49px;}.cls-2{fill:#3e67b1;stroke:#3e67b1;}</style></defs><title>mexico</title><path class="cls-1" d="M732.16,1191.42l-5.44.5-2.92-3.53-3.45-.26h-6.13v-21.57l2.2,4.38,2.86,7.2,7.44,5.85,8,2.46Zm3.06-250,3.37,4.45,2.23-5,6.53.26.92,1.31,10.53,10.1,4.68.95,7,4.61,5.9,2.46.82,2.78-5.64,9.66,5.78,1.74,6.43,1,4.52-1,5.19-4.9.94-5.6,2.83-1.21,2.88,3.65-.12,5.09-4.82,3.53-3.84,2.61-6.47,6.29-7.63,8.92-1.43,5.3-1.54,6.87.06,6.73-1.24,1.52-.44,4.42-.4,3.59,7.27,6-.78,4.84,3.58,3.07-.29,3.47-5.5,9.22L768,1052l-11.48,1.52-6.29-.73,1.2,4.38-1.17,5.56,1.06,3.77-3.44,2.66-5.87,1-5.5-2.75-2.21,2,.8,7.57,3.86,2.32,3.14-2.43,1.7,4-5.27,2.41-4.6,4.86-.84,8-1.35,4.3-5.41,0-4.49,4.16-1.64,6.15,5.63,6.09,5.48,1.69-2,7.61-6.76,4.85-3.72,10.26-5.23,3.51-2.34,4.2,1.84,9.48,3.81,5.37-2.41-.47-5.31-1.46-13.83-1.24-2.37-5.37.11-6.81-3.81.58-2-3.25-.5-9.39,4.39-3.84,1.82-5.47-.67-4.31,3-7.19,2.1-10.92-.62-4.76,2.5-1.53-.61-3-2.66-1.59,1.89-3.33-2.59-3-1.33-9,2.3-1.56-1-9.28,1.34-7.66,1.54-6.58,3.42-2.65-1.74-7.07,0-6.57,4.34-4.62-.13-5.85,3.26-6.77,0-6.3-1.49-1.24-2.64-11.63,3.53-6.82-.54-6.36,2-5.92,3.75-6,4-4-1.71-2.5,1.2-2-.19-10.5,6.24-3.08,2-6.45L723,945.5l4.77-5.56Z" transform="translate(-136.56 -211.49)"/><path class="cls-1" d="M747.35,941.19l-6.53-.25-2.23,4.95-3.37-4.45-7.49-1.5L723,945.5l-4.13.85-2.24-8.47L713.51,931l1.81-5.85-3-2.56-.76-4.33-2.81-4.07,3.61-6.42-2.46-5,1.31-2-1-2.18,2.24-2.94.11-5,.28-4.11,1.23-2-4.95-9.35,4.26.49,2.95-.13,1.27-1.75,5-2.35,3-2.17,7.5-1-.62,4.33.71,2.22-.46,3.89,6.21,5.21,6.42,1,2.25,2.18,3.87,1.16,2.37,1.7,3.6-.06,3.32,1.73.26,3.39,1.11,1.72.08,2.54-1.67.09,2.2,6.88,11,.25-.84,3.43.62,2.35,3.12,1.67,1.36,3.72-1,4.73-1.57,2.64.55,3.44-1.79,1.25L774,928l-5.33-3.09-5.32-.08-10,1.76-2.75,5.33-.14,3.27-2.26,7.33Z" transform="translate(-136.56 -211.49)"/><path class="cls-1" d="M777.24,993.14l7.64-8.93,6.46-6.28,3.84-2.62,4.82-3.53.12-5.08-2.87-3.65-2.84,1.21,1.13-3.64.77-3.71v-3.44l-2-1.13-2.15,1-2.14-.28-.67-2.39-.53-5.67-1.07-1.84-3.87-1.67-2.33,1.21-6-1.18.38-8.3-1.69-3.38,1.79-1.25-.55-3.44,1.57-2.64,1-4.73-1.36-3.72-3.12-1.67-.62-2.35.84-3.43-11-.25-2.2-6.88,1.67-.09-.08-2.54L761,895.14l-.26-3.39L757.44,890l-3.6.06-2.37-1.7-3.87-1.16L745.35,885l-6.42-1-6.21-5.21.46-3.89-.71-2.22.62-4.33-7.5,1-3,2.17-5,2.35-1.27,1.75-2.95.13-4.26-.49-3.23,1-2.6-.66.38-8.78-4.7,3.4-5.05-.15L691.73,867l-3.8-.33,1.21-2.48-3.18-3.5-2.39-5.17,1.51-1v-2.42l3.46-1.65-.57-3.1,1.46-2,.41-2.66,6.55-3.89,4.69-1.09.77-.86,5.16.27,2.57-15.62.14-2.46-.9-3.26-2.54-2.07,0-4.14,3.22-.93,1.15.59.19-2.18-3.35-.59-.07-3.56,11.15.13,1.89-2,1.59,1.8,1.12,3.36,1.08-.7,3.15,3,4.45-.36,1.11-1.75,4.26-1.32,2.36-.94.66-2.41,4.09-1.61-.31-1.2-4.85-.49-.79-3.59.23-3.81-2.57-1.48,1.08-.53,4.24.73,4.55,1.43,1.65-1.35,4.12-.88,6.4-2.14,2.09-2.18-.75-1.61,3-.25,1.33,1.31L763,786.6l2,.86,1.31,2.65-1.59,2-.91,4.85,1.47,2.88.41,2.63,3.52,2.67,2.81.28.63-1.11,1.82-.25,2.58-1,1.87-1.51,3.16.48,1.4-.2,3.11.47.51-1.17-1-1.13.58-1.65,2.3.51,2.71-.58,3.28,1.2,2.5,1.18,1.77-1.55,1.28.24.78,1.6,2.74-.4,2.2-2.16,1.75-4.2L811.4,789l2-.27,1.42,3.15,3.21,10,3.06.94.15,3.92-4.3,4.68,1.78,1.72,10.12.89.2,5.7,4.35-3.73,7.2,2,9.51,3.48,2.8,3.33-.94,3.15,6.65-1.75,11.15,3,8.55-.22,8.46,4.71,7.31,6.39,4.41,1.64,4.9.24,2.07,1.8,1.94,7.28.95,3.47L906,864l-2.92,3.77-8.07,8-3.64,6.56-4.24,5.06-1.43.11-1.6,4.31.4,11L882.94,912l-.61,3.93-1.81,2.37-1,8-5.81,7.92-1,6.31-4.64,2.66-1.34,3.7h-6.22l-9,2.37-4,2.77-6.41,1.82-6.74,5-4.85,6.25-.83,4.74,1,3.52-1.07,6.5-1.3,3.16-4,3.58-6.35,11.59-5,5.29-3.9,3.15-2.61,6.44-3.78,3.9-1.59-3.87,2.53-3.22-3.32-4.59-4.48-3.7-5.9-4.27-2.12.2L781,992.43Z" transform="translate(-136.56 -211.49)"/><path class="cls-1" d="M663.27,673.44l-1.41.31-1.45-3.59-2.15-1.81,1.25-4,1.72.26,2,5.2Zm-1.64-17.74-6.24,1-.4-2.36,2.69-.51,3.78.19Zm4.7-.07-1,4.51-1.06-.81.1-3.31-2.57-2.52v-.74Z" transform="translate(-136.56 -211.49)"/><path class="cls-1" d="M596.81,709.69l0-.88.69-.28,1,.71,2-3.62,1.09-.07,0,.88,1.08,0-.09,1.63-.93,2.59.5.92-.59,2.13.36.57-.67,3-1.12,1.57-1,.19L598,721.11h-1.71l.45-6.7Z" transform="translate(-136.56 -211.49)"/><path class="cls-1" d="M544.86,243.1l-4,7.22-5,5.08,7.82,7.23,4.66-1.75L556,265.7l3.56-5.58-3.49-6.19-1.72-3.11-3.43-3ZM400.08,495.86l-2.36-4.78L392,487.47l-2.83-4.2-1.95-3.07-5.38-.95-3.51-1.36-6-2-.49,2.08,2.2,4.86,5.89,1.6,1,2.51,5.12,3.07,1.72,3.09,9.4,3.92Zm342.59,16.57-2-4L738.5,511l1.43,2.78,7.26,3.5,2.12-.54,2.82-3.38-5.31.23Zm-116.38-159,1.26,3.33,4,.28,6.7-6.81.12-2.42-7.86-.13ZM753.14,489.1l-5.86-3.67-7.52-2.22-2,.75,5.33,4.16,7.42,2.74,2.78-.15ZM804,498.89l-.73-4.56-4,1.48,1.77-6.36-5.71-2.7-2.64,2.14-5.08-2.41,2-3.08-3.84-1.9-3.74,3,3.79-7.81,3.06-5.72,1.1-2.48-2.65-.41-5,3.16-3.55,5.17-5.91,14.12-4.81,5.22,2.49,2.34-3.57,3,.88,2.52,11.11.25,6.15-.5,5.5,2.05-4.05,3.94,3.42.29,6.64-7.3,1.59,1.08L797,510.3l3.77,1.57,2.59-.31,2.41-7.38Zm-43.27,9.73-5.74,9.31-9.46,1.18L738,515l-1.86-6.27-1.82-9.11,5.41-5.77-5.07-4.27-8.56.87-12,7.21-9.19,11.13-4.86,1.37,6.59-7.76L714.92,491l7.3-3.88,4.8-6.35,5.92-.62,8.6.06,12.24,1.88,9.68-1.45,7.2-7.4,9.43-3.24,4.11-3.22,4.16-3.49-.42-10.59-2.3-3.62-4.46-1.28-2.27-8.26-3.67-3.16-9.13-2.58L761,428.07l-7.61-5.77,2.3-6.53L749.32,403l-7.46-14.08-4.45-10.17-3.79,5.33-5.48,12.36-8.29,6.07-4.15-6.44-5.22-1.73-1.91-14.27.17-9.8-10.2-.89-1.74-4.63-7-7-5.33-4.17-4.74,3.24-5.89-1.2L664,352.24l-4,2.85,1.91,18.74,2.5,10.45L657.64,396l7,8.21,3.88,9.06.47,7-3.17,7.15-6.49,7.07-9.16,4.66,4,5.16,3,15.11-3.1,9.55-4.41,3-8.52-8.75L637,452.66l-1.78-9.72.93-8.56-6.23-1-9.45-.57-6.07-4.25-7.17-2.81-4.09-4.85-5.73-4-10.63-4.55-8,2.09-2.68-8.06-2.58-10.19-8.41-1.84.32-13.09,2.22-9.15,6.2-13.48,7-10,6.66-1.57.38-8.26,4.52-5.48,8.19-.86,6.64-9,1.67-5.91L614.42,306l1.71-7.15,5.92,4.3,8-2.19,11.21-10.14.72-7.22-4-8.13,4.26-8.28-.35-7.89-7.68-8.08-8.46-2.42-8.14-1.28-.31,17.79-4.18,13.39-6,10.82-5.54-10.09,1.7-11.45-6.84-10.24-7.65,12.43,0-16.32-10.64-3.32,5.08-8.19-7.78-19.57-5.79-8-7.55-2.95-6.77,13.13L554.86,244l6.68,6.72,6.14,10-2.59,15.74-4.61-.42-3.64,12,0-14.3L548,268.5l-5.09,2.73.67,9.54-8.36-.36-8.88,2.39L516.22,276l-6.39,1.23-5.75-8.4L499.46,265l-4.58,1.58-7,.72-3.7,5.34,5.84,6.51-6.22,7.6-6.1-9-4.88,2.66-15.45,1.78-10.35-3.24,8.06-7.63-7.73-8-5.6,1-7.88-2.7-13.4-5.9-8.76-6.89-6.93-1-2.16,4.81-7,2.68-.78-12.56-7.62,11.24-9.68-15-4-1.82-1.27,8L368,249.18l-3.93-6.93-9.37,4.18-8.57,7.25-8.51-2-6.93,5.1-5,6.69-6-1.47-9-7.76-10.67-4,0,56.45,0,72.34,5.63.34,5.58,3.17,4,5,5.08,7.34,5.57-6.24,5.75-3.66,3,5.83,3.86,4.55,5.24,4.95,3.58,7.75,5.85,12,9.73,6.55L363,433l-3.18,4.81.12,5.07,6.92,7.05,1,7.67,7.32,4-.81,5.7,3.19,8.08L388,479.12l4.09,3.85,11.08,8.63.77,0H562.37l0-3.36,1.94,0,1,4.79,1.78,1.46,4,.54,5.85,1.37,5.55,2.66,4.64-1.11,7,2.22,2.32-3.39,3.25-1.35L601,493.3l1.29-1.13,5.33,1.75,3.94.21,1.37,1.15,1.91,4.86,6.43,1.28-1,2.42,2.26,2.47-1,3.19,2.4,1-1.2,2.81,1.54.25,1.07-1.22,1.12,1.84,4.3,1,4.35.08,4.64.85,5.12,1.59,1.87,2.56,3.71,6.2-1.85,2.65-4.65-1.1-2.89-5,.73,5.07-2.73,4.43.3,3.76-.47,2.19-3.71,2.58-2.69,4.27-1.26,2.7,3.14.49,4.25-2.46,2.5-2.16,1.7-.35,3.15.78,1.52-1.21,2.8-1,5-1h0l-.5-2.35-.28.09-1.75.41-2.28-.74,1.72-2.69L654,535l4-1.15,4.84-1.08,2.54,1.5,1.6-1.74,1.81-1.1L670,532l.06.12,5.86-5.57,2.59-1.49,8.69-.05h10.55l.58-2,1.83-.41,2.43-1.26,2-3.72,1.75-6.42,4.36-6.33,1.91,2.22,3.84-1.43,2.54,2.42V519.4l3.75,4.6,6.36-1,9.16-.27-9.94,6.66.22,6.72,4.35.58,6.39-5.7,5.68-3.24,12.68-4.8,7.08-5.34-3.7-3ZM651.11,363.45l2.25-6.38-1.46-2.52-2.34-.27L647.35,358l-.27.84,1.5,3.62ZM359.86,437.82h0L363,433Z" transform="translate(-136.56 -211.49)"/><path class="cls-1" d="M714.22,1166.55v21.57h6.13l3.45.27-1.9,4-4.91,3.13-2.81-.32-3.39-.81-4.15-3-6-1.45-7.2-5.53-5.85-5.25-7.89-10.73,4.72,2,8,6.39,7.6,3.48,3-4.44,1.86-6.53,5.27-3.9Zm2.37-228.67,2.24,8.47,4.13-.85.7,1.55-2,6.45-6.23,3.08.18,10.5-1.2,2,1.72,2.51-4,4-3.75,6-2,5.91.54,6.36-3.52,6.82,2.63,11.63,1.49,1.24v6.3l-3.27,6.77.13,5.85-4.33,4.62,0,6.57,1.74,7.07-3.43,2.65-1.53,6.58-1.35,7.66,1,9.28-2.3,1.56,1.34,9,2.58,3-1.88,3.33,2.65,1.6.61,3-2.5,1.53.62,4.76-2.09,10.92-3,7.19.67,4.31-1.81,5.47-4.4,3.84.5,9.39,2,3.26,3.81-.58-.11,6.8,2.37,5.37,13.84,1.24,5.3,1.46-5.09-.07-2.76,2.31-5.16,3.4-.92,8.94-2.43.23-6.46-3.14-6.55-6.63h0l-7.12-5.38-1.79-5.87,1.62-5.35-2.88-6-.74-15,2.44-8.24,6-6.5-8.69-2.43,5.45-7.29,2-13.39,6.37,2.81,3-16.27-3.84-2-1.79,9.7-3.61-1.11L683.4,1075l2-14,2.63-5-1.65-7.14-.47-8.12,2.41-.23,3.51-11.43,4-11.09,2.42-10.14-1.32-10,1.71-5.45-.68-8.08,3.34-7.89,1-12.33,1.83-13,1.79-13.77-.41-10-1.2-8.48,3-1.53,1.53-3.06,2.81,4.06.76,4.34,3,2.55-1.8,5.85Z" transform="translate(-136.56 -211.49)"/><path class="cls-1" d="M675.64,813.51l-2.45-1.35-2.81-1.88-1.63.9-4.85-.79L662.5,808l-1.07.09-5.72-3.25-.78-1.77,2.14-.42-.26-2.85,1.35-2.06,2.84-.39,2.4-3.57,2.2-3-2.11-1.36,1.08-3.31-1.3-5.22,1.23-1.5-.9-4.84-2.32-3,.73-2.79,1.85.41,1.08-1.71L663.61,764l.7-.84,3,.18,4.3-4,2.36-.61.05-1.91,1.06-4.88,3.28-2.69,3.61-.11.45-1.21,4.48.49,4.51-2.93,2.23-1.31,2.77-2.8,2,.36,1.5,1.53-1.11,2-3.68,1-1.45,2.9-2.22,1.66-1.66,2.15-.7,4.13-1.59,3.37,2.95.38.74,2.65,1.26,1.26.45,2.32-.68,2.12.2,1.2,1.41.48,1.37,2,7.36-.55,3.33.72,4,4.93,2.32-.61,4.12.31,3.26-.66,2,1-1,3.07-1.28,1.92-.45,4.1,1.15,3.78,1.63,1.7.2,1.27-2.9,2.84,2.07,1.25,1.53,2,1.74,5.68-1.08.7-1.12-3.36-1.59-1.8-1.89,2-11.15-.13.07,3.56,3.35.59-.19,2.18-1.15-.59-3.22.93,0,4.14,2.54,2.07.9,3.26-.14,2.46L707,837.11l-2.87-3-1.71-.14,3.7-5.79-4.39-2.67-3.43.49-2.07-1-3.16,1.51-4.26-.72-3.37-6-2.65-1.46L681,815.66l-3.8-2.69Z" transform="translate(-136.56 -211.49)"/><path class="cls-1" d="M632.18,765.71l-3.11-1.28-1.16-1.2.66-1-.21-1.27-1.59-1.38-2.25-1.14-2-.73-.38-1.69-1.5-1,.37,1.67L619.89,758l-1.3-1.6-1.84-.57-.79-1.16,0-1.76.76-1.82-1.62-.82,1.31-1.12.86-.75,3.78,1.54,1.31-.76,1.82.49.95,1.19,1.68.38,1.38-1.22,1.45,3.14,2.21,2.33,2.69,2.46-2.22.52,0,2.32,1.19.85-.86.68.23,1-.48,1.17Z" transform="translate(-136.56 -211.49)"/><path class="cls-1" d="M636.17,677l4.94.44,4.5.07L651,679.6l2.28,2.26,5.34-.7,2,1.45,4.85,3.8,3.56,2.76,1.89-.09,3.41,1.25-.41,1.71,4.21.25,4.33,2.49-.68,1.42L678,697l-3.86.3-3.94-.48-8.2.59,3.84-3.38-2.33-1.58-3.69-.41-2-1.76-1.36-3.47-3.23.23-5.34-1.64-1.72-1.29-7.46-1-2-1.2,2.15-1.54-5.62-.31-4.11,3.2-2.37.08-.82,1.5-2.84.67-2.45-.58,3-1.9,1.24-2.22,2.58-1.37,2.93-1.2,4.33-.6Z" transform="translate(-136.56 -211.49)"/><path class="cls-1" d="M696.6,698.23l.71-1,4.47,0,3.39,1.56,1.51-.16,1,2.15,3.13-.13-.18,1.8,2.54.22,2.82,2.2-2.13,2.44-2.72-1.3-2.63.25-1.88-.28-1,1.09-2.2.37-.87-1.45-1.89.86-2.3,4.09-1.47-1-.29-1.72.12-1.62-1.48-1.81,1.4-1,.44-2.31Z" transform="translate(-136.56 -211.49)"/><path class="cls-1" d="M647.42,832l3.05-4.26-1.24-2.49L647,827.92l-3.43-2.5,1.16-1.6-1-5.16,2-.86,1.06-3.54,2.16-3.67-.39-2.32,3.13-1.22,3.94-2.26,5.72,3.25,1.07-.09,1.4,2.44,4.85.79,1.63-.9,2.81,1.88,2.45,1.35.8,4.32-1.78,3.69-6.25,6-6.88,2.25L658,834.68l-1.08,3.85-3.24,2.35L651.3,838l-2.31-.62-2.37.45-.15-2.09,1.63-1.35Z" transform="translate(-136.56 -211.49)"/><path class="cls-1" d="M756.77,1159.21l6.87-5.5,4.87,2.28,3.43-3.65,4.59,4.11-1.72,3.23-7.73,2.78-2.58-3.25-4.86,4.19Z" transform="translate(-136.56 -211.49)"/><path class="cls-1" d="M806.26,798.4l-2.2,2.16-2.74.4-.78-1.6-1.28-.24-1.77,1.55-2.5-1.18,1.45-2.43.5-2.59,1-2.44-2.22-3.36-.46-3.91,3-4.91,1.94.63,4.22,1.35,6.06,4.82.95,2.34L808,794.2Z" transform="translate(-136.56 -211.49)"/><path class="cls-1" d="M591.36,733.77l-2.94-1-3.57-.11-2.62-1.16-3.07-2.42.14-1.71L580,726l-.81-1.11,2.75-4.81,7.35,0,.15-2-.93-.36-.64-1.28L585.72,715l-2.13-2h2.58v-3.36h5.35l5.29.07,0,4.72-.45,6.7H598l1.87,1.07.49-.88,1.68.75-2.61,2.25L596.75,726l-.41,1.13.46,1.16-1.19,1.49-1.34.36.3.7-1.07.64-2,1.48Z" transform="translate(-136.56 -211.49)"/><path class="cls-1" d="M765,764.89l3.76,2.12,3.54,3.74.16,3,2.16.13,3.06,2.8,2.26,2-.91,5.14-3.48,1.49.31,1.34-1,2.94,2.54,4.14h1.83l.75,3.21,3.5,5-1.4.2-3.16-.48L777,803.07l-2.58,1-1.82.25-.63,1.11-2.81-.28-3.52-2.67-.41-2.63L763.79,797l.91-4.85,1.59-2L765,787.46l-2-.86.74-2.51-1.33-1.31-3,.25-3.88-4.33,1.55-1.58-.11-2.64,3.52-.92,1.42-1.07-2-2.13.5-2.09Z" transform="translate(-136.56 -211.49)"/><path class="cls-1" d="M607.27,738.16l-1-1.83-1.74-.51.4-2.34-.78-.63-1.18-.42-2.51.7-.21-.79-1.73-.94-1.23-1.17-1.69-.5,1.19-1.49-.46-1.16.41-1.13,2.71-1.65,2.61-2.25.59.23,1.26-1,1.64-.08.53.48.89-.29,2.66.53,2.64-.16,1.84-.65.67-.66,1.83.3,1.37.41,1.5-.14,1.13-.51,2.62.82.91.13,1.75,1.1,1.65,1.33,2.08.9,1.51,1.62-2-.12-.79.8-2,.77H625l-1.27.75-1.14-.26-1-.9-.6.17-.73,1.4-.55-.05-.1,1.21-2,1.62-1.06.69-.59.73L614.26,732,613,733.56l-1.19,0-1.35.14.13,2.87-.84.06-.72,1.33Z" transform="translate(-136.56 -211.49)"/><path class="cls-1" d="M688.14,697l3.49.27,5,1,.5,3.29-.44,2.31-1.4,1,1.48,1.81-.12,1.62-3.8-1-2.7.41-3.5-.43-2.68,1.12-3.06-1.87.5-1.93,5.27.83,4.32.48,2.06-1.33-2.61-2.61,0-2.3-3.61-1Z" transform="translate(-136.56 -211.49)"/><path class="cls-1" d="M663.07,705.6l3.85.54,3,1.44.95,1.64-4,.11-1.73,1-3.21-1-3.27-2.18.69-1.37,2.4-.42Z" transform="translate(-136.56 -211.49)"/><path class="cls-2" d="M551,660.2l-2.23,5.54-1,4.5-.41,8.33-.56,3,1,3.35,1.78,3,1.14,4.73,3.8,4.52,1.34,3.44,2.24,3,6.08,1.59,2.36,2.51,5-1.68,4.36-.6,4.29-1.08,3.6-1,3.64-2.46,1.36-3.52.47-5.1,1-1.78,3.88-1.6,6-1.42,5.07.22,3.47-.52,1.38,1.29-.2,2.94L606.89,695l-1.36,3.68,1.05,1.05-.86,2.61L604.29,707l-1.45-1.54-1.2.1-1.09.07-2,3.62-1-.71-.69.28,0,.88-5.29-.07h-5.35V713h-2.58l2.13,2,2.11,1.38.64,1.28.93.36-.15,2-7.35,0-2.75,4.81L580,726l-.66,1.38-.14,1.71-6.48-6.34-3-1.92-4.67-1.55-3.2.43-4.59,2.23-2.89.58-4-1.56L546,719.81l-5.35-2.72-4.3-.83-6.48-2.77-4.79-2.85-1.44-1.6-3.2-.35-5.86-1.9-2.38-2.74-6.15-3.41-2.87-3.81-1.37-3,1.91-.59-.59-1.74,1.32-1.58,0-2.11-1.93-2.75-.52-2.44-1.92-3.11-5-6.16-5.76-4.88-2.78-3.9L481.65,662l-1-1.54.87-3.92-2.92-1.49-3.37-3.1-1.43-4.48-3.08-.52-3.32-3.41-2.69-3.16-.25-2-3.08-5-2-5,.08-2.55-4.14-2.65-1.91.29-3.27-1.84-.91,2.71.94,3.2.56,5,2,2.71,4.25,4.51.95,1.53.87.46.75,2.23,1-.09,1.15,4.16,1.74,1.64,1.22,2.27,3.59,3.25,1.9,5.9,1.7,2.77,1.59,2.94.32,3.3,2.76.21,2.29,2.83,2.08,2.77-.14,1.11-2.41,2.27-1,0-1.51-3.76L472,671.94l-4.13-3-2.92-1.59.19-4.6-.87-3.43-2.73-2-3.94-2.84-.75.82-1.45-1.66-3.53-1.55-3.37-3.73.42-.48,2.35.36,2.13-2.41.21-2.91-4.41-4.65-3.36-1.8-2.11-4.11-2.12-4.33-2.65-5.33-2.33-6.05,6.51-.52,7.27-.73-.54,1.32L458.5,620l13.06,4.71,11.38,0h4.54v-2.75h9.92l2.09,2.37,2.93,2.11,3.4,2.91,1.89,3.45,1.43,3.61,3,2,4.75,1.95,3.61-5.16,4.68-.13,4,2.61,2.87,4.46,2,3.8,3.38,3.67,1.26,4.48,1.6,3,4.47,2,4.06,1.39Z" transform="translate(-136.56 -211.49)"/><path class="cls-1" d="M661.28,771.46l-1.91-1.66-1.22-3.1,1.41-1.53-1.45-.4-1.07-1.9-2.85-1.59-2.5.36-1.17,2-2.31,1.45-1.25.2-.56,1.19,2.73,3.12-1.56.73-.83.85-2.66.29-1-3.42-.75,1-1.89-.33-1.15-2.31L637,766l-1.48-.67H633l-.18,1.25-.65-.87.3-1.14.48-1.17-.23-1,.86-.68-1.19-.85,0-2.32,2.22-.52,2,2.07-.11,1.22,2.28.26.54-.47,1.57,1.41,2.82-.41,2.44-1.46,3.47-1.16,2-1.72,3.16.34-.22.56,3.2.2,2.54,1,1.87,1.73,2.16,1.59-.7.84,1.33,3.38-1.08,1.71-1.85-.41Z" transform="translate(-136.56 -211.49)"/><path class="cls-1" d="M708.74,914.23l-1.53,3.07-3,1.53-5.73-3.44-.5-2.45-11.35-6-10.27-6.46L672,896.88,669.63,892l.94-1.69-4.85-7.66L660.08,872l-5.41-11.48-2.34-2.61-1.81-4.23-4.44-3.74L642,847.61l1.85-2.56-2.77-5.44,1.78-4,4.56-3.59.68,2.37-1.63,1.35.15,2.09,2.37-.45,2.31.62,2.4,2.88,3.24-2.35,1.08-3.85,3.51-4.95,6.88-2.25,6.25-6,1.78-3.69-.8-4.32,1.53-.54,3.8,2.69,1.83,2.69,2.65,1.46,3.37,6,4.26.72,3.16-1.51,2.07,1,3.43-.49,4.39,2.67-3.7,5.79,1.71.14,2.87,3-5.16-.27-.77.86-4.69,1.09-6.55,3.89-.41,2.66-1.46,2,.57,3.1-3.46,1.65v2.42l-1.51,1,2.39,5.17,3.18,3.5-1.21,2.48,3.8.33,2.16,3.08,5.05.15,4.7-3.4-.38,8.78,2.6.66,3.23-1,4.95,9.35-1.23,2-.28,4.11-.11,5-2.24,2.94,1,2.18-1.31,2,2.46,5Z" transform="translate(-136.56 -211.49)"/><path class="cls-1" d="M727.68,705.46l2.93.53,1,1.19-1.47,1.51-4.31,0-3.34.21-.34-2.56.82-.88Z" transform="translate(-136.56 -211.49)"/><path class="cls-1" d="M748.27,942.5l2.26-7.33.14-3.27,2.75-5.33,10-1.76,5.32.08L774,928l.1,1.87,1.69,3.38-.38,8.3,6,1.18,2.33-1.21,3.87,1.67,1.07,1.84.53,5.67.67,2.39,2.14.28,2.15-1,2,1.13v3.44l-.77,3.71-1.13,3.64-.93,5.6-5.2,4.89-4.52,1-6.43-1-5.78-1.74,5.64-9.66-.82-2.78-5.9-2.46-7-4.61-4.68-.95Z" transform="translate(-136.56 -211.49)"/><path class="cls-1" d="M780,778.62l6.86,1.14.62-1,4.63-.41,6.15,1.53-3,4.91.46,3.91L798,792l-1,2.46-.5,2.6L795,799.49l-3.28-1.2-2.71.58-2.3-.51-.58,1.65,1,1.13-.51,1.17-3.11-.47-3.5-5-.75-3.21h-1.83l-2.54-4.14,1-2.94-.31-1.34,3.48-1.49Z" transform="translate(-136.56 -211.49)"/><path class="cls-1" d="M604.54,735.82l-.63,1.38-3.32-.09-2.06-.56-2.37-1.16L593,735l-1.62-1.26.18-.86,2-1.48,1.07-.64-.3-.7,1.34-.36,1.69.5,1.23,1.17,1.73.94.21.79,2.51-.7,1.18.42.78.63Z" transform="translate(-136.56 -211.49)"/><path class="cls-1" d="M754,751.09l3.29-.75,1.2.2-.23,4.31-4.78.64-1-.52,1.66-1.59Z" transform="translate(-136.56 -211.49)"/><polygon class="cls-1" points="17.6 166.68 11.95 168.66 15.43 171.77 19.18 173.9 22.69 172.13 22.14 167.73 17.6 166.68"/><polygon class="cls-1" points="0.24 135.32 4.41 132.75 4.89 131.37 0.24 129.98 0.24 135.32"/><polygon class="cls-1" points="93.39 193.63 90.33 195.27 85.13 199.06 86.02 204.01 88.95 206.7 94.66 202.71 99.62 197.68 97.19 194.36 93.39 193.63"/><polygon class="cls-1" points="586.21 312.51 582.46 307.92 582.49 296.63 579.95 294.21 576.11 295.64 574.2 293.43 569.84 299.75 568.09 306.18 566.06 309.89 563.63 311.15 561.8 311.56 561.22 313.56 550.67 313.56 541.98 313.62 539.39 315.1 533.53 320.67 534.12 321.78 534.46 324.86 530.16 327.45 525.48 326.8 520.98 326.51 518.26 327.41 518.77 329.75 518.77 329.76 518.88 330.52 513.95 335.14 509.63 337.37 506.69 338.4 503.3 340.51 499.15 341.53 496.3 341.14 492.77 339.56 494.73 336.6 495.99 333.9 498.68 329.64 498.39 326.43 497.36 321.85 495.25 321.06 491.7 324.54 490.56 324.48 490.27 322.49 493.42 319.31 493.94 315.67 493.47 312 489.24 308.83 484.37 307.2 483.57 310.3 482.31 311.13 481.3 315.11 480.76 312.41 478.48 314.34 477.05 317.04 475.55 320.95 475.27 324.31 477.17 329.16 477.01 334.28 474.69 338.03 473.53 339.09 471.98 339.93 470.04 339.97 469.51 339.45 467.97 335.42 467.92 333.42 468.08 331.5 467.36 327.69 468.44 323.23 469.74 317.69 472.71 311.5 471.85 311.53 467.64 316.72 466.87 315.77 469.11 312.87 472.52 307.61 476.42 306.88 480.88 305.24 485.38 306.1 485.57 306.14 490.62 305.4 487.77 302.11 486.23 301.86 484.49 301.52 483.29 299.19 477.66 299.92 472.58 301.77 468.55 298.6 465.31 297.54 467.14 293.11 462.09 295.89 457.5 298.61 453.08 300.72 449.57 297.86 443.83 299.6 443.85 298.38 447.74 294.85 451.8 291.47 457.64 288.66 450.6 286.44 445.96 287.55 440.41 284.89 434.56 283.52 430.57 282.99 428.79 281.52 427.77 276.73 425.83 276.78 425.81 280.13 413.97 280.13 394.38 280.13 374.93 280.13 357.74 280.13 340.57 280.13 323.68 280.13 306.23 280.13 300.61 280.13 283.61 280.13 267.36 280.13 269.3 287.21 270.22 294.17 268.8 296.39 265.75 288.41 257.47 285.5 256.78 287.17 258.45 291.13 260.26 298.32 261.29 309.38 260.6 316.71 259.9 323.93 257.66 331.31 259.49 337.23 259.69 343.76 258.43 350 261.48 354.07 262.27 360.08 266.7 366.19 269.23 368.57 269.02 370.24 273.79 380.15 279.35 387.19 280.04 391 281.5 392.12 286.82 392.8 288.87 394.67 292.08 395.01 292.71 396.98 295.38 397.8 299.09 401.72 300.05 405.18 306.56 404.66 313.82 403.93 313.29 405.25 321.93 408.53 334.99 413.24 346.38 413.2 350.91 413.19 350.93 410.44 360.84 410.44 362.93 412.81 365.86 414.92 369.26 417.83 371.16 421.28 372.58 424.89 375.54 426.87 380.29 428.82 383.9 423.66 388.58 423.54 392.61 426.15 395.49 430.61 397.46 434.4 400.84 438.07 402.1 442.55 403.7 445.54 408.17 447.51 412.23 448.9 414.46 448.71 413.38 446.56 413.09 443.51 413.15 439.09 414.46 436.2 417.59 433.12 423.28 430.33 428.49 425.5 433.31 423.96 436.87 423.5 441.03 425.02 446.02 424.2 450.3 427.66 454.45 427.86 456.6 426.63 458.73 427.59 459.82 426.73 458.6 425.44 458.69 422.78 457.66 421.04 460.03 420.01 464.39 419.55 469.47 420.28 475.94 419.45 479.53 421.08 482.31 424.15 483.34 424.48 489.11 421.5 491.35 422.5 495.81 427.98 497.41 431.55 496.24 435.84 497.1 438.36 499.76 443.25 502.79 448.71 504.97 450.17 505.87 452.93 508.69 453.7 510.4 452.9 511.82 449.05 512.07 446.58 512.25 442.29 509.54 434.85 509.51 432.06 506.96 427.45 505.05 421.85 504.04 417.26 504.93 412.54 507.62 408.57 510.85 405.36 517.13 400.96 517.95 398.67 520.85 396.15 523.71 395.71 527.47 391.67 533.39 389.62 537.03 384.44 536.23 377.39 535.63 374.93 533.99 374.44 533.75 367.61 529.8 365.27 533.59 366.41 532.37 361.8 533.47 358.63 534.14 364.7 537.07 367.47 535.3 372.36 535.82 372.65 539.04 366.9 540.87 364.08 540.79 361.32 539.37 360.02 538.18 356.06 540.05 357.9 541.31 358.29 541.74 360.17 545.9 354.5 547.14 349.14 545.45 348.8 547.2 346.72 547.03 347.64 550.67 347.63 558.69 345.37 556.99 343.94 548.58 345.36 553.35 343.17 556.68 342.79 559.17 342.41 563.41 341.09 566.16 341.24 570.02 340 570.48 337.81 568.76 336.11 569.36 338.91 566.99 338.72 565.1 334.65 565.15 330.54 566.13 328.78 569.15 324.12 575.2 321.78 581.08 319.04 587.2 315.16 586.21 312.51"/><polygon class="cls-1" points="216.35 233.04 210.85 233.82 208.16 232.55 207.82 235.65 208.88 239.88 211.77 242.86 213.88 247.21 217.33 251.49 219.61 251.51 214.63 243.95 216.35 233.04"/><polygon class="cls-1" points="216.59 208.6 210.73 196.59 207.15 188.84 201.91 183.9 198.06 179.34 195.02 173.52 189.27 177.18 183.7 183.41 178.62 176.07 174.62 171.1 169.04 167.92 163.41 167.58 163.44 95.24 163.47 38.79 157.26 36.48 148.57 31.45 140.96 34.17 136.55 32 125.54 30.41 113.48 25.03 107.64 26.74 98.88 23.83 99.22 19.84 89.55 18.8 87 22.16 82.86 14.26 74.2 10.52 65.39 19.93 60.13 18.77 49.28 26.44 43.7 28.39 37.85 36.37 36.49 44.37 29.27 51.69 19.11 52.2 15.91 60.43 23.77 65.3 29.27 71.76 33.34 79.19 40.38 84.75 45.02 93.61 32.94 94.16 33.72 87.05 29.02 87.05 16.25 94 8.2 99.85 15.45 107.83 17.85 113.25 26.23 116.44 34.33 114.95 38.84 117.87 40.59 114.95 46.66 112.03 50.18 111.88 45.94 117.03 49.15 119.4 50.21 125.36 45.85 129.35 41.69 128.24 37.07 134.38 33.14 132.36 28.51 133.28 26.47 139.72 21.8 146.6 19.59 153.55 24 158.62 24.02 165.25 27.94 168.03 32.77 173.4 40.21 171.22 43.9 175.26 42.87 179.39 43.36 185.99 46.87 185.99 52.59 181.57 54.73 187.07 56.28 183.12 60.02 188.69 63.12 184.7 64.96 186.6 71.56 183.26 68.65 189.74 67.66 197.9 63.44 201.65 62.16 203.75 54.23 209.99 51.4 214.2 44.3 215.35 38.2 220.88 32.6 223.97 26.34 228.6 27.23 230.26 37.06 227.44 41.82 224.13 47.63 220.72 52.97 217.91 56.9 218.68 63.6 214.34 65.41 209.52 74.34 204.14 75.76 199.47 81.49 196.22 87.64 191.71 93.05 183.85 88.86 178.45 97.11 170.39 101.02 162.69 108.31 156.12 109.89 159.09 103.8 162.71 101.23 174 102.05 180.63 108.39 178.25 113.43 174.45 120.05 172.08 123.22 171.35 122.04 163.33 128.39 160.85 135.19 165.82 146.45 171.11 154.38 170.14 164.39 174.21 169.88 176.35 181.71 187.87 188.42 191 197.52 191.27 203.02 191.97 206.1 202.05 213.48 210.49 215.1 219.38 220.15 222.58 223.3 226.33 226.48 221.52 226.32 215.14 216.59 208.6"/><path class="cls-1" d="M777.24,993.14l3.71-.71,5.75,5.12,2.12-.2,5.9,4.27,4.48,3.7,3.32,4.59-2.53,3.22,1.59,3.87-2.48,4.33-6.47,3.85-4.22-1.39-3.1.74-5.29-3-3.88.22-3.49-3.81.44-4.42,1.25-1.51-.06-6.73,1.53-6.88Z" transform="translate(-136.56 -211.49)"/><path class="cls-1" d="M698.78,745.2l-.17,1.37-3.36.68,1.87,2.63-.07,3-2.53,3.35,2.17,4.58,2.47-.38,1.28-4.17-1.77-2-.29-4.38,7.13-2.36-.79-2.73,2-1.84,2,4.09,4,.09,3.72,3.23.23,1.92,5.14.05,6.11-.59,3.28,2.59,4.38.71,3.21-1.81.07-1.45,7.09-.35,6.86-.08L748,753.06l2,2.73,4.58.43,4.34,2.83.91,4.62,3-.13,2.24,1.35-4.54,3.38-.5,2.09,2,2.13-1.42,1.07-3.52.92.11,2.64-1.55,1.58,3.88,4.33.75,1.61-2.09,2.18-6.4,2.14-4.12.88-1.65,1.35-4.55-1.43-4.24-.73-1.08.53,2.57,1.48-.23,3.81.79,3.59,4.85.49.31,1.2-4.09,1.61-.66,2.41-2.36.94L733,806.41l-1.11,1.75-4.45.36-3.15-3-1.74-5.68-1.53-2-2.07-1.25,2.9-2.84-.2-1.27-1.63-1.7L718.86,787l.45-4.1,1.28-1.92,1-3.07-2-1-3.26.66-4.12-.31-2.32.61-4-4.93-3.33-.72-7.36.55-1.37-2-1.41-.48-.2-1.2.68-2.12-.45-2.32-1.26-1.26-.74-2.65-2.95-.38,1.59-3.37.7-4.13,1.66-2.15,2.22-1.66,1.45-2.9Z" transform="translate(-136.56 -211.49)"/><path class="cls-1" d="M616.45,749.19l-2-1.83L611.8,745l-1.26-2-2.42-1.83-2.87-2.63.64-.91,1,.88.43-.41,1.78-.24.72-1.33.84-.06-.13-2.87,1.35-.14,1.19,0,1.24-1.56,1.68,1.18.59-.73,1.06-.69,2-1.62.1-1.21.55.05.73-1.4.6-.17,1,.9,1.14.26,1.27-.75h1.44l2-.77.79-.8,2,.12-.5.57-.29,1.31.59,2.15-1.32,2-.62,2.35-.18,2.58.31,1.5.14,2.63-.87.57-.54,2.49.39,1.53-1.17,1.49.27,1.56.88,1-1.38,1.22-1.68-.38-.95-1.19-1.82-.49-1.31.76-3.78-1.54Z" transform="translate(-136.56 -211.49)"/></svg>