<?xml version="1.0" encoding="utf-8"?>
<!-- Generator: Adobe Illustrator 23.0.3, SVG Export Plug-In . SVG Version: 6.00 Build 0)  -->
<svg version="1.1" id="Layer_1" xmlns="http://www.w3.org/2000/svg" xmlns:xlink="http://www.w3.org/1999/xlink" x="0px" y="0px"
	 viewBox="0 0 512 512" style="enable-background:new 0 0 512 512;" xml:space="preserve">
<style type="text/css">
	.st0{fill:#3E67B1;}
</style>
<path class="st0" d="M441.4,395.9H136c-4.2,0-7.6,3.4-7.6,7.6c0,4.2,3.4,7.6,7.6,7.6h305.4c7,0,12.6,5.7,12.6,12.6v60.6
	c0,7-5.7,12.6-12.6,12.6H69.8c-7,0-12.6-5.7-12.6-12.6v-60.6c0-7,5.7-12.6,12.6-12.6h30.8c4.2,0,7.6-3.4,7.6-7.6
	c0-4.2-3.4-7.6-7.6-7.6H69.8c-15.3,0-27.8,12.5-27.8,27.8v60.6c0,15.3,12.5,27.8,27.8,27.8h371.6c15.3,0,27.8-12.5,27.8-27.8v-60.6
	C469.2,408.3,456.7,395.9,441.4,395.9z"/>
<path class="st0" d="M255.6,377.7c57.8,0,107-41.3,116.9-98.2c0.7-4.1-2-8-6.2-8.8c-4.1-0.7-8,2-8.8,6.2
	c-8.6,49.6-51.5,85.6-102,85.6c-57.1,0-103.5-46.4-103.5-103.5c0-57.1,46.4-103.5,103.5-103.5c51.7,0,95.8,38.5,102.6,89.7
	c0.6,4.1,4.4,7,8.5,6.5c4.1-0.6,7.1-4.4,6.5-8.5c-2.8-20.9-11-40-23.2-55.9V94.4C350,42.4,307.7,0,255.6,0
	c-20.6,0-40.2,6.5-56.7,18.9c-3.3,2.5-4,7.3-1.5,10.6c2.5,3.3,7.3,4,10.6,1.5c13.8-10.4,30.2-15.8,47.6-15.8
	c43.7,0,79.3,35.6,79.3,79.3v76.4c-5.3-4.8-11.1-9.1-17.2-12.8V94.4c0-34.2-27.9-62.1-62.1-62.1s-62.1,27.9-62.1,62.1V158
	c-6.1,3.8-11.9,8.1-17.2,12.9V94.4c0-13.9,3.6-27.5,10.5-39.5c2.1-3.6,0.8-8.3-2.8-10.3c-3.6-2.1-8.3-0.8-10.3,2.8
	c-8.2,14.3-12.5,30.5-12.5,47.1v92.8c-15.2,19.9-24.2,44.8-24.2,71.8C136.9,324.5,190.2,377.7,255.6,377.7z M208.6,94.4
	c0-25.9,21.1-47,47-47s47,21.1,47,47v55.7c-14.5-6.3-30.4-9.7-47-9.7c-16.7,0-32.6,3.5-47,9.7V94.4z"/>
<path class="st0" d="M236.4,323.2h38.4c4.2,0,7.6-3.4,7.6-7.6v-51.2c8.3-7.5,13.1-18.3,13.1-29.6c0-22-17.9-39.9-39.9-39.9
	s-39.9,17.9-39.9,39.9c0,11.3,4.8,22.1,13.1,29.6v51.2C228.8,319.8,232.2,323.2,236.4,323.2z M255.6,210.1
	c13.6,0,24.7,11.1,24.7,24.7c0,7.9-3.7,15.2-10.1,19.9c-1.9,1.4-3.1,3.7-3.1,6.1V308H244v-47.2c0-2.4-1.1-4.7-3.1-6.1
	c-6.4-4.7-10.1-12-10.1-19.9C230.8,221.1,241.9,210.1,255.6,210.1z"/>
<path class="st0" d="M103,432.7v8.1l-7-4c-3.6-2.1-8.3-0.8-10.3,2.8c-2.1,3.6-0.9,8.3,2.8,10.3l7,4l-7,4c-3.6,2.1-4.9,6.7-2.8,10.3
	c1.4,2.4,3.9,3.8,6.6,3.8c1.3,0,2.6-0.3,3.8-1l7-4v8.1c0,4.2,3.4,7.6,7.6,7.6s7.6-3.4,7.6-7.6v-8.1l7,4c1.2,0.7,2.5,1,3.8,1
	c2.6,0,5.2-1.4,6.6-3.8c2.1-3.6,0.9-8.3-2.8-10.3l-7-4l7-4c3.6-2.1,4.9-6.7,2.8-10.3s-6.7-4.9-10.3-2.8l-7,4v-8.1
	c0-4.2-3.4-7.6-7.6-7.6S103,428.5,103,432.7z"/>
<path class="st0" d="M158.1,468.3c1.4,2.4,3.9,3.8,6.6,3.8c1.3,0,2.6-0.3,3.8-1l7-4v8.1c0,4.2,3.4,7.6,7.6,7.6
	c4.2,0,7.6-3.4,7.6-7.6v-8.1l7,4c1.2,0.7,2.5,1,3.8,1c2.6,0,5.2-1.4,6.6-3.8c2.1-3.6,0.9-8.3-2.8-10.3l-7-4l7-4
	c3.6-2.1,4.9-6.7,2.8-10.3c-2.1-3.6-6.7-4.9-10.3-2.8l-7,4v-8.1c0-4.2-3.4-7.6-7.6-7.6c-4.2,0-7.6,3.4-7.6,7.6v8.1l-7-4
	c-3.6-2.1-8.3-0.8-10.3,2.8c-2.1,3.6-0.9,8.3,2.8,10.3l7,4l-7,4C157.3,460.1,156,464.7,158.1,468.3z"/>
<path class="st0" d="M230.7,468.3c1.4,2.4,3.9,3.8,6.6,3.8c1.3,0,2.6-0.3,3.8-1l7-4v8.1c0,4.2,3.4,7.6,7.6,7.6s7.6-3.4,7.6-7.6v-8.1
	l7,4c1.2,0.7,2.5,1,3.8,1c2.6,0,5.2-1.4,6.6-3.8c2.1-3.6,0.9-8.3-2.8-10.3l-7-4l7-4c3.6-2.1,4.9-6.7,2.8-10.3s-6.7-4.9-10.3-2.8
	l-7,4v-8.1c0-4.2-3.4-7.6-7.6-7.6s-7.6,3.4-7.6,7.6v8.1l-7-4c-3.6-2.1-8.3-0.8-10.3,2.8c-2.1,3.6-0.9,8.3,2.8,10.3l7,4l-7,4
	C229.8,460.1,228.6,464.7,230.7,468.3z"/>
<path class="st0" d="M303.2,468.3c1.4,2.4,3.9,3.8,6.6,3.8c1.3,0,2.6-0.3,3.8-1l7-4v8.1c0,4.2,3.4,7.6,7.6,7.6
	c4.2,0,7.6-3.4,7.6-7.6v-8.1l7,4c1.2,0.7,2.5,1,3.8,1c2.6,0,5.2-1.4,6.6-3.8c2.1-3.6,0.9-8.3-2.8-10.3l-7-4l7-4
	c3.6-2.1,4.9-6.7,2.8-10.3c-2.1-3.6-6.7-4.9-10.3-2.8l-7,4v-8.1c0-4.2-3.4-7.6-7.6-7.6c-4.2,0-7.6,3.4-7.6,7.6v8.1l-7-4
	c-3.6-2.1-8.3-0.8-10.3,2.8c-2.1,3.6-0.9,8.3,2.8,10.3l7,4l-7,4C302.3,460.1,301.1,464.7,303.2,468.3z"/>
<path class="st0" d="M375.7,468.3c1.4,2.4,3.9,3.8,6.6,3.8c1.3,0,2.6-0.3,3.8-1l7-4v8.1c0,4.2,3.4,7.6,7.6,7.6s7.6-3.4,7.6-7.6v-8.1
	l7,4c1.2,0.7,2.5,1,3.8,1c2.6,0,5.2-1.4,6.6-3.8c2.1-3.6,0.9-8.3-2.8-10.3l-7-4l7-4c3.6-2.1,4.9-6.7,2.8-10.3s-6.7-4.9-10.3-2.8
	l-7,4v-8.1c0-4.2-3.4-7.6-7.6-7.6s-7.6,3.4-7.6,7.6v8.1l-7-4c-3.6-2.1-8.3-0.8-10.3,2.8c-2.1,3.6-0.9,8.3,2.8,10.3l7,4l-7,4
	C374.9,460.1,373.6,464.7,375.7,468.3z"/>
</svg>
