<?xml version="1.0" encoding="utf-8"?>
<!-- Generator: Adobe Illustrator 23.0.3, SVG Export Plug-In . SVG Version: 6.00 Build 0)  -->
<svg version="1.1" id="Capa_1" xmlns="http://www.w3.org/2000/svg" xmlns:xlink="http://www.w3.org/1999/xlink" x="0px" y="0px"
	 viewBox="0 0 612 612" style="enable-background:new 0 0 612 612;" xml:space="preserve">
<style type="text/css">
	.st0{fill:#333333;}
</style>
<g>
	<path id="Fax_1_" class="st0" d="M587,125.5c-25,0-50,0-74.9,0c0-22.5,0-45,0-67.4c0-13.8-11.2-25-25-25c-120.7,0-241.5,0-362.2,0
		c-13.8,0-25,11.2-25,25c0,22.5,0,45,0,67.4c-25,0-50,0-74.9,0c-13.8,0-25,11.2-25,25c0,81.6,0,163.2,0,244.8c0,13.8,11.2,25,25,25
		c25,0,50,0,74.9,0c0,29.5,0,59,0,88.5c0,14.4,0,28.8,0,43.2c0,8.3,1.7,14.5,8.1,20.4c3,2.7,6.2,4.5,10.1,5.6
		c3.6,1,7.2,0.9,10.9,0.9c59,0,118,0,177,0s118,0,177,0c3.7,0,7.2,0.1,10.9-0.9c3.9-1.1,7.1-2.9,10.1-5.6c6.4-5.9,8.1-12.1,8.1-20.4
		c0-14.4,0-28.8,0-43.2c0-29.5,0-59,0-88.4c25,0,50,0,74.9,0c13.8,0,25-11.2,25-25c0-81.6,0-163.2,0-244.8
		C612,136.7,600.8,125.5,587,125.5z M62.4,213.6c-12.1,0-21.9-9.8-21.9-21.9s9.8-21.9,21.9-21.9s21.9,9.8,21.9,21.9
		S74.5,213.6,62.4,213.6z M487.1,553.9H124.9V356.6h362.2L487.1,553.9L487.1,553.9z M487.1,125.5c-120.7,0-241.5,0-362.2,0
		c0-14.2,0-28.3,0-42.5c0-13.8,11.2-25,25-25c104.1,0,208.2,0,312.2,0c13.8,0,25,11.2,25,25C487.1,97.2,487.1,111.4,487.1,125.5z"/>
</g>
</svg>
