<?xml version="1.0" encoding="utf-8"?>
<!-- Generator: Adobe Illustrator 23.0.3, SVG Export Plug-In . SVG Version: 6.00 Build 0)  -->
<svg version="1.1" id="Capa_1" xmlns="http://www.w3.org/2000/svg" xmlns:xlink="http://www.w3.org/1999/xlink" x="0px" y="0px"
	 viewBox="0 0 512 512" style="enable-background:new 0 0 512 512;" xml:space="preserve">
<style type="text/css">
	.st0{fill:#3E67B1;}
</style>
<g>
	<g>
		<path class="st0" d="M423.5,494.9c-1.9-1.9-4.4-2.9-7.1-2.9c-2.6,0-5.2,1.1-7.1,2.9c-1.9,1.9-2.9,4.4-2.9,7.1s1.1,5.2,2.9,7.1
			c1.9,1.9,4.4,2.9,7.1,2.9s5.2-1.1,7.1-2.9c1.9-1.9,2.9-4.4,2.9-7.1S425.4,496.8,423.5,494.9z"/>
	</g>
</g>
<g>
	<g>
		<path class="st0" d="M505,167.9c-6-8.8-15.1-14.7-25.7-16.5c-17-3-33.7,5.5-41.5,20.1V65.9c0-21.4-17.4-38.8-38.8-38.8
			c-7,0-13.6,1.9-19.2,5.1C376.7,14,360.8,0,341.6,0s-35.1,14-38.2,32.3c-5.7-3.3-12.2-5.1-19.2-5.1c-20.1,0-36.7,15.4-38.6,35
			c-5.6-3.1-12-4.9-18.9-4.9c-21.4,0-38.8,17.4-38.8,38.8c0,5.5,4.5,10,10,10s10-4.5,10-10c0-10.4,8.4-18.8,18.8-18.8
			c9.7,0,17.7,7.4,18.7,16.8v26.7c0,5.5,4.5,10,10,10c5.5,0,10-4.5,10-10V65.9c0-10.4,8.4-18.8,18.8-18.8c9.7,0,17.7,7.4,18.7,16.8
			v77.8c0,0.5,0.1,3.8,0.1,3.8c0,5.5,4.5,10,10,10s10-4.5,10-10V65.9c0-0.9,0-1.8-0.1-2.7V38.8c0-10.4,8.4-18.8,18.8-18.8
			s18.8,8.4,18.8,18.8v24.5c-0.1,0.9-0.1,1.8-0.1,2.7v140.6c0,5.5,4.5,10,10,10s10-4.5,10-10L380.4,64c1-9.4,9-16.8,18.7-16.8
			c10.4,0,18.8,8.4,18.8,18.8v147.9c0,7.3,5.3,13.3,12.5,14.1c7.3,0.9,13.8-3.6,15.5-10.7l7.8-31.8c2.4-9.9,12.2-16.3,22.2-14.5
			c5.2,0.9,9.7,3.8,12.6,8.1c3,4.3,4,9.6,3,14.7l-15.1,76.4c-5.1,25.6-17.5,49-36,67.4l-31.1,31c-1.9,1.9-2.9,4.4-2.9,7.1V465
			c0,5.5,4.5,10,10,10s10-4.5,10-10v-85l28.2-28.1c21.3-21.3,35.7-48.1,41.5-77.7l15.1-76.4C513.2,187.3,511.1,176.7,505,167.9z"/>
	</g>
</g>
<g>
	<g>
		<path class="st0" d="M296.6,309c-5.5,0-10,4.5-10,10v29.3c0,32.9-12.8,63.8-36.1,87l-18.9,18.9c-1.9,1.9-2.9,4.4-2.9,7.1V502
			c0,5.5,4.5,10,10,10s10-4.5,10-10v-36.5l16-16c27.1-27,42-62.9,42-101.2V319C306.6,313.5,302.1,309,296.6,309z"/>
	</g>
</g>
<g>
	<g>
		<path class="st0" d="M303.7,276.4c-1.9-1.9-4.4-2.9-7.1-2.9s-5.2,1.1-7.1,2.9c-1.9,1.9-2.9,4.4-2.9,7.1s1.1,5.2,2.9,7.1
			c1.9,1.9,4.4,2.9,7.1,2.9s5.2-1.1,7.1-2.9c1.9-1.9,2.9-4.4,2.9-7.1S305.5,278.3,303.7,276.4z"/>
	</g>
</g>
<g>
	<g>
		<path class="st0" d="M269.5,160.5c-6.2,0-12.1,1.6-17.3,4.3c-2.2-18.4-17.9-32.6-36.8-32.6c-6.4,0-12.4,1.6-17.7,4.5
			c-3.3-17.1-18.4-30.1-36.4-30.1s-33.2,13-36.4,30.1c-5.3-2.9-11.3-4.5-17.7-4.5c-20.5,0-37.1,16.7-37.1,37.1v97.3
			c-7.9-12.8-23.1-20.1-38.7-17.4C21.2,251,12.5,256.6,6.7,265s-7.9,18.6-5.9,28.6l14.2,72c5.5,28,19.1,53.4,39.3,73.5l26.4,26.3
			V502c0,5.5,4.5,10,10,10s10-4.5,10-10v-40.7c0-2.7-1.1-5.2-2.9-7.1L68.4,425c-17.4-17.3-29-39.2-33.8-63.2l-14.2-72
			c-0.9-4.7,0.1-9.5,2.8-13.4c2.7-4,6.8-6.6,11.5-7.4c9.2-1.6,18.1,4.2,20.3,13.2l7.3,29.9c1.7,7,8.1,11.4,15.3,10.6
			c7.1-0.9,12.3-6.7,12.3-13.9V169.3c0-9.4,7.7-17.1,17.1-17.1c8.8,0,16.1,6.7,17,15.3v73.3c0,5.5,4.5,10,10,10c0,0,0,0,0,0s0,0,0,0
			c5.5,0,10-4.5,10-10v-71.5c0-0.9,0-1.7-0.1-2.5v-23.1c0-9.4,7.7-17.1,17.1-17.1c9.4,0,17.1,7.7,17.1,17.1v23.1
			c-0.1,0.8-0.1,1.7-0.1,2.5v71.5c0,5.5,4.5,10,10,10c0,0,0,0,0,0s0,0,0,0c5.5,0,10-4.5,10-10v-73.3c0.9-8.6,8.2-15.3,17-15.3
			c9.4,0,17.1,7.7,17.1,17.1l-0.1,71.5c0,5.5,4.5,10,10,10c0,0,0,0,0,0s0,0,0,0c5.5,0,10-4.5,10-10v-44.9c0.9-8.6,8.2-15.3,17-15.3
			c9.4,0,17.1,7.7,17.1,17.1v46.7c0,5.5,4.5,10,10,10s10-4.5,10-10v-46.7C306.6,177.2,289.9,160.5,269.5,160.5z"/>
	</g>
</g>
<g>
	<g>
		<path class="st0" d="M148.9,55.7L96.1,3C92.2-1,85.9-1,82,3c-3.9,3.9-3.9,10.2,0,14.1l52.7,52.7c2,2,4.5,2.9,7.1,2.9
			s5.1-1,7.1-2.9C152.8,65.9,152.8,59.6,148.9,55.7z"/>
	</g>
</g>
<g>
	<g>
		<path class="st0" d="M113.5,82.5H89.1c-5.5,0-10,4.5-10,10s4.5,10,10,10h24.4c5.5,0,10-4.5,10-10S119,82.5,113.5,82.5z"/>
	</g>
</g>
<g>
	<g>
		<path class="st0" d="M171.1,0c-5.5,0-10,4.5-10,10v25.2c0,5.5,4.5,10,10,10c5.5,0,10-4.5,10-10V10C181.1,4.5,176.6,0,171.1,0z"/>
	</g>
</g>
</svg>
