<svg id="Layer_1" data-name="Layer 1" xmlns="http://www.w3.org/2000/svg" viewBox="0 0 2059.12 1329.5"><defs><style>.cls-1{fill:#e5e5e5;stroke:#ececec;stroke-width:0.49px;}</style></defs><title>worldwide</title><path class="cls-1" d="M1512.4,802l1-.3.21,1.71,4.48-1,4.74.16,3.45.18,3.92-4.23,4.27-4,3.62-3.89,1.09,2.15.78,5-2.93,0-.46,4.08,1,.87-2.59,1.23,0,2.54-1.67,2.56-.15,2.49-1.15,1.3-17.21-3.11-2.19-6.29Z" transform="translate(-246.58 2.14)"/><path class="cls-1" d="M1567.54,726.79l5.83,2.65,4.32-.93,1.2-3.18,4.51-1.06,3.23-2.15,1.14-5.68,4.83-1.39.9-2.55,2.7,1.92,1.72.22,3.19.05,4.32,1.51,1.75.87,4.14-2.3,1.93,1.39,1.85-3.29,3.42.15.88-1.06.6-2.91,2.47-2.53,3.1,1.65-.62,2.22,1.73.34-.54,6,2.27,2.33,2-1.49,2.54-.71,3.57-3.21,3.94.53h5.91l1,2.06-3.33.8-2.91,1.31-6.57.83-6.15,1.49-3.34,3.08,1.35,3,.65,3.48-2.85,2.92.24,2.66-1.57,2.48-5.45-.22,2.25,4.53-3.64,1.73-2.43,4.09.31,4-2.23,1.89-2.12-.63-4.38.88-.62,1.86h-4.27l-3.18,3.77-.21,5.61-7.43,2.73-4-.58-1.16,1.43-3.42-.83-5.73,1-9.59-3.34,5.19-6-.47-4.28-4.33-1.12-.45-4.26-1.88-5.4,2.45-3.73-2.49-1,1.57-5Z" transform="translate(-246.58 2.14)"/><path class="cls-1" d="M1335,681.37l-.73,2.6.82,3.26,2.37,1.83-.11,2-1.86,1.09-.35,2.43-2.66,3.6-1-.52-.12-1.63-3.17-2.5-.5-3.58.49-5.16.78-2.36-1-1.21-.38-2.44,2.48-3.81.37,1.46,1.54-.69,1.22,2.08,1.37.79Z" transform="translate(-246.58 2.14)"/><path class="cls-1" d="M1466.62,687.18l8-1.18,1.18,2,2.18,1.3-1.15,1.89,3,2.57-1.61,2.37,2.43,2,2.57,1.21.13,5.09-2.08.22-2.33-4.25,0-1.13h-2.53l-1.69-2-1.19.2-2.26-2.17-4.26-1.85.56-3.65Z" transform="translate(-246.58 2.14)"/><path class="cls-1" d="M1310.59,977.67l1.41,4.27,1.65,3.43,1.31,1.86,2.2,3,3.78-.47,1.89-.81,3.16.81.86-1.43,1.44-3.34,3.55-.23.31-1,2.92,0-.5,2.06,7,0,.1,3.61,1.16,2.22-.84,3.47.42,3.54,1.91,2.14-.31,6.88,1.42-.53,2.49.15,3.54-.87,2.61.34.6,1.8-.65,2.81,1,2.73-.85,2.18.48,2-11.92-.07-.26,18.7,3.86,4.85,3.74,3.72-10.52,2.44-13.86-.85-4-2.86-23.2.26-.87.42-3.41-2.69-3.71-.18-3.43,1-2.76,1.14-.53-3.75.79-5.21,2-5.4.3-2.52,1.86-5.28,1.36-2.4,3.29-3.82,1.84-2.59.6-4.3-.3-3.28-1.71-2.07-1.53-3.51-1.41-3.46.31-1.19,1.76-2.28-1.74-5.55-1.17-3.84-2.87-3.62.55-1.11,2.36-.77,1.66.11,2-.69Zm-22.26-1.1-1.46.6-1.53-4.29,2.31-2.47,1.73-1,2.15,2-2.09,1.2-.93,1.47Z" transform="translate(-246.58 2.14)"/><path class="cls-1" d="M842.17,1323l-5.43.5-2.92-3.53-3.45-.26h-6.13V1298.1l2.2,4.38,2.87,7.2,7.44,5.85,8,2.46Zm3.07-250,3.36,4.45,2.24-5,6.52.26.93,1.31,10.52,10.1,4.68.95,7,4.61,5.89,2.46.82,2.78-5.63,9.66,5.77,1.74,6.43,1,4.53-1,5.19-4.9.93-5.6,2.84-1.21,2.87,3.65-.12,5.09-4.82,3.53-3.84,2.61-6.46,6.29-7.64,8.92-1.43,5.3-1.53,6.87.06,6.73-1.25,1.52-.44,4.42-.39,3.59,7.27,6-.78,4.84,3.57,3.07-.29,3.47-5.5,9.22-8.49,3.91-11.48,1.52-6.29-.73,1.2,4.38-1.17,5.55,1.06,3.78-3.43,2.66-5.87,1-5.51-2.75-2.21,2,.8,7.57,3.87,2.32,3.13-2.43,1.7,4-5.27,2.4-4.59,4.87-.84,8-1.36,4.3-5.4,0-4.49,4.16-1.64,6.15,5.63,6.09,5.47,1.69-2,7.61-6.76,4.85-3.72,10.26-5.23,3.51-2.34,4.2,1.85,9.48,3.81,5.37-2.42-.47-5.3-1.46-13.84-1.24-2.37-5.37.11-6.81-3.81.58-2-3.26-.5-9.38,4.39-3.84,1.82-5.47-.67-4.31,3-7.19,2.09-10.92-.62-4.76,2.5-1.53-.61-3-2.66-1.59L808,1222l-2.58-3-1.34-9,2.3-1.57-1-9.27,1.35-7.66,1.53-6.58,3.43-2.65-1.74-7.07,0-6.57,4.33-4.62-.13-5.86,3.27-6.76v-6.3l-1.49-1.24-2.63-11.63,3.52-6.82-.54-6.36,2-5.92,3.75-6,4-4-1.72-2.5,1.2-2-.18-10.5,6.23-3.08,2-6.45-.7-1.55,4.77-5.56Z" transform="translate(-246.58 2.14)"/><path class="cls-1" d="M1314.33,630.73l-.43,3.48-3.23,0,1.11,1.83-1.9,5.41-1.09,1.4-5,.21L1300.9,645l-4.73-.64-8.19-2.15-1.28-2.9-5.65,1.45-.67,1.59-3.47-1.19-2.92-.22-2.59-1.53.87-2.06-.22-1.49,1.73-.47,2.9,2.34.81-2.22,5,.36,4.09-1.52,2.75.26,1.78,1.73.54-1.44-.81-5.55,2-1.09,2-4,4.25,2.78,3.22-3.54,2-.65,4.44,2.65,2.69-.45,2.64,1.63-.46,1.1Z" transform="translate(-246.58 2.14)"/><path class="cls-1" d="M2049.47,1198.94l5.53,2.61,3.12-1,4.46-1.45,3.44.51.4,9-2,2.66-.59,6.25-2-2.13-4,5.46-1.19-.43-3.52-.24-3.53-6.69-.78-5.1-3.3-6.64.14-3.46ZM2039,1023.23l2.06,4.6,3.67-2.21,1.9,2.48,2.75,2.3-.59,2.62,1.22,5.07.87,3,1.44.73,1.56,5.09-.56,3.1,1.86,4.08,6.2,3.14,4,2.88,3.84,2.64-.75,1.47,3.28,3.82,2.22,6.63,2.29-1.35,2.32,2.67,1.4-1,1,6.55,4.06,3.82,2.65,2.38,4.48,5.08,1.61,5.08.14,3.62-.39,4,2.73,5.46-.33,5.74-1,3-1.55,5.86.12,3.8-1.13,4.78-2.53,6.11-4.24,3.33-2.09,5.29-1.91,3.4-1.7,6-2.21,3.48-1.44,5.28-.74,4.9.29,2.26-3.28,2.5-6.41.26-5.28,3-2.63,2.82-3.46,3.14-4.74-3.23-3.51-1.29.89-3.78-3.13,1.37-5,5.27-5-2-3.25-1.15-3.27-.52-5.54-2.09-3.7-4.44-1.07-5.43-1.33-3.57-2.81-2.86-5.51-.84,1.89-3.39-1.39-5.15-2.79,4.8-5.1,1.28,3-3.85.86-4,2.22-3.36-.46-5-4.66,5.82-3.58,2.35-2.19,5.5-4.47-2.85.18-3.66-3.58-5-3-2.55,1.07-1.56-7.34-4.09-4-.19-5.5-3.26-10.25.63-7.41,2.4-6.52,2.25-5.46-.45-6.07,3.46-5,1.57-1.11,3.57-2.11,2.78-4.86.17-3.59.61-5.06-1.25-4.12.75-3.93.31-3.41,3.68-1.67-.31-2.87,2-2.75,2.21-4.18-.28h-3.83l-6.08-4.43-3.07-1.31.12-3.93,2.85-.93,1-1.56-.21-2.44.7-4.7-.64-4-3-6.73-.94-3.77.25-3.73-2.28-4.25-.15-1.9-2.53-2.58-.72-5-3.27-5.06-.79-2.71,2.51,2.75-1.93-5.88,2.84,1.83,1.69,2.46-.09-3.25-2.84-5-.54-2-1.33-1.87.62-3.6,1.17-1.54.78-3.1-.61-3.61,2.37-4.42.43,4.68,2.42-4.23,4.65-2,2.79-2.61,4.37-2.23,2.61-.48,1.57.75,4.51-2.26,3.47-.67.87-1.33,1.52-.56,3.16.15,6-1.77,3.11-2.68,1.46-3.22,3.36-3,.26-2.39.15-3.24,4-5.06,2.41,5.14,2.44-1.19-2-2.81,1.8-2.87,2.52,1.28.7-4.5,3.13-2.9,1.38-2.33,2.87-1,.09-1.64,2.52.68.1-1.47,2.52-.84,2.76-.79,4.23,2.69,3.18,3.48,3.58,0,3.64.55-1.21-3.23,2.74-4.7,2.58-1.53-.89-1.46,2.49-3.33,3.46-2.05,2.93.69,4.81-1.1-.1-3-4.2-1.91,3-.84,3.79,1.44,3,2.38,4.82,1.49,1.64-.59,3.55,1.78,3.34-1.66,2.15.51,1.34-1.12,2.63,2.88-1.52,3.12-2.18,2.36-2,.19.67,2.34-1.68,2.93-2,2.89.41,1.66,4.55,3.26,4.41,1.89,3,2,4.14,3.52h1.61l3,1.53.87,1.84,5.46,2,3.79-2,1.12-3.2,1.16-2.63.71-3.24,1.74-4.7-.8-2.85.42-1.7-.67-3.36.75-4.4,1.1-1.19-.89-1.94,1.38-3.09,1.09-3.19.14-1.65,2.13-2.17,1.62,2.83.39,3.64,1.43.7.24,2.45,2.08,3,.43,3.31Z" transform="translate(-246.58 2.14)"/><path class="cls-1" d="M1474.75,697.31l1.69,2H1479l0,1.14,2.34,4.24-3.93-1-2.89-3.39-.91-2.79Zm13.57-11.1,2.54.52,1-1.93,3.42-3.07,3,4,2.91,5.35,2.67.36,1.76,2-4.72.6-1,5.77-1,2.58-2.1,1.71.16,3.61-1.43.36-3.57-3.81,2-3.63-1.7-2.17-2.14.54-6.75,5.43-.13-5.1-2.57-1.21-2.43-2,1.61-2.37-3-2.57,1.15-1.88-2.18-1.31-1.18-2,1.4-1.24,4.27,2.18,3.08.45.78-.89-2.82-4.12,1.49-1,1.61.26Z" transform="translate(-246.58 2.14)"/><path class="cls-1" d="M1325.93,657.79l2.07,0-1.43,3.52,2.76,3.07-.83,3.71-1.35.35-1.07.72-1.86,1.82-.84,4.29-5.07-3-2.16-3.27-2.18-1.74-2.63-2.95-1.24-2.47-2.81-3.75,1.2-3.35,2.06,1.86,1.24-1.68,2.67-.18,4.92,1.35,4-.12Z" transform="translate(-246.58 2.14)"/><path class="cls-1" d="M1747.64,815.61l-.12,4.39-2-.92.37,4.9-1.64-3.17-.33-3.12-1.09-3-2.39-3.59-5.27-.24.52,2.54-1.8,3.42-2.43-1.25-.83,1.12-1.62-.67-2.22-.55-.89-5.07-2-4.66,1-3.76-3.52-1.67,1.27-2.28,3.57-2.34-4.13-3.34,2-4.3,4.54,2.74,2.73.31.51,4.39,5.44.86,5.31-.09,3.3,1.07-2.63,5.3-2.57.36-1.76,3.54,3.13,3.21.94-4,1.58,0Z" transform="translate(-246.58 2.14)"/><path class="cls-1" d="M1236.11,602.25l4.19.72,5.3-1.9,3.63,4,3.14,2.11-.64,6.06-1.5.34-.62,5-5-4-2.93.69-4-4.2-2.66-3.61-2.66-.15-.83-3.18Z" transform="translate(-246.58 2.14)"/><path class="cls-1" d="M1385.09,969.81l-.36-6.88-1.44-2.59,3.47.45,1.76-3.24,3,.37.33,2.24,1.23,1.29.05,1.86-1.41,1.19-2.23,3-2.07,2.07Z" transform="translate(-246.58 2.14)"/><path class="cls-1" d="M1232.54,908.53l-4.73.67-1.41-4,.26-13.19-1.15-1.19-.22-2.83-2-2-1.75-1.71.73-3,2-.66,1.17-2.54,2.79-.54,1.26-1.74,1.92-1.7h2l4.36,3.34-.22,1.93,1.29,3.44-1.13,2.33.6,1.55-2.77,3.57L1233.8,892l-1.08,3.63.15,3.66Z" transform="translate(-246.58 2.14)"/><path class="cls-1" d="M1870.9,918.43l2.26-2.14,4.88-3.12-.26,2.81-.34,3.64-2.73-.18-1.21,1.94Z" transform="translate(-246.58 2.14)"/><path class="cls-1" d="M857.36,1072.74l-6.52-.26-2.24,5-3.36-4.45-7.49-1.5-4.77,5.56-4.13.85-2.25-8.47-3.07-6.84,1.8-5.85-3-2.56-.77-4.33-2.8-4.07,3.61-6.42-2.46-5,1.31-2-1-2.18,2.24-2.94.11-5,.29-4.11,1.22-2-4.94-9.35,4.25.49,2.95-.13,1.28-1.75,5-2.35,3-2.17,7.49-1-.61,4.33.7,2.22-.46,3.89,6.22,5.21,6.41,1,2.25,2.18,3.87,1.16,2.37,1.69,3.6,0,3.33,1.73.25,3.39,1.12,1.72.07,2.53-1.67.1,2.2,6.88,11,.25-.84,3.43.61,2.35,3.13,1.67,1.35,3.72-1,4.72-1.57,2.64.56,3.45-1.79,1.25-.1-1.87-5.34-3.09-5.31-.08-10,1.76-2.74,5.33-.15,3.27-2.25,7.33Z" transform="translate(-246.58 2.14)"/><path class="cls-1" d="M887.25,1124.69l7.64-8.93,6.46-6.28,3.85-2.62,4.82-3.53.11-5.08-2.87-3.65-2.83,1.21,1.12-3.64.78-3.71V1085l-2.06-1.13-2.15,1-2.13-.28-.67-2.39-.53-5.67-1.08-1.84-3.86-1.67-2.34,1.21-6-1.18.38-8.3-1.69-3.38,1.79-1.25-.56-3.45,1.57-2.64,1-4.72-1.35-3.72L883.5,1044l-.61-2.35.84-3.43-11-.25-2.2-6.88,1.67-.1-.07-2.53-1.12-1.72-.25-3.39-3.33-1.73-3.6,0-2.37-1.69-3.87-1.16-2.25-2.18-6.41-1-6.22-5.21.46-3.89-.7-2.22.61-4.33-7.49,1-3,2.17-5,2.35-1.28,1.75-2.95.13-4.25-.49-3.23,1-2.61-.66.38-8.78-4.69,3.4-5.05-.15-2.17-3.08-3.8-.33,1.21-2.48-3.18-3.5-2.38-5.17,1.51-1.05v-2.42l3.46-1.65-.57-3.1,1.46-2,.42-2.66,6.54-3.89,4.7-1.09.76-.86,5.16.27L819.6,953l.13-2.46-.9-3.26-2.54-2.07,0-4.14,3.23-.93,1.14.59.2-2.18-3.36-.59-.07-3.56,11.15.13,1.9-2,1.59,1.8,1.11,3.35,1.09-.7,3.15,3,4.45-.37L843,938l4.25-1.32,2.36-.94.66-2.41,4.09-1.62-.31-1.19-4.85-.49-.79-3.59.23-3.81-2.56-1.48,1.07-.53,4.24.73,4.55,1.43,1.65-1.35,4.12-.89,6.4-2.13,2.1-2.18-.76-1.61,3-.25,1.33,1.31-.75,2.51,2,.86,1.31,2.65-1.58,2-.92,4.85,1.47,2.88.41,2.63,3.53,2.67L882,937l.63-1.11,1.81-.25,2.59-1,1.86-1.51,3.16.48,1.4-.2,3.11.47.52-1.17-1-1.13.57-1.65,2.31.51,2.7-.58L905,931l2.5,1.18,1.77-1.55,1.28.24.79,1.6,2.74-.4,2.19-2.16,1.76-4.2,3.38-5.21,2-.27,1.42,3.15,3.21,10,3.06.94.16,3.92-4.31,4.68,1.78,1.72,10.12.89.21,5.7,4.35-3.73,7.2,2,9.51,3.48,2.79,3.33-.94,3.15,6.66-1.75,11.14,3,8.55-.22,8.46,4.71,7.31,6.39,4.41,1.64,4.9.23,2.07,1.81,2,7.28,1,3.46-2.28,9.5-2.91,3.77-8.07,8-3.65,6.56-4.24,5.06-1.43.11-1.6,4.31.41,11-1.6,9.14-.61,3.93-1.81,2.37-1,8-5.8,7.91-1,6.32-4.63,2.66-1.34,3.7h-6.22l-9,2.37-4,2.77-6.41,1.82-6.74,5-4.84,6.25-.84,4.74,1,3.52-1.07,6.5-1.3,3.16-4,3.58-6.36,11.59-5,5.29-3.89,3.15-2.61,6.44-3.79,3.9-1.58-3.87,2.52-3.22-3.31-4.59-4.49-3.7-5.89-4.27-2.13.2L891,1124Z" transform="translate(-246.58 2.14)"/><path class="cls-1" d="M773.28,805l-1.4.31-1.46-3.59-2.14-1.81,1.24-4,1.73.26,2,5.2Zm-1.63-17.74-6.24,1-.4-2.36,2.69-.51,3.78.19Zm4.69-.07-1,4.51-1.05-.81.09-3.31-2.56-2.52v-.74Z" transform="translate(-246.58 2.14)"/><path class="cls-1" d="M1742.05,779.62l2.33,2-.4,3.93-4.67.19-4.83-.43-3.6,1-5.2-2.42-.13-1.29,3.79-4.78,3.09-1.64,4.09,1.5,3,.16Z" transform="translate(-246.58 2.14)"/><path class="cls-1" d="M1364,1051.5l1.15,1.08,1.8,3.48,6.48,6.65,2.45.65,0,2.14,1.68,3.87,4.43.94,3.65,2.77-8.1,4.54-5.14,4.62-1.91,4.15-1.72,2.35-3.12.5-1,3-.58,2-3.66,1.47-4.66-.31-2.74-1.77-2.41-.76-2.79,1.46-1.4,3-2.71,1.9-2.86,2.84-4.11.65-1.27-2.23.52-3.87-3.39-6-1.54-.94V1071.6l5.65-.22.16-21.58,4.27-.19,8.82-2.1,2.19,2.47,3.66-2.35h1.73l3.23-1.35,1,.45Z" transform="translate(-246.58 2.14)"/><path class="cls-1" d="M1351.57,578.1l5.53.07,6.22-3.67,1.32-5.57,4.7-3.18-.54-4.51,3.48-1.71,6.15-3.93,6,2.56.81,2.52,3-1.21,5.6,2.42.56,4.71-1.22,2.68,3.58,6.44,2.33,1.78-.34,1.75,3.86,1.69,1.65,2.56-2.23,2.09-4.62-.33-1.1.89,1.34,3.14,1.41,6-4.91.55-1.77,2-.36,4.63-2.28-.89-5.17.44-1.5-2.14-2.14,1.6-2.16-1.33-4.51-.18-6.39-2.22-5.78-.72-4.43.21-3.14,2.5-2.74.35-.11-4.11-1.76-4.32,3.43-1.92,0-3.77-1.58-3.63Z" transform="translate(-246.58 2.14)"/><path class="cls-1" d="M706.83,841.24l-.05-.88.69-.28,1,.71,2.06-3.62,1.08-.07,0,.88,1.09,0-.1,1.63-.92,2.59.5.92-.6,2.13.36.57-.66,3-1.13,1.57-1,.19-1.14,2h-1.7l.44-6.7Z" transform="translate(-246.58 2.14)"/><path class="cls-1" d="M653,194.59l-.45-12.05,7.41,1.18,3.33,1.95,6.85,10.06-1.56,10.14-8.46,5.66-4.67-6.38Zm27,25.81.68-3-4-5-11.52-.4,1.52,7.51,10.73,1.69Zm74.21,95.87,6.3,10.42,1.66,1.17,6.26-2.6,6.17.41,6.09.56-.51-5.4-9.87-11-13.1-2.2L754.39,309Zm-133.57-128-5.53,8.55,12.74,1.05,9.42,9.06,9.35,3.06-2.23-11.6L640,184.65l-15.48-10.93-11.23-4.17.41,11.61Zm52.87-20.9,10.47-.24-4.53,8.17-.09,10.81,6.16,11.76,11.86,3.6,10.13-2L718,177.54l7.86-9.08L719,158.31l-4.52-21.74-9.39-6.51-9.63-7.52L688.13,103l-13.32,1.92,2.51,8.47L671.45,116l-4,10.87-4,15.22,3.63,14.83Zm-130.16,109,8,4,25.86-2.65-11.89,9.74.73,7,8.7-.48,14.44-9.35,19.39-3.42L612,270.52l-1-11.37-6-1-5.1,3.94-2.24-8.44L595.74,242l-5.91-2.89-5.25,9,8.19,22.56-10-1.74L572.6,255.06l-16.11-8.16-5.39,6.78Zm46.07-85.88-7.45-5.92-3.07-1.34L573,191.94l-.09,4.08,9.51,0Zm-3,25.23,1.9-8.14-8.07-4.33L571.83,206l-4.63,8.7,8.49,8.59Zm59.41,67.86,9.44-2.25,2.61-16.85-.18-12.14L653.26,241l-.44,3.26-8.05-1.43-8.62,8.34-6.16-.75.36,18.22,9.39-1.77-.12,13.2Zm-6.71,93.11-10.33-8L619.12,360l-1.78-12.62-3.59-18.22-6.41-7.84-5.69-3.15-5,2.89,4.07,19.57-2.88,7.62L593.12,330l-5.23-6.34-6.47,9.82-8-9.71-12.74,5.85,2.86-9.11-5.85-3.83L542.4,328.56l-4,7.58L533.61,350l10,4.73,8.83-.25-13.27,7.07,3,6.39,8.11.34,12.24-1.36,11.07,4-7.48,2.95-8.07-.76-8.83,2.87-3.81,1.79,7.05,13,5.08-1.8,7.82,4.38,3.1,7.45,10.19-1.48,14.5-2.36,10.75-5.4,6.65-1,9.85,4.32,10.36,2.49,1.93-5.84L629,385.25l9.4-1.31Zm15.82-2-4,7.22-5,5.08,7.82,7.23,4.67-1.75,7.71,4.82,3.56-5.58-3.49-6.19-1.72-3.11-3.43-3Zm-36-60.12-4.36-4.44-7.67.81L605,313.73l8.93,13.79Zm58.56,26.9,6.15-14.15,6.82-3.77L699,305.66l-10.93-5-11.93-.73-5.68,5.65-3,8.64-.09,9.84L671,340.74Zm35-47,11.75-.38,16.42-3.29,7.33,2.6,8.54-4.62,3.57-5.79-1.28-9.23-6.13-8.63-9.3-1.64-11.66,2-9.1,5-8.35-1.91-7.72-1L702.94,262l-6.57-5.34,1.31-9.05-4.94-8.13-11.27.06-6.36-8.15-11.8-1.63-2.15,10.41,6.63,7.64,11.84,3,5.75,10.4.7,11.44,2,12.23,15.21,7Zm-181.75-37.3,10.64-10.32,5.35-1.2,4.41-8.63.79-19.94L544.1,221l-8.78-.36-11.76,16.72-9.72,18.32,7.76,5.13Zm147.37,33,3.11-8.45-2.09-7.06-5-8-8.23,6.16-3,10.05,6.94,5.69Zm-17,23.35-1.48-5.88-10.22,2.58-6.82-4.3-6.78,9.8,6.31,12.83-11.69-2.4-.11,6.15,14.22,14.39,4,6.9,5.52,1.49,9.38-7,1-16.76L655.82,323ZM510.09,627.41l-2.36-4.78L502,619l-2.83-4.2-1.95-3.07-5.38-1-3.52-1.36-6-2-.5,2.08,2.21,4.86,5.89,1.6,1,2.51,5.12,3.07,1.72,3.08,9.4,3.92ZM758.58,468.92l-4.09-4.31-4.21,1-.51-6.25-6.56-4.16-6.27-4.62L733.61,447l-2.93,2.11-1.06-6.05-4.14-1.14-2,12.53-.73,10.43-5,6.4,7.76-1.24,2,7.46,8.14-6.59,5.68-6.9,3.22,5.85,8.9,3.08ZM512.49,361.64l15.06-8.53V345.2l7.1-13.08,14-13.66,7.19-5-6.14-8.58-5.56-6-14.62-1.16-8.18-4.41L502,296.57l5.6,12.71-5,13.13-4,14-2.45,7.88,13.21,9.58Zm274.06,55.75.65-2.06-.07-6.49-4.46-4.25-5.25,2.14-2.43,8.5,1.43,7.27,6.41-.74Zm48.63,15.4,9,13.48,7.05,5.83,10-16.07L863.06,426l-9-1-8.23-13.67L836.74,408l-13.49-10.14,10.51-7.42L828.35,375l-5-6.85-13.82-6.84-6-11.33L793,354.05l-.74-7.88-7.89-8.83-12.7-9.62-5.41,7.58-11.33,5.44.85-12.38-9.82-20.53-14.51,8.3-5.29,15.72-4.51-12.09,4.22-13L711,312.16l-5.88,8.15-4.4,17.2L702.56,356l8.13.08-6,8,4.76,6.05,9.28,2.56,12.11,4.94,20.84,3.71,10.37-2.13,3.07-4.94,4.51,5.69,5.05.94L780.76,391l-3.67,4,11.6,5.36,8.77,7.51,2.2,5.21,1.58,6.61-7.41,14.14-2,7,1.92,4.95L782,447.63l-10.76.24-3.77,9.94,4.85,4.55,16.55-2.11-.09-3.85,8.33,6.42,8.54,6.69-2,3.62,6.94,6.17,12.29,7.22,15.52,4.88-.93-4.27-6-7.49-8.09-11,14.36,10.2,7.21,3.39,2-9.06-3.73-12.86-2.36-3.53-7.77-6.2-6-8,.72-8.05ZM700.78,102.93l4.77,14.89,10.12,12,20-2.22,12.89,4L739.66,144l-4.52-3.63-15.65-1.45,2.43,17L730,168.2l-1.62,10.61-10.15,7.07-4.64,11.17,9.29,5.4,7.8,17.46-15.3-11.64-3.5,1.92,2.82,19.14-10.58,5.79.72,11.94,10.82,1.28,8.52,2.94L741,247.51l15,6.67,15.29-14.68-.12-6.16-9.78,1-.8-5.8,8-7.82,2.72-10.51,8.84-7.82,5.44-9.72-4.73-14.51,4-5.4-7.89-3.86,17.34-3.32,3.64-6.43,11.81-5.31,9.79-27.51,9.33-10.09,13.51-22.71-12.46.2L835,84.92l13.85-8.15,14-18.18.25-11.7L852.59,34.56l-12.29-6L825,24.86l-12.4-3-12.39-3.07-16.53,8.12-3-5.16-17.5,2L752.87,29l-7.55,7.46-4.36,24-6.18-12.21-7.1-2.33-8.41,16.27L708,68.94l-6.68,1.36-8.51,7.83,1.25,13.57ZM852.68,644l-2-4.05-2.17,2.58,1.43,2.78,7.27,3.49,2.12-.53,2.81-3.38-5.31.23ZM736.31,485l1.25,3.33,4,.28,6.7-6.81.12-2.43-7.86-.12ZM863.15,620.65,857.3,617l-7.53-2.22-2,.75,5.32,4.16,7.42,2.74,2.79-.15ZM914,630.44l-.73-4.56-4,1.48L911,621l-5.71-2.7-2.64,2.14L897.58,618l2-3.08-3.85-1.9-3.73,3,3.78-7.81,3.06-5.72L900,600l-2.66-.41-5,3.16L888.78,608l-5.91,14.12-4.81,5.22,2.49,2.34-3.56,3,.87,2.52,11.12.25,6.15-.5,5.49,2.05-4,3.94,3.41.29,6.64-7.3,1.6,1.08L907,641.85l3.76,1.57,2.59-.31,2.41-7.38Zm-43.28,9.73L865,649.48l-9.46,1.18-7.43-4.1-1.87-6.27-1.81-9.11,5.4-5.77-5.07-4.27-8.56.87-12,7.21L815,640.35l-4.86,1.37,6.59-7.76,8.26-11.38,7.3-3.88,4.79-6.36,5.93-.61,8.59.06,12.24,1.88,9.68-1.45,7.2-7.4,9.44-3.24,4.11-3.22,4.15-3.49L898,584.28l-2.3-3.62-4.46-1.28-2.26-8.26L885.25,568l-9.13-2.58L871,559.61l-7.62-5.77,2.3-6.52-6.33-12.78-7.45-14.08-4.46-10.17-3.79,5.33L838.16,528l-8.29,6.07-4.15-6.44-5.23-1.73-1.9-14.27.17-9.8-10.21-.89-1.74-4.63-7-7-5.33-4.17-4.74,3.24-5.89-1.2L774,483.79l-4,2.85,1.91,18.74,2.49,10.44-6.75,11.75,7,8.21,3.89,9.06.47,7L775.79,559l-6.48,7.07-9.17,4.66,4,5.16,3,15.11-3.1,9.55-4.41,3-8.51-8.75L747,584.21l-1.78-9.72.93-8.56-6.22-1-9.46-.57-6.06-4.25-7.17-2.81-4.1-4.86-5.72-4L696.78,544l-8,2.09L686.09,538l-2.57-10.19L675.1,526l.32-13.09,2.22-9.15,6.21-13.48,7-10,6.66-1.57.38-8.26,4.52-5.48,8.2-.86,6.64-9,1.67-5.92,5.52-11.68,1.7-7.15,5.92,4.3,8-2.19,11.21-10.14.73-7.23-4-8.12,4.26-8.28-.34-7.9-7.69-8.07-8.46-2.43L727.55,379l-.31,17.79-4.17,13.38-6,10.83-5.54-10.09,1.71-11.45-6.85-10.24-7.65,12.43,0-16.32L688.14,382l5.08-8.19-7.77-19.57-5.79-8-7.55-2.95-6.77,13.13-.46,19.07,6.68,6.72,6.13,10L675.1,408l-4.6-.42-3.65,12,0-14.3L658,400.05l-5.09,2.73.66,9.54-8.35-.37-8.89,2.4-10.11-6.85-6.4,1.22-5.75-8.39-4.62-3.76-4.58,1.58-7,.72-3.69,5.34,5.84,6.51-6.23,7.6-6.1-9L582.86,412l-15.45,1.78-10.35-3.24,8.06-7.63-7.72-8-5.61,1-7.88-2.7-13.4-5.9-8.75-6.89-6.94-.95-2.16,4.81-7,2.67-.77-12.55-7.63,11.24-9.68-14.95-3.95-1.82-1.28,8-4.27,3.89-3.93-6.93L464.75,378l-8.58,7.25-8.5-2-6.94,5.1-5,6.69-6-1.47-9-7.76-10.68-4,0,56.45,0,72.33,5.64.35,5.57,3.17,4,5,5.09,7.34,5.57-6.24,5.74-3.66,3,5.83,3.86,4.55,5.24,4.95,3.58,7.75,5.85,12,9.74,6.55.15,6.37-3.18,4.81.12,5.07,6.93,7,1,7.67,7.33,4-.82,5.7,3.19,8.08L498,610.66l4.09,3.86,11.08,8.63.77,0H672.39v-3.36l1.94,0,1,4.79,1.78,1.46,4,.54,5.84,1.37,5.55,2.66,4.64-1.12,7,2.23,2.33-3.39,3.24-1.35,1.28-2.11,1.29-1.13,5.32,1.75,3.94.21,1.37,1.15,1.92,4.86,6.42,1.28-1,2.42,2.27,2.47-1,3.19,2.4,1-1.2,2.81,1.54.25,1.08-1.22,1.12,1.84,4.29,1,4.35.08,4.65.85,5.12,1.59,1.86,2.56,3.71,6.2-1.84,2.65-4.65-1.1-2.89-5,.72,5.07-2.73,4.43.3,3.75-.47,2.2-3.71,2.58-2.69,4.27-1.26,2.7,3.15.48,4.24-2.45,2.51-2.16,1.7-.35,3.14.78,1.53-1.21,2.79-1,5-1h0l-.51-2.35-.27.09-1.75.41-2.28-.74,1.71-2.69,1.74-.94,4-1.15,4.83-1.08,2.54,1.5,1.6-1.74,1.82-1.1,1.21.59.07.12,5.86-5.57,2.58-1.49,8.7,0H807.8l.57-2,1.83-.41,2.43-1.26,2-3.72,1.75-6.42,4.37-6.33,1.9,2.21,3.84-1.42,2.54,2.42V651l3.74,4.59,6.36-1,9.16-.27L838.39,661l.21,6.72,4.35.58,6.4-5.7,5.67-3.24,12.68-4.8,7.09-5.34-3.7-3ZM761.13,495l2.24-6.38-1.46-2.52-2.34-.27-2.21,3.69-.27.84L758.6,494ZM469.87,569.37h0l3.18-4.8Z" transform="translate(-246.58 2.14)"/><path class="cls-1" d="M1291.52,971.41l-2.14-2-1.73,1-2.31,2.47-4.7-6,4.36-3.15-2.16-3.76,2-1.44,3.86-.69.46-2.53,3.06,2.74,5,.24,1.76-2.69.72-3.79-.62-4.44-2.71-3.36,2.48-6.58-1.43-1.13-4.26.46-1.6-2.94.42-2.48,7.22.22,4.63,1.5,4.55,1.35.41-3.08,3-5.29,3.41-3,3.87.95,3.69.32-.34,3.44-1.72,3-1.12,3.55-.71,5,.3,3.22-.93,2-.15,2.09-.65,1.81-3.77,2.74-2.63,2.93-2.48,5.53.19,4.69-1.45,1.82-3.33,2.78-3.37,3.58-2.14-1-.37-1.62-3.11-.05-2,2.18Z" transform="translate(-246.58 2.14)"/><path class="cls-1" d="M1272.05,635.82l.22,1.49-.87,2.06,2.59,1.53,2.92.22-.45,3.41-2.53,1.4-4.23-1-1.24,3.33-2.73.26-1-1.3-3.21,2.78-2.76.39-2.46-1.76-2-3.61-2.73,1.29.08-3.75,4.19-4.7-.19-2.14,2.61.77,1.57-1.44,4.87.06,1.18-1.84Z" transform="translate(-246.58 2.14)"/><path class="cls-1" d="M1200.78,915.76l-2.6,0-4-1.11-3.67.06-6.78,1-4,1.65-5.67,2.09-1.11-.15.44-4.7.55-.72-.18-2.25-2.42-2.39-1.82-.38-1.67-1.57,1.25-2.55-.57-2.77.26-1.66h.91l.33-2.51-.44-1.11.55-.79,2.13-.7-1.42-4.6-1.32-2.39.46-2,1.14-.45.75-.52,1.58.87,4.43,0,1-1.69,1,.12,1.65-.65.89,2.47,1.33-.73,2.36-.86,2.58,1.26,1,1.91,2.57,1.22,2-1.45,2.69-.22,3.92,1.49,1.51,8.19-2.41,4.82-1.49,6.47,2.48,4.92Z" transform="translate(-246.58 2.14)"/><path class="cls-1" d="M824.23,1298.1v21.57h6.13l3.44.27-1.89,4-4.91,3.13-2.81-.32-3.39-.82-4.16-3-6-1.45-7.2-5.53-5.85-5.25L789.72,1300l4.72,2,8,6.39,7.59,3.48,2.95-4.44,1.86-6.53,5.27-3.9Zm2.37-228.67,2.25,8.47,4.13-.85.69,1.55-2,6.45-6.24,3.08.18,10.5-1.19,2,1.71,2.51-4,4-3.75,6-2,5.91.54,6.36-3.53,6.82,2.64,11.63,1.48,1.24v6.3l-3.27,6.77.14,5.85-4.34,4.62,0,6.57,1.74,7.07-3.43,2.65-1.53,6.58-1.34,7.66,1,9.28-2.3,1.56,1.34,9,2.59,3-1.89,3.33,2.66,1.6.61,3-2.5,1.53.61,4.76-2.09,10.92-3,7.19.66,4.31-1.81,5.47-4.39,3.84.5,9.39,2,3.26,3.82-.58-.11,6.8,2.37,5.37,13.83,1.24,5.31,1.46-5.1-.07-2.75,2.31-5.17,3.4-.92,8.94-2.42.23-6.46-3.14-6.56-6.63h0l-7.12-5.38-1.79-5.87,1.62-5.35-2.88-6-.73-15,2.43-8.24,6-6.5-8.69-2.43,5.45-7.29,2-13.39,6.36,2.81,3-16.27-3.84-2-1.79,9.7-3.61-1.11,1.8-11.06,2-14,2.63-5.06-1.65-7.13-.47-8.12,2.41-.23,3.52-11.43,4-11.09,2.43-10.14-1.32-10,1.71-5.45-.69-8.08,3.35-7.89,1-12.33,1.84-13,1.79-13.77-.42-10-1.19-8.48,2.94-1.53,1.53-3.06,2.81,4.06.77,4.33,3,2.56-1.8,5.85Z" transform="translate(-246.58 2.14)"/><path class="cls-1" d="M1292,931.3l-.72-.31-3.39.73-3.48-.76-2.71.37-9.32-.13.83-4.49-2.23-3.77-2.62-1-1.16-2.55-1.46-.82.06-1.57,1.47-4,2.73-5.52,1.65-.05,3.41-3.35,2.17-.1,3.22,2.36,3.93-1.93.54-2.39,1.28-2.31.89-2.91,3.06-2.36,1.16-4,1.21-1.28.81-3,1.51-3.69,4.82-4.49L1300,876l.62-1-2.27-2.32.19-1.85,1.61-.34,2.28,3.73.38,3.86-.21,3.85,3.12,5.26-3.2-.06-1.61.41-2.61-.58-1.25,2.73,3.38,3.36,2.5,1,.8,2.38,1.81,4-.9,1.55-2.88,5.8-1.37,1-.45,4.43.57,2.41-.46,1.7,2.71,3,.49,2,2.11,3,2.62,1.83.25,2.6.61,1.64-.41,3.08-4.55-1.35-4.63-1.5Z" transform="translate(-246.58 2.14)"/><path class="cls-1" d="M1848.77,836l-4.94,2.89-4.7-1.86-.16-5.18,2.82-2.73,6.25-1.7,3.29.14,1.28,2.31-2.51,2.66Zm99.14-219.52,10,2.82,6.78,6.2,2.31,8.05h8.7l5-3.36,9.46-2.53-3,7.68-2.22,3.08-2,9.11-3.85,7.94-6.94-1.43-4.92,2.85,1.51,6.86-.82,9.29-2.93.21,0,3.94-3.7-4.58L1959,677l-8.84,3.32.89,4-5-.28-2.72-2.39-3.93,5.4-6.31,4-4.66,4.79-8,2.16-4.22,3.45-6.16,2,3-3.41-1.2-2.88,4.53-5-3-3.94-5,2.66-6.46,5.2-3.53,4.77-5.61.36-2.93,3.42,3,4.92,4.69,1.18.19,3.24,4.53,2.09,6.42-5.13,5.08,2.8,3.7.19.93,3.75-8.11,2-2.67,3.82-5.57,3.53-2.94,4.89,6.17,3.8,2.25,6.75,3.48,6.22,3.89,5.17-.1,5-3.59,1.81,1.37,3.52,3.37,2-.88,5.33-1.46,5.14-3.2.58-4.18,7-4.63,8.34-5.32,7.5-7.87,5.76-8,5.21-6.45.71-3.5,2.73-2-2-3.24,3-8,3.07-6.06.94-1.95,6.44-3.17.35-1.51-4.41,1.36-2.37-7.68-1.95-2.71,1-5.76-1.59-2.72-2.49.9-3.55-5.23-1.13-2.76-2.32-4.88,3.3-5.57.71-4.56,0L1802,813l-3,.9.86,7-3.05-.17-.51-1.43-.18-2.53-4.2,1.78-2.48-1.13-4.25-2.3,1.67-5.12-3.63-1.2-1.36-5.71-6,1,.68-7.42,5.42-5.27.24-5.24-.17-4.89-2.5-1.54-1.92-3.79-3.35.48-6.17-1,1.93-2.72-2.68-4.06-4.08,2.75-4.8-1.6-6.6,4.14-5.21,4.81-4.62.8-2.51-1.73-3-.16-4.09-1.49-3.09,1.64-3.79,4.78-.48-5.07-3.49,1.36-6.68-.63-6.47-1.48-4.65-2.84-4.44-1.28-1.93-3.13-3.21-.94-5.78-4.28-4.59-2-2.37,1.57-8-4.62-5.62-4.22-1.61-7.41,4.11.91.19-3.46-2.28-3.48.58-5.6-6.15-8.15L1653.3,725l-1.69-5.43-4.23-3.32-1-2.06-.86-4.11.2-2.81-3.47-1.66-1.88.73-1.46-6.79,1.63-1.69-.79-1.73,5.47-3.53,4-1.46,6.06,1,2.17-4.81,7.34-.89,2-3,9-4.15.8-1.74-.46-4.42,3.93-2-5.15-13.79,11.34-3.23,2.93-1.81,4.13-14.83,11.36,2.77,3.18-3.8.28-8.55,4.75-.8,4.36-5.78,2.24-.72,1.5,6.06,4.81,4.55,8.17,3.2,4,6.78-2.2,9.65,2.06,3.53,6.8,1.38,7.71,1.13,6.91,5,3.54.88,2.61,7.29,3.36,4.63,6.31-.18,11.81,1.74,7.62-1.08,5.65,1.15,8.47,4.68h6.93l2.53,2.37,6.67-4.11,9.24-2.68,8.58-.29,6.69-2.73,4.11-4.19,4-2.65-.93-2.61-1.83-3.06,3-5.18,3.22.73,5.88,1.63,5.71-4.29,8.72-3.16,4.2-5.43,4-2.36,8.31-1.1,4.52.93.63-3-5.19-5.9-4.59-2.72-4.4,3.14L1883,633l-3.24,1.08-1.48-3.49,4-8.63,2.78-6.63,6.87,3.33,8.07-5.59,0-3.94,5.17-9.64,3.18-3-.07-5.15-3.14-2.24,4.73-4.72,7.11-1.73,7.59-.26,8.57,2.85,5,3.49,3.53,9.42,2.15,3.95,2,5.58Z" transform="translate(-246.58 2.14)"/><path class="cls-1" d="M785.65,945.06l-2.45-1.35-2.81-1.88-1.62.9-4.86-.79-1.4-2.44-1.06.09-5.73-3.25-.78-1.77,2.14-.42-.25-2.85,1.34-2.07,2.84-.38,2.41-3.57,2.19-3-2.11-1.36,1.08-3.31-1.29-5.22,1.23-1.5-.91-4.84-2.31-3,.73-2.79,1.84.41,1.08-1.71-1.33-3.38.7-.84,3,.18,4.29-4,2.36-.61.05-1.91,1.06-4.88,3.28-2.69,3.61-.11.46-1.21,4.48.48,4.5-2.93,2.23-1.3,2.77-2.8,2,.36,1.5,1.53-1.11,2-3.68,1-1.45,2.9-2.22,1.66-1.66,2.15-.7,4.12-1.59,3.38,3,.38.73,2.65,1.27,1.26.45,2.32-.68,2.12.2,1.2,1.41.48,1.36,2,7.36-.55,3.33.72,4,4.93,2.31-.61,4.13.3,3.26-.65,2,1-1,3.07-1.28,1.92-.45,4.09,1.16,3.79,1.62,1.7.2,1.27-2.9,2.84L831,929.4l1.52,2,1.75,5.67-1.09.7-1.11-3.35-1.59-1.8-1.9,2-11.15-.13.07,3.56,3.36.59-.2,2.18-1.14-.59-3.23.93,0,4.14,2.54,2.07.9,3.26L819.6,953,817,968.66l-2.86-3-1.71-.14,3.69-5.8L811.76,957l-3.44.49-2.07-1L803.1,958l-4.26-.72-3.38-6-2.65-1.47L791,947.21l-3.81-2.69Z" transform="translate(-246.58 2.14)"/><path class="cls-1" d="M742.19,897.26,739.08,896l-1.16-1.2.66-1-.21-1.27-1.58-1.38L734.53,890l-2-.74-.37-1.68-1.51-1,.37,1.67-1.14,1.38L728.6,888l-1.84-.57-.78-1.16,0-1.76.76-1.83-1.62-.81,1.32-1.12.86-.75,3.77,1.54,1.32-.76,1.81.49.95,1.19,1.69.38,1.37-1.23,1.45,3.15,2.21,2.33,2.69,2.46-2.21.52,0,2.31,1.19.86-.86.68.23,1-.48,1.17Z" transform="translate(-246.58 2.14)"/><path class="cls-1" d="M746.18,808.53l5,.44,4.5.07,5.37,2.11,2.28,2.26,5.35-.7,2,1.45,4.85,3.8,3.57,2.76,1.88-.09,3.42,1.25-.42,1.71,4.22.25,4.33,2.49-.68,1.42-3.81.77-3.85.3-3.95-.48-8.19.59,3.83-3.38L773.52,824l-3.69-.41-2-1.76-1.35-3.47-3.24.23-5.34-1.64-1.71-1.29-7.47-1-2-1.2,2.15-1.54-5.61-.31-4.12,3.2-2.37.08-.82,1.5-2.83.67-2.45-.58,3-1.9,1.24-2.22,2.59-1.37,2.92-1.2,4.34-.6Z" transform="translate(-246.58 2.14)"/><path class="cls-1" d="M1411.2,729.61l3.87-3-5.21,2.09-4.12-.1-.83,1.68-.4,0-2.72.26,1.33,2.79,2.81.9,5.86-2.82-.17-.56Z" transform="translate(-246.58 2.14)"/><path class="cls-1" d="M1314.22,626.66l-2.64-1.63-2.69.45-4.44-2.65-2,.65-3.22,3.54-4.25-2.78-3.23-3.75-2.92-2.11-.61-3.73-1-2.64,4.16-2,2.13-2.24,4.11-1.75,1.43-1.73,1.51,1,2.56-.94,2.71,2.91,4.28.79-.36,2.47,3.11,1.85.86-2.31,3.92,1,.55,2.79,4.25.54,2.64,4.35h-1.71l-.89,1.58-1.31.38-.38,2-1.09.41-.16.81-2,.9-2.54-.15Z" transform="translate(-246.58 2.14)"/><path class="cls-1" d="M1273.93,567.58l.1,3.83,5.79,2.29-.06,3.46,5.81-1.82,3.22-2.69,6.47,3.87,2.7,3.08,1.34,4.89-1.6,2.54,2.08,3.37,1.42,5-.45,3.19,2.35,5.85-2.56.94-1.51-1-1.43,1.73-4.11,1.75-2.13,2.24-4.16,2,1,2.64.61,3.73,2.92,2.11,3.23,3.75-2,4-2,1.09.81,5.55-.54,1.44-1.78-1.73-2.75-.26-4.09,1.52-5-.36-.81,2.22-2.9-2.34-1.73.47-6.13-2.59-1.18,1.84-4.87-.06.73-6.07,2.9-5.93-8.25-1.6-2.7-2.29.32-3.87-1.14-2,.64-6.06-1-9.57h3.44l1.45-3.49,1.43-8.63-1.07-3.23,1.12-2,4.78-.52,1.06,2.12,3.89-4.76-1.31-3.66-.26-5.61,4.33,1.31Z" transform="translate(-246.58 2.14)"/><path class="cls-1" d="M1463.75,871.37l1.36,1.81-.18,2.41-3.27,1.39,2.46,1.59-2.11,3.1-1.27-1-1.38.41-3.2-.09-.09-1.77-.44-1.6,1.93-2.72,2-2.58,2.46.51Z" transform="translate(-246.58 2.14)"/><path class="cls-1" d="M1289.78,561.29l-3.44,8.11-6-5.64-.8-4.19,8.4-3.38Zm-10.18-8.68-1.4,3.88-1.7-1.11-4.13,7.33,1.56,4.87-3.66,1.52-4.33-1.31-2.32-5.56-.18-10.46,1-2.8,1.64-3.15,5-.65,2-2.92,4.61-3-.2,5.47-1.69,3.42.68,2.92Z" transform="translate(-246.58 2.14)"/><path class="cls-1" d="M806.61,829.78l.72-1,4.46,0,3.4,1.56,1.5-.16,1,2.14,3.14-.12-.19,1.8,2.55.22,2.81,2.2-2.12,2.44-2.73-1.3-2.62.25-1.89-.28-1,1.09-2.2.37-.87-1.45-1.89.85-2.29,4.1-1.48-1-.29-1.72.12-1.63-1.47-1.8,1.39-1,.44-2.31Z" transform="translate(-246.58 2.14)"/><path class="cls-1" d="M1285.82,806.78l-19.61,11.74-16.58,12-8.07,2.69-6.35.59-.06-3.84-2.66-1-3.56-1.74-1.36-2.84L1208.26,811,1189,797.4,1167.42,782l.11-1.24v-.43l0-7.66,9.24-4.82,5.72-1,4.68-1.77,2.19-3.3,6.69-2.62.25-4.94,3.31-.58,2.59-2.49,7.49-1.13,1-2.62-1.5-1.44-2-7.21-.34-4.19-2.16-4.44,5.5-3.83,6.19-1.22,3.62-2.91,5.51-2.16,9.7-1.26,9.47-.58,2.89,1.06,5.39-2.81,6.11-.06,2.33,1.66,3.92-.43-1.17,3.65.91,6.71-1.35,5.74-3.52,3.85.5,5.16,4.68,4,0,1.64,3.53,2.72,2.44,12,1.86,5.8.31,3-1,5.29.41,2.94-.73,3.51.5,4-2.27,2.65,3.39,4.61.21,2.69,2,3.5,2.67-1.15,4.52,2.9Z" transform="translate(-246.58 2.14)"/><path class="cls-1" d="M757.44,963.57l3-4.26-1.24-2.49-2.18,2.65-3.43-2.5,1.16-1.6-1-5.16,2-.86,1-3.54,2.17-3.67-.4-2.32,3.14-1.22,3.93-2.26,5.73,3.25,1.06-.09,1.4,2.44,4.86.79,1.62-.9,2.81,1.88,2.45,1.35.8,4.32-1.78,3.69-6.24,6-6.89,2.25-3.5,5L767,970.08l-3.23,2.35-2.41-2.88-2.31-.62-2.36.45-.16-2.09,1.63-1.35Z" transform="translate(-246.58 2.14)"/><path class="cls-1" d="M1356.31,538.56l.67-6.38-2.11,1.38-3.63-3.88-.5-6.36,7.24-3.12,7.21-1.64,6.21,1.87,5.91-.34.86,2-4.07,6.4,1.7,10.13-2.46,3.39-4.72,0-4.92-4-2.51-1.32Z" transform="translate(-246.58 2.14)"/><path class="cls-1" d="M1417.05,768.39l-1.61,2.63-1.23,4.91-1.56,3.36-1.34,1.12-1.9-2.08-2.58-2.88-4.09-9.35-.59.6,2.37,6.88,3.52,6.5,4.32,9.95,2.12,3.44,1.84,3.55,5.13,6.93-1.13,1.09.18,4,6.67,5.53,1,1.26h-67.93V770.11l-1.71-5.28,1.47-4.07-.88-2.84,2.07-3.2,7.62-.11,5.5,1.76,5.69,2,2.65,1,4.41-2.1,2.35-1.91,5-.55,4.07.84,1.56,3.3,1.33-2.17,4.59,1.57,4.46.38,2.82-1.68Z" transform="translate(-246.58 2.14)"/><path class="cls-1" d="M1141.91,780.46l-3.63,6.54-3.81,2.32-2.07,3.91-.13,3.36-1.52,3.65-1.92,1-3.19,4-2,4.37.37,2.09-1.87,3.21-2.2,1.67-.27,2.84-.25,2.58,1.25-2,22.42,0-1.09-8.87,1.4-3.17,5.37-.56-.19-16,18.79.33,0-9.65.11-1.24v-.42l-25.54,0Z" transform="translate(-246.58 2.14)"/><path class="cls-1" d="M1459.57,872.29l-2-1.89-2.36-3.42-2.53-1.88-1.48-2-5-2.35-3.92-.07-1.38-1.23-3.36,1.38-3.47-2.67-1.79,4.39-6.67-1.23-.6-2.35,2.46-8.68.57-3.94,1.8-1.83,4.21-1,2.9-3.41,3.33,6.9,1.57,5.45,3.14,2.88,7.81,5.56,3.18,3.34,3.11,3.38,1.79,2,2.81,1.75L1462,872.8Z" transform="translate(-246.58 2.14)"/><path class="cls-1" d="M1165.41,681.18l.29-5.49-2.34-3.37,8.1-5.67,7,1.43,7.69-.05,6.09,1.34L1197,669l9.26.26,2.28,3,10.54,3.53,2.08-1.67,6.44,3.5,6.63-1,.31,4.47-5.42,5.08-7.34,1.6-.51,2.53-3.52,4.15-2.2,6,2.23,4.19-3.31,3.25-1.24,4.7-4.32,1.44-4.06,5.49-7.26.11-5.46-.14-3.58,2.5-2.19,2.67-2.8-.58-2.12-2.39-1.62-4.09-5.35-1.1-.48-2.37,2.13-2.7.78-2-2-2.16,1.58-4.79-2.29-4.42,2.47-.61.23-3.52.93-1.09.07-5.87,2.65-2.06-1.6-3.82-3.34-.27-1,1h-3.38l-1.43-3.75-2.34,1.12Z" transform="translate(-246.58 2.14)"/><path class="cls-1" d="M1434.13,858.13l3.47,2.67,3.36-1.38,1.38,1.23,3.92.07,5,2.35,1.48,2,2.53,1.88,2.36,3.42,2,1.89-2,2.58-1.93,2.72.44,1.6.09,1.77,3.2.09,1.38-.41,1.27,1-1.25,2.06,2.12,3.18,2.11,2.78,2.18,2,18.72,6.83,4.82,0-16.18,17.19-7.46.25-5.1,4-3.67.1-1.57,1.8h-3.91l-2.31-1.93-5.23,2.39-1.69,2.37-3.82-.45-1.26-.65-1.35.15-1.8,0-7.25-4.84h-4l-2-1.88v-3.21l-3-1-3.39-6.22-2.61-1.33-1-2.29-2.89-2.79-3.52-.41,2-3.27,3-.15.85-1.75-.07-5.18,1.69-6.05,2.71-1.62.58-2.37L1419,875l3.45-2.89,2.33-5.75.91-5,6.67,1.23Z" transform="translate(-246.58 2.14)"/><path class="cls-1" d="M866.79,1290.76l6.87-5.5,4.86,2.28,3.44-3.65,4.58,4.11-1.72,3.23-7.73,2.78-2.57-3.25-4.87,4.19Z" transform="translate(-246.58 2.14)"/><path class="cls-1" d="M1380.81,392.36l-.84,11,8.77,10.19-5.28,11.18,6.65,16.25-3.85,11.76,5.15,9.92-2.34,8.46,8.48,8.69-2.16,6.34-5.31,7.05-12.26,15.12-10.39.92-10.07,4.22-9.31,2.41-3.31-6.26-5.55-3.82,1.28-11.69-2.78-11,2.73-7.31,5.19-8,13.09-14.33,3.82-2.83-.59-5.79-8-6.59-1.94-5.51-.15-22.7L1343,399.46l-7.63-7.77,3.43-4.26,6.36,8.48,7.48-.78,6.14,3.81,5.46-7L1367,380l8.89-5.67,7.34,6.64Z" transform="translate(-246.58 2.14)"/><path class="cls-1" d="M2248.73,1036.52l-.71,2.85-.47.31-3.64,1.47-3.66,1.25-.73-2.22,2.86-1.22,1.81-.32,3.36-1.85Zm-11.91,8.81-2.6-.73-2.21,2.05.55,2.63,3.16.74,3.55-.82.94-3.13-2-1.72Z" transform="translate(-246.58 2.14)"/><path class="cls-1" d="M1271.86,679.09,1270,685l-2.6-1.55-1.33-5.16,1.16-2.87,3.69-3ZM1237.67,611l4,4.2,2.93-.69,5,4,1.28.76,1.65-.18,2.71,2.29,8.24,1.61-2.89,5.92-.73,6.07-1.57,1.44-2.61-.78.19,2.15-4.19,4.7-.08,3.75,2.73-1.29,2,3.61-.24,2.32,1.68,3.06-2,2.46,1.47,6.21,3.11,1-.66,3.44-5.18,4.43-11.29-2.12-8.34,2.54-.66,4.68-6.63,1-6.44-3.5-2.09,1.67-10.53-3.53-2.28-3,3-4.74,1.09-16.08-5.91-8.71-4.22-4.25-8.75-3.27-.58-6.26,7.42-1.88,9.61,2.22-1.81-9.89,5.4,3.78,13.33-6.89,1.72-7.36,5-1.83.83,3.18,2.66.15Z" transform="translate(-246.58 2.14)"/><path class="cls-1" d="M1280.64,966.84l-5.88-5.76-3.79-4.69-3.47-5.88.18-1.89,1.25-1.81,1.39-4.15,1.15-4.21,1.93-.33,8.33.06,0-6.85,2.71-.37,3.48.76,3.39-.73.72.31-.42,2.48,1.6,2.94,4.26-.46,1.43,1.13-2.48,6.58,2.71,3.36.62,4.44-.72,3.79-1.76,2.69-5-.24-3.06-2.74-.46,2.53-3.86.69-2,1.44,2.16,3.76Z" transform="translate(-246.58 2.14)"/><path class="cls-1" d="M1184.72,571.82l-3.07,6.71-4.33-2-3.54.14,1.18-5.25-1.18-5.32,4.8-.41Zm15.21-42.39-6.12,11.7,5.83-1.46,6.27.05-1.49,8.62-5.15,9.26,5.92.64.46,1.07,5.1,11.82,3.91,1.58,3.53,11,1.63,3.76,6.93,1.8-.69,6-2.92,2.72,2.29,4.75-5.15,4.75-7.66-.08-9.74,2.47-2.67-1.77-3.79,4.2-5.3-1-4,3.4-3-1.77,8.39-9.47,5.13-2h0l-8.94-1.53-1.62-3.67,6-2.89-3.14-5.06,1.09-6.24,8.51.87h0l.84-5.6-3.84-6-.08-.13-6.95-1.74L1188,566.8l2.08-4.49-1.88-2.79-3.08,4.78-.34-9.8-2.89-5.28,2.08-10.93,4.45-8.8,4.57.86Z" transform="translate(-246.58 2.14)"/><path class="cls-1" d="M1455,683.81l.85-3.26-1.43-5.26-3.3-2.87-3.18-.9-2.09-2.4.69-.93,4.84,1.35,8.43,1.26,7.79,3.74,1,1.45,3.47-1.22,5.34,1.62,1.75,3.16,3.6,1.78-1.49,1,2.82,4.12-.78.89-3.08-.45-4.27-2.18-1.4,1.24-8,1.18-5.51-3.73Z" transform="translate(-246.58 2.14)"/><path class="cls-1" d="M916.27,930l-2.19,2.16-2.74.4-.78-1.6-1.28-.24-1.78,1.55L905,931l1.45-2.43L907,926l1-2.44-2.22-3.36-.45-3.91,3-4.91,2,.63,4.21,1.35,6.06,4.82.95,2.34L918,925.75Z" transform="translate(-246.58 2.14)"/><path class="cls-1" d="M1223.2,910.42l-9,3.34-3.19,2-5.16,1.66-5.1-1.62.26-2.26-2.48-4.92,1.49-6.47,2.41-4.82L1201,889.1l-.79-4.35.14-3.28,9.94-.28,2.53.43,1.85-.94,2.65.46-.42,1.81,2.39,3v4.19l.54,4.54,1.44,2.1-1.27,5.17.46,2.85,1.52,3.63Z" transform="translate(-246.58 2.14)"/><path class="cls-1" d="M949.43,46.92l19.22-27.77,20.09,2.17L996,3l20.23-4.93L1062,4.54l35.81,38-10.57,17-21.9,1.89-30.81,4.14,2.88,7.44,20.26-4.57,17.25,14.11L1086,70l4.76,14.59L1084.5,107l14.57-14.14,27.8-15.42L1144,85.18l3.21,16.56L1123.9,127.6l-3.23,8-18.29,5.85,13.25,1.61-6.69,23.49-4.61,19.6.18,31.15,6.87,17-8.94,1.05-9.41,7.92,10.56,12.86,1.35,19.66-6.13,2.07,7.42,18.69L1093.51,298l6.64,8.45-1.87,7.16-8.08,3.1-8,.06L1089.4,330l.08,8.43-11.33-7.83-3,5.08,7.73,4.69,7.5,11.18,2.17,14.2-10.2,3.31-4.41-6.66-7.08-10.17,1.95,12-6.64,9,15.08.72,7.89.92-15.34,14.35-15.56,12.5-16.75,5.35-6.32.06L1029.3,413l-8,15.58-12.31,10-4,.57-7.62,3.43-8.23,3.23-4.9,8.42-.08,9.31-2.9,8.5L972,482.16l2.31,9.6-2.58,9.9L968.81,513l-8.07.69-8.45-9.46-11.44-.06-5.56-6.49-3.82-11.85-9.92-15.66-2.9-8.49-.78-12-7.93-12.79L912,426.33l-3.82-5.16,5.66-17.67,8.62-5.82,2.26-6.65,1.2-12.79-6.54,5.85-3.12,2.43-5.14,2.32-7-5.32-.38-11.33L906,363l5.31-.25L923,367.4l-9.85-11.1L908,350.17l-5.7,2.53-4.78-4.48,6.39-17.36-3.48-7.2-4.54-13.76L889,287.63l-7.29-8.53.07-9.45L866.4,256l-12.16-1.74-15.3,1L825,257l-6.65-7.65-10-15.64,15-8.11,11.52-1.38-24.5-6.87-12.9-11.1.79-10.91,21.67-14,21-14.61,2.21-11.51L827.73,143.4l5-13.56,19.82-25.18,8.33-4-2.39-17.5L872,72.42l17.61-6.55,17.59-.37,6.24,12.87,15.19-23.12,13.66,15.89,8,3.25,11.89,13.09-13.61-22Z" transform="translate(-246.58 2.14)"/><path class="cls-1" d="M1120.72,868.74l.73-2.6,6.24-.16,1.29-1.39,1.82-.09,2.26,1.44,1.77,0,1.89-1,1.16,1.69L1135.4,868l-2.49-.1-2.46-1.24-2.12,1.35-1,0-1.38.82Z" transform="translate(-246.58 2.14)"/><path class="cls-1" d="M1168.82,900.36l-1.62-.15-1.17,2.31-1.61,0-1.12-1.22.38-2.31-2.39-3.52-1.5.65-1.22.13-1.58.33.07-2.11-.92-1.51.18-1.67-1.24-2.43-1.59-2.06h-4.58l-1.33,1.09L1146,888l-1,1.25-.66,1.6-3.06,2.53-2.51-3.41-2.22-2.26-1.47-.74-1.43-1.15-.65-2.56-.84-1.27-1.66-1,2.54-2.83,1.74.11,1.49-1h1.27l.9-.77-.49-1.92.63-.61.1-2,2.77.06,4.11,1.43,1.26-.14.43-.64,3.12.46.83-.33.33,2.13h.91l1.49-.77,1,.19,1.59,1.48,2.45.46,1.57-1.25,1.85-.78,1.38-.82,1.14.15,1.27,1.28.68,1.61,2.35,2.43-1.17,1.49-.23,1.89,1.22-.57.72.67-.3,1.73,1.74,1.66-1.14.45-.46,2,1.32,2.39,1.42,4.6-2.13.7-.55.79.44,1.11-.33,2.51Z" transform="translate(-246.58 2.14)"/><path class="cls-1" d="M1271.47,938.45l-1.07-.86,2-6.39,9.32.13,0,6.85-8.33-.06Z" transform="translate(-246.58 2.14)"/><path class="cls-1" d="M1352.8,726.4l3.13,2.36,4.46-.4,4.26.5-.14,1.21,3.12-.83-.72,2-8.24.59.06-1.14-7-1.36Zm16.63-42.79-1.77,4.75-1.36.84-3.49-.21-3-.71-6.93,2,4,4.21-2.91,1.22h-3.19l-3-3.85-1.07,1.64,1.28,4.44,2.86,3.47-2.16,1.61,3.19,3.37,2.84,2.1.08,4.09L1352,710.2l-2.52.42,1.68,3.68-1.87.39-2-1.42,2.45,8.07-1.19,0-.91-2.58-1.17,0-.53,2.69-.93-.61.21-1.51-1.14-2.14h-1.31l.25,1.73-.51.54-1.26-1.1-.78-2.09,1.06-1.16-.73-1.51-.84-.78-.86-.19-1-1.93,1.19-1.06.73-1,1.14.2.51-.83,1.21-.34,1.39,1,1.13.34.79-1.27-1.91-.17-1.14-.4-2.55.57-2.49.1-2.23-3.35-.37-.52.34-1.31-2.9-2.35-.39-2.11,2.66-3.6.34-2.43,1.86-1.09.12-2,3.74-.66,2.18-1.66,3.11.15.94-1.32,1.09-.25,4.23.21,4.59-2.09,4,2.66,5.2-.72.07-3.79Z" transform="translate(-246.58 2.14)"/><path class="cls-1" d="M701.37,865.32l-2.93-1-3.57-.11L692.25,863l-3.08-2.42.14-1.71.66-1.38-.81-1.11,2.76-4.81,7.34,0,.15-2-.93-.36-.63-1.28-2.12-1.38-2.13-2h2.58v-3.36h5.34l5.3.07-.05,4.72-.44,6.7H708l1.87,1.07.49-.88,1.68.75-2.61,2.25-2.71,1.65-.4,1.13.45,1.16-1.19,1.49-1.34.36.31.7-1.08.64-2,1.48Z" transform="translate(-246.58 2.14)"/><path class="cls-1" d="M1130.52,881l-3.06-2.43-2.41-.38-1.31-1.64,0-.88-1.75-1.24-.36-1.24,3-1,1.9.19,1.53-.66,10.58.24-.1,2-.63.61.49,1.92-.9.77h-1.27l-1.49,1-1.74-.11Z" transform="translate(-246.58 2.14)"/><path class="cls-1" d="M875,896.44l3.76,2.12,3.54,3.74.16,3,2.16.13,3.07,2.8,2.26,2-.92,5.13-3.47,1.49.31,1.35-1.06,2.94,2.54,4.14h1.83l.75,3.21,3.5,4.95-1.4.2-3.16-.48-1.86,1.51-2.59,1-1.81.25L882,937l-2.81-.28L875.68,934l-.41-2.63-1.47-2.88.92-4.85,1.58-2L875,919l-2-.86.75-2.51-1.33-1.31-3,.25-3.88-4.33,1.56-1.58L867,906l3.53-.92L872,904l-2-2.13.5-2.09Z" transform="translate(-246.58 2.14)"/><path class="cls-1" d="M717.28,869.71l-1-1.83-1.73-.51L715,865l-.77-.63L713,864l-2.51.7-.22-.79-1.73-.94-1.23-1.17-1.69-.5,1.19-1.49-.45-1.16.4-1.13,2.71-1.65,2.61-2.25.6.23,1.25-1,1.64-.08.53.48.89-.29,2.66.53,2.65-.16,1.84-.65.67-.66,1.82.3,1.37.41,1.5-.14,1.14-.52,2.61.83.91.13,1.75,1.1,1.65,1.33,2.08.9,1.51,1.62-2-.12-.79.8-2,.77H735l-1.26.75-1.15-.27-1-.89-.59.17-.74,1.4-.55,0-.09,1.21-2,1.62-1.05.69-.59.73-1.69-1.18L723,865.11l-1.19,0-1.34.14.12,2.87-.84.06-.72,1.33Z" transform="translate(-246.58 2.14)"/><path class="cls-1" d="M1324.92,649.27l1.39,3.17,1.82,2.31-2.2,3-2.59-1.79-4,.12-4.92-1.35-2.67.18-1.24,1.68-2.06-1.86-1.2,3.35,2.81,3.75,1.24,2.47,2.63,2.95,2.18,1.74,2.16,3.27,5.07,3-.63,1.32-5.38-2.88-3.32-2.8-5.24-2.34-4.81-5.82,1.15-.6-2.61-3.36-.1-2.72-3.68-1.28-1.76,3.49-1.69-2.7.13-2.82.2-.13,4,.28,1-1.38,2,1.33,2.24.16,0-2.28,2-.84.56-3.32,4.56-2.2,1.82,1,4.28,3.53,4.72,1.57Z" transform="translate(-246.58 2.14)"/><path class="cls-1" d="M798.15,828.56l3.5.27,5,.95.5,3.29-.44,2.31-1.39,1,1.47,1.8-.12,1.63-3.8-1-2.7.41-3.49-.43L794,839.91,790.89,838l.51-1.93,5.27.83,4.32.48,2.06-1.33-2.62-2.61.05-2.3-3.62-.95Z" transform="translate(-246.58 2.14)"/><path class="cls-1" d="M1309.88,641.47l1.9-5.41-1.11-1.83,3.23,0,.43-3.48,2.91,2.18,2.12.93,4.8-1,.46-1.71,2.28-.26,2.78-1.33.62.55L1333,629l1.34-2,1.88-.53,6.13,2.62,1.22-.88,3.18,2.33.4,2.29-3.5,1.78-2.71,5.71-3.46,5.64-4.59,1.55-3.57-.36-4.39,2.16-2.14,1.22-4.72-1.57-4.28-3.53-1.82-1-1.12-2.8Z" transform="translate(-246.58 2.14)"/><path class="cls-1" d="M1908.17,1002.73l-2.4.11-7.6-4,5.33-1.13,3,1.75,2,1.75Zm21.3-.57-4.9,1.27-.69-.69.52-2,2.46-3.52,5.66-2.29.58,1.14.11,1.75Zm-37.41-11.78,2.06,1.53,3.54-.47,1.41,2.45-6.61,1.15-4,.78-3.07-.05,2-3.31,3.14-.05Zm28.64,0-.84,3.2-8.6,1.63-7.62-.71,0-2.1,4.55-1.2,3.59,1.73,3.81-.44ZM1839,982.82l11,.57,1.26-2.36,10.62,2.76,2.08,3.71,8.59,1,7,3.42-6.53,2.19-6.3-2.32-5.18.16-5.94-.43-5.35-1-6.63-2.19-4.21-.57-2.38.72-10.44-2.36-1-2.47-5.24-.42,3.93-5.47,6.94.34,4.63,2.24,2.37.44Zm149.42-3.22-2.95,3.9-.55-4.31,1-2.06,1.2-1.93,1.31,1.68Zm-42.79-15.73-2.15,1.89-4-1-1.12-2.45,5.79-.28Zm18.44-2.08,2.08,4.36-4.83-2.35-4.78-.47-3.23.37-4-.2,1.35-3.13,7.07-.24Zm21-11,1.6,9.2,5.92,3.41,4.79-6,6.57-3.43H2009l4.89,2,4.25,2,6.14,1.09.1,18.59.1,18.69-5.1-4.72-5.82-1.16-1.41,1.64-7.25.18,2.43-4.68,3.61-1.59-1.5-6.23-2.74-4.79-11.1-4.84-4.73-.47-8.59-5.27-1.69,2.77-2.2.5-1.3-2.09,0-2.48-4.37-2.79,6.17-2,4.08.11-.48-1.51h-8.38l-2.27-3.39-5.11-1-2.42-2.81,7.71-1.38,2.94-1.85,9.19,2.33Zm-51-14.62-4.6,5.64-4.3,1.09-5.51-1.11-9.54.29-5,.82-.82,4.3,5.13,5.06,3.09-2.58,10.68-1.93-.47,2.62-2.5-.83-2.49,3.33-5,2.21,5.42,7.29-1.05,2,5.15,6.58,0,3.75-3,1.68-2.25-2,2.77-4.68-5.62,2.21-1.43-1.58.75-2.2-4.13-3.34.42-5.55-3.81,1.73.48,6.64.23,8.17-3.63.83-2.46-1.68,1.65-5.25-.89-5.5-2.41-.05-1.78-3.9,2.37-3.73.81-4.51,2.88-8.58,1.2-2.34,4.87-4.22,4.47,1.68,7.21.79,6.59-.24,5.66-4.13Zm19.73,1.63-.29,5-3-.55-.87,3.46,2.36,3-1.6.68-2.31-3.6-1.7-7.27,1.15-4.55,1.9-2.07.41,3.11,3.38.5Zm-61.89-4,6.42,5.26-6.79.67-1.91,3.88.25,5.15-5.5,3.89-.15,5.67L1882,967l-.84-2-6.51,2.56-2.27-3.48-4.08-.32-2.85-1.83-6.81,2.05-2.08-2.76-3.75.32-4.72-.66-.88-7.63-2.86-1.58-2.74-4.87-.8-5,.66-5.27,3.4-3.78,1,3.8,3.92,3.21,3.69-1.16,3.65.42,3.34-2.88,2.75-.5,5.41,1.59,4.67-1.21,2.94-7.91,2.2-2,2-6.48H1887l5,1-3.26,5.15,4.21,5.39Zm-69,43.73-6.34.12-4.82-4.78-7.35-4.66-2.45-3.45-4.33-4.64-2.85-4.26-4.35-8-5-4.73-1.68-4.89-2.11-4.45-5.16-3.58-3-4.87-4.31-3.19-6-6.29-.5-2.9,3.69.23,8.86,1.1,5.06,5.58,4.43,3.87,3.16,2.37,5.42,6.12,5.82.08,4.81,3.9,3.31,4.77,4.36,2.59-2.29,4.65,3.28,2,2,.14,1,4,2,3.18,4.2.5,2.79,3.6-1.44,7.09Z" transform="translate(-246.58 2.14)"/><path class="cls-1" d="M1181.65,578.53l.94,6.86-4.32,8.42-10.15,5.48-8.1-1.4,4.64-9.76-3-9.73,7.79-7.66,4.32-4.64,1.18,5.32-1.18,5.25,3.54-.14Z" transform="translate(-246.58 2.14)"/><path class="cls-1" d="M1421.61,747.05l-1,2.13-2.07-.94-1.19,4.49,1.43.75-1.46.92-.25,1.76,2.7-.91.13,2.6-2.85,10.54-3.76-11.34,1.66-2.2-.39-.38,1.51-3.13,1.17-5.09.81-1.72.16-.07h1.92l.53-1.19,1.53-.09.09,2.78-.78,1Z" transform="translate(-246.58 2.14)"/><path class="cls-1" d="M1662.72,727.88l6.15,8.15-.58,5.6,2.28,3.48-.19,3.46-4.11-.91,1.61,7.41,5.62,4.22,8,4.62-3.64,3-2.22,6.1,5.55,2.46,5.39,3.17,7.47,3.6,7.85.83,3.3,3.26,4.42.6,6.89,1.48,4.77-.1.65-2.52-.75-4.07.44-2.77,3.49-1.35.48,5.06.13,1.29,5.2,2.42,3.6-1,4.83.43,4.67-.19.4-3.93-2.33-2,4.62-.81,5.21-4.81,6.6-4.14,4.8,1.6,4.08-2.75,2.68,4.06-1.93,2.72,6.18,1,.43,2.44-2,1.18.47,3.95-4.09-1.16-7.41,4.42.17,3.63-3.16,5.3-.29,3-2.55,5.15-4.47-1.42-.23,6.43-1.29,2.1.61,2.62-2.83,1.46-3-9.8-1.58,0-.94,4-3.13-3.21,1.76-3.54,2.57-.36,2.63-5.3-3.3-1.07-5.31.09-5.44-.86-.51-4.39-2.73-.31-4.54-2.74-2,4.3,4.13,3.34-3.57,2.34-1.27,2.28,3.52,1.67-1,3.76,2,4.66.89,5.07-.82,2.24-3.9-.08-7,1.27.33,4.59-3.06,3.59-8.24,4.08-6.4,7.07-4.31,3.78-5.7,3.9v2.73l-2.85,1.46-5.16,2.12-2.68.32-1.71,4.5,1.19,7.64.3,4.85-2.42,5.54,0,9.85-3,.28-2.61,4.41,1.75,1.9-5.22,1.63-1.93,3.91-2.3,1.65-5.42-5.37-2.65-8.08-2.19-5.83-2-2.75-3-5.59-1.42-7.32-1-3.66-5.21-8.1-2.37-11.53-1.71-7.68,0-7.33-1.11-5.7-8.33,3.65-4-.73-7.48-7.42,2.76-2.22-1.69-2.42-6.72-5.26,3.81-4.16,12.6,0-1.13-5.38-3.22-3.2-.65-4.88-3.75-2.87,6.31-6.72,6.65.49,6-6.79,3.59-6.64,5.56-6.63-.09-4.76L1648,750l-4.62-3.34-2-4.6-2-6,2.8-3,8.69,1.69,6.38-1Z" transform="translate(-246.58 2.14)"/><path class="cls-1" d="M1477.14,724.48l3.76,2.11.43,4.09-2.88,2.4-1.33,5.38,4,6.5,7,3.71,3,5.11-.94,4.83h1.83l0,3.53,3.17,3.47-3.39-.33-3.85-.55-4.2,6.29-10.65-.52-16.14-13.25-8.53-4.68-6.89-1.82-2.31-8.25,12.67-7.15,2.17-8.41-.54-5.15,3.13-1.75,2.93-4.45,2.46-1.11,6.66.92,2,1.83,2.74-1.21Z" transform="translate(-246.58 2.14)"/><path class="cls-1" d="M1525.81,715.81l5-1.38,4.07-4.12,3.83.21,2.51-1.35,4.07.67,6.33,3.66,4.57.78,6.55,6.32,4.26.25.51,5.94-2.34,8.67-1.57,5,2.49,1-2.45,3.73,1.88,5.4.45,4.26,4.33,1.12.47,4.28-5.19,6,2.83,3.44,2.31,3.93,5.47,2.85.16,5.67,2.74,1,.47,2.94-8.26,3.29-2.15,7.34-10.77-1.9-6.24-1.45-6.46-.82-2.45-7.8-2.74-1.13-4.4,1.14-5.77,3.09-7-2.12-5.77-4.92-5.51-1.83-3.83-6.14-4.22-8.72-3.08,1.07L1497.3,763l-2.14,2.58-3.17-3.47,0-3.53h-1.83l.94-4.83-3-5.11-7-3.71-4-6.5,1.33-5.38,2.88-2.4-.43-4.09-3.76-2.11-3.71-8.46-3.13-5.76,1.12-2.25-1.78-8.39,3.92-2.11.9,2.79,2.9,3.39,3.92,1,2.08-.22,6.75-5.42,2.14-.54,1.7,2.16-2,3.64,3.57,3.81,1.43-.36,1.81,5.33,5.42,1.5,4,3.58,8.14,1.23,8.94-1.89Z" transform="translate(-246.58 2.14)"/><path class="cls-1" d="M1134.08,431.82l-1.33,9.15,6.47,9.39-7.44,10.22-16.51,8.95-4.94,2.34L1102.8,470l-16-4.1,5.64-5.8L1080,453.55l10.14-2.62-.25-4-12-3.2,3.86-9.14,8.68-2.11,8.92,9.57,8.7-7.66,7.2,4,9.34-7.57Z" transform="translate(-246.58 2.14)"/><path class="cls-1" d="M1306,708.37l-2.06,5.69.85,2.22-1.2,3.66-4.38-2.68-2.91-.77-8-3.65.8-3.7,6.7.66,5.84-.79Zm-36.12-22.08,3.43,5.35-.8,9.82-2.61-.46-2.33,2.45-2.17-2-.23-9-1.31-4.3,3.15.38ZM1288,642.17l8.19,2.15-.62,4.06,1.37,3.49-4.56-1.19-4.65,2.89.31,4-.7,2.29,1.88,4.06,5.37,4,2.87,6.47,6.37,6.22,4.49-.05,1.39,1.69-1.6,1.52,5.12,2.75,4.21,2.29,4.91,3.91.59,1.4-1.07,2.66-3.18-3.47-5-1.24-2.41,4.83,4.14,2.74-.68,3.84-2.39.43-3.06,6.24-2.39.56,0-2.21,1.16-3.91,1.25-1.56-2.24-4.27-1.74-3.74-2.38-.93-1.69-3.23-3.68-1.37-2.48-3-4.23-.49-4.48-3.44-5.23-5-3.89-4.47-1.79-7.77-2.85-.92-4.66-2.63-2.63,1.08-3.31,3.68-2.38.58.66-3.44-3.11-1-1.47-6.2,2-2.47-1.68-3.06.24-2.31,2.46,1.75,2.76-.38,3.21-2.79,1,1.31,2.73-.26,1.24-3.33,4.23,1,2.52-1.39.46-3.41,3.47,1.18.66-1.58,5.66-1.46Z" transform="translate(-246.58 2.14)"/><path class="cls-1" d="M773.08,837.15l3.85.54,3,1.44.95,1.64-4,.11-1.74,1-3.2-1-3.28-2.18.69-1.37,2.41-.42Z" transform="translate(-246.58 2.14)"/><path class="cls-1" d="M1420.61,749.18l1-2.13,6.38,2.67,11.21-7.22,2.31,8.25-1.09,1L1429,755.12l5.71,6.65-1.9,1.12-.94,2.21-4.37.91-1.37,2.36-2.47,2-6.37-1-.19-1,2.85-10.54-.13-2.6.84-2Z" transform="translate(-246.58 2.14)"/><path class="cls-1" d="M1987.88,737.22l.73,2.35-3.23,4.14-2.34-2.19-2.94,1.58-1.52,4-3.73-1.93.05-3.24,3.16-4.09,3.26.8,2.35-2.89Zm36.28-21L2022,721.9l1,3.53-3,4.94-7.32,3.27-10.06.42-8.16,7.85-3.84-2.63-.24-5.15-10,1.52-6.77,3.25-6.7.13,5.8,5L1969,755.51l-3.7,2.8-2.77-2.58,1.41-6.05-3.63-2-2.32-4.66,5.41-2.1,3-4.32,5.76-3.57,4.2-4.77,11.39-2.09,6.12,1.44,6-12.59,3.81,3.41,8.4-7.17,3.25-2.81,3.6-9-1-8.37,2.42-4.77,6.09-1.39,3.12,10.43-.17,6-5.3,7.35ZM2041,663.28l4,1.69,4.05-3.37,1.27,8.88-8.49,2.14-5,7.68-9-5.27-3.11,8.41-6.37.12-.79-7.64,2.84-6,6.11-.43,1.67-11,1.69-6.31,6.73,8.41Z" transform="translate(-246.58 2.14)"/><path class="cls-1" d="M1451.8,949.07l3.39,4.7-4,2.27-1.42,2.37-2.14.42-.81,4-1.84,2.3-1.12,3.79-2.3,1.89-8.22-5.7-.39-3.31-20.76-11.59-1-.63,0-6,1.64-2.31,2.81-3.76,2.09-4.15-2.52-6.53-.67-2.86-2.72-4,3.53-3.4,3.88-3.77,3,1V917l2,1.88h4l7.25,4.84,1.8,0,1.35-.15,1.26.65,3.82.45,1.69-2.37,5.23-2.39,2.31,1.93h3.91l-5,6.46Z" transform="translate(-246.58 2.14)"/><path class="cls-1" d="M1623.36,678.22l1.28-3.39,3.77-1.1,9.42,2.67.89-4.59,3.25-1.62,8.15,3.29,2.08-.86,9.49.21,8.49.82,2.88,2.79,3.52,1.13-.8,1.74-9,4.15-2,3-7.34.89-2.17,4.81-6.06-1-4,1.46-5.46,3.53.79,1.73-1.63,1.69-10.83,1.12-7.07-2.4-6.2.58.54-4.28,6.23,1.24,2.09-2.3,4.36.74,7.33-5.4-6.78-4-4.08,1.89-4.23-2.86,4.81-5Z" transform="translate(-246.58 2.14)"/><path class="cls-1" d="M1809.61,883.38l-2.33-3-2.9-6-1.35-7,3.66-4.87,7.41-1.13,5.36.85,4.73,2.3,2.59-4.05,5.07,2.16,1.33,3.91-.71,7-9.62,4.48,2.51,3.51-6,.42-4.95,2.33Z" transform="translate(-246.58 2.14)"/><path class="cls-1" d="M1965,677.22l.8,1.35-2.18-.46-2.48,2.6-1.71,2.6.21,5.45-3,1.67-1,1.32L1953.5,694l-3.81,1.23-2.49,2-.18,3.2-.66.82,2.27,1.19,3.25,3.21-.83,1.76-2.44.48-4,.36-2.23,3.26-2.56-.26-.36.66-2.77-1.37-.7,1.35-1.67.6-.21-1.36-1.48-.66-1.54-1.15,1.57-3.2,1.35-.86-.51-1.33,1.45-4-.37-1.21-3.34-.8-2.7-2,4.66-4.79,6.31-4,3.93-5.4,2.72,2.39,5,.28-.9-4L1959,677l2.28-4.35Z" transform="translate(-246.58 2.14)"/><path class="cls-1" d="M1951.88,705.6l4.94,8.54,1.41,4.64,0,8.13-2.16,3.84-5.18,1.34-4.58,2.87-5.16.6-.63-3.78,1.06-5.24-2.53-7.35,4.25-1.2-3.93-6.13.36-.66,2.56.26,2.23-3.26,4-.36,2.44-.48Z" transform="translate(-246.58 2.14)"/><path class="cls-1" d="M1336,679.86l-.26,1.58-.73-.07-.38-2.78-1.37-.79-1.22-2.08,1.07-1.73,1.37-.56.79-2.6,1-.43.81,1.1,1.07.49.75,1.24.94.37L1341,675l.81,0-.64,1.89-.68.92.19.58-1.28.29Z" transform="translate(-246.58 2.14)"/><path class="cls-1" d="M1491.77,765.28l1.19,2.9-.51,1.49,1.84,4.91-4,.17-1.42-3.1-5.1-.63,4.2-6.29Z" transform="translate(-246.58 2.14)"/><path class="cls-1" d="M1623.36,678.22l-3.28,1.42-7.55,5.33-2.51,5.4-2.13,0-1.57-3.57-7.28-.25-1.17-6.24-2.78-.06.42-7.76-6.85-5.73-9.82.62-6.71,1.14-5.47-7.14-4.68-3-8.88-5.79-1.06-.71-14.74,4.8.22,28.84-2.93.37-4-6-3.87-2.15-6.5,1.6-2.53,2.55-.32-1.87,1.41-3.21-1.09-2.7-6.64-2.65-2.58-7.07-3.16-2-.19-2.6,5.57.76.22-5.89,4.86-1.31,5,1.21,1-8-1-5.13-5.73.4-4.87-2-6.63,3.67-5.34,1.74-2.9-1.34.58-4.29-3.65-5.64-4.25.24-4.86-5.79,3.3-6.57-1.67-1.78,4.57-9.74,5.89,5.17.71-6.52,11.82-9.9,8.94-.24,12.62,6.34,6.78,3.65,6.07-3.81,9.07-.18,7.33,4.68,1.66-2.68,8,.39,1.44-4.3-9.28-6.32,5.49-4.54-1.07-2.56,5.5-2.46-4.14-6.55,2.63-3.3,21.42-3.4,2.79-2.43,14.33-3.65,5.15-4.15,10.28,2.16,1.81,10.23,6-2.38,7.35,3.33-.47,5.28,5.49-.55,14.35-9.18-2.1,3.08,7.31,7.47,12.79,23.63,3-4.76,7.89,5.23,8.22-2.32,3.16,1.63,2.76,5.2,4,1.73,2.44,3.76,7.37-1.18,3,5.38-4.36,5.78-4.76.8-.27,8.55-3.18,3.79-11.36-2.76-4.13,14.83-2.93,1.81-11.34,3.23,5.15,13.79-3.92,2,.45,4.42-3.52-1.13-2.88-2.79-8.49-.82-9.49-.21-2.08.86-8.15-3.29-3.25,1.62-.89,4.59-9.42-2.67-3.77,1.1Z" transform="translate(-246.58 2.14)"/><path class="cls-1" d="M1819.46,862.17l1.87-2.65.25-5-4.63-5.16-.36-5.87-4.36-4.85-4.32-.41-1.16,2.08-3.35.17-1.72-1-6,3.56-.13-5.36,1.4-6.34-3.86-.27-.33-3.64-2.48-1.87,1.22-2.24,4.87-4,.52,1.44,3.05.16-.87-7,3-.9,3.35,4.85,2.57,5.55,7,.05,2.22,5.29-3.66,1.58-1.64,2.17,6.86,3.6,4.76,7.08,3.61,5.24,4.33,4.12,1.44,4.17-1,5.88-5.07-2.16-2.59,4.05Z" transform="translate(-246.58 2.14)"/><path class="cls-1" d="M1422.19,743.19l-1.53.09-.53,1.19h-1.92l2-5.57,2.85-4.86.11-.24,2.57.35.94,2.71-3.12,2.6Z" transform="translate(-246.58 2.14)"/><path class="cls-1" d="M1685.33,901.29l-.86,6-2.4,1.62-5,1.31-2.73-4.55-1-8.24,2.59-9.35,4,3.21,2.66,4Z" transform="translate(-246.58 2.14)"/><path class="cls-1" d="M1173,919.35l-1.5,0-5.9-2.72-5.2-4.35-4.88-3.12-3.85-3.7,1.37-1.83.3-1.66,2.58-3.12,2.67-2.68,1.22-.13,1.5-.65,2.39,3.52-.38,2.31,1.12,1.22,1.61,0,1.17-2.31,1.62.15-.26,1.66.57,2.77-1.25,2.55,1.67,1.57,1.82.38,2.42,2.39.18,2.25-.55.72Z" transform="translate(-246.58 2.14)"/><path class="cls-1" d="M1383,1116.43l2,2-1.76,3.18-1,2.14-3.19,1-1.06,2.11-2,.66-4.29-5.07,3-4.15,3.1-2.55,2.68-1.32Z" transform="translate(-246.58 2.14)"/><path class="cls-1" d="M1347.26,574.06l-.46-2.51.61-2.71-2.53-1.58-6-1.75-1.21-8.5,6.55-3.15,9.6.66,5.63-1,.8,2.14,3,.66,5.5,4.94.54,4.51-4.7,3.18-1.32,5.57-6.22,3.67-5.53-.07-1.38-3Z" transform="translate(-246.58 2.14)"/><path class="cls-1" d="M1251.73,613.24l1.14,2-.32,3.87-1.66.18-1.28-.76.62-5Z" transform="translate(-246.58 2.14)"/><path class="cls-1" d="M1337.67,557l.19-7.77,2.82-6.61,5.39-3.64,4.55,7.92,4.59-.2,1.1-8.15,4.88-1.9,2.51,1.32,4.92,4,4.72,0,2.76,2.44.49,5.08,1.84,6.11-6.15,3.93-3.48,1.71-5.5-4.94-3-.66-.8-2.14-5.63,1-9.6-.66Z" transform="translate(-246.58 2.14)"/><path class="cls-1" d="M1302.15,810.55l-4.05,2.29-3.22-3.39-9.06-2.67-2.51-3.9-4.52-2.9-2.67,1.15-2-3.5-.21-2.69-3.39-4.61,2.27-2.65-.5-4,.73-3.51-.41-2.94,1-5.29-.31-3-1.86-5.8,2.8-1.53.49-2.8-.61-2.76,3.93-2.58,1.76-2.15,2.8-1.93.32-5.21,6.72,2.34,2.41-.58,4.78,1.13,7.6,3,2.68,6,5.14,1.29,8.06,2.78,6.1,3.29,2.79-1.72,2.75-3-1.34-5.11,1.8-3.27,4.12-3.17,3.94-.92,7.75,1.39,2,3,2.13,0,1.83,1.15,5.68.79,1.4,2.21-2.07,3.2.88,2.84-1.47,4.07,1.71,5.28V828h-6.58l-.07,2.54L1330.76,819l-22.83-11.8Z" transform="translate(-246.58 2.14)"/><path class="cls-1" d="M1209.19,746l-2-7.21-.34-4.19-2.16-4.44-2.49-.08-5.93-1.54-5.44.48-3.45-3-4.22,0-1.79,4.29-3.83,7.17-4.24,2.84-5.75,3.12-3.68,4.59-.77,3.54-2.17,5.76,1.43,8.23L1157.6,771l-2.87,1.74-4.51,4.43-5.32.71-2.88,2.47,0,0,25.54,0h0l0-7.66,9.24-4.82,5.72-1,4.68-1.77,2.19-3.3,6.69-2.62.25-4.94,3.31-.58,2.59-2.49,7.49-1.13,1-2.62Z" transform="translate(-246.58 2.14)"/><path class="cls-1" d="M1369.52,629.9l1.36-1.27,3.81-.85,4.22,2.67,2.35.33,2.59,2.29-.41,2.87,2.08,1.38.83,3.51,2,2.12-.41,1.24,1.07.84-1.52.61-3.37-.24-.56-1.15-1.2.66.4,1.48L1381.2,649l-1,2.8-1.44.89-1-3.73.6-3.52-.18-3.65-3.3-5-1.82-3.57-1.77-2.53Z" transform="translate(-246.58 2.14)"/><path class="cls-1" d="M1330.49,676.41l-.37-1.46-2.48,3.81.38,2.44-1.19-.59-1.61-2.51-2.47-1.54.63-1.31.84-4.29,1.86-1.82,1.07-.72,1.52,1.35.83,1.09,1.89.84,2.18,1.62-.47.67-1.07,1.73Z" transform="translate(-246.58 2.14)"/><path class="cls-1" d="M1500.75,1015.67l1.52,2.48,1.41,3.86.93,7.06,1.48,2.75-.57,2.83-1,1.75-2-3.47-1.08,1.75,1.1,4.39-.51,2.51-1.58,1.38-.36,5-2.26,7-2.82,8.33-3.54,11.59-2.19,8.6-2.59,7.25-4.65,1.49-5,2.66-3.3-1.6-4.54-2.26-1.58-3.3-.38-5.53-2-4.93-.53-4.43,1-4.42,2.63-1.06,0-2,2.73-4.6.52-3.85-1.33-2.86-1.08-3.78-.46-5.51,2-3.33.77-3.77,2.85-.21,3.19-1.22,2.12-1.07,2.52-.08,3.26-3.36,4.71-3.63,1.72-2.95-.78-2.5,2.43.7,3.16-4.07.1-3.5,1.9-2.61Z" transform="translate(-246.58 2.14)"/><path class="cls-1" d="M1335,681.37l.73.07.26-1.58,3.38-1.19,1.28-.29,1.95-.45,2.65-.13,2.87,2.47.4,5.05-1.09.25-.94,1.32-3.1-.15-2.18,1.66-3.75.66-2.37-1.83-.82-3.26Z" transform="translate(-246.58 2.14)"/><path class="cls-1" d="M1147.46,860.15l1.93-1.07,1-3.47,1.81-.14,4,1.64,3.23-1.16,2.21.39.86-1.31,23-.09,1.27-4.14-1-.74L1183,824.17l-2.76-26.66,8.76-.11L1208.26,811l19.31,13.37,1.36,2.84,3.56,1.74,2.66,1,.06,3.84,6.35-.59,0,13.78-3.13,4-.49,3.64-5.09.94-7.81.51-2.11,2.09-3.67.23-3.67,0-1.43-1.13-3.15.84-5.35,2.44-1.1,1.84-4.44,2.62-.78,1.51-2.4,1.19-2.76-.79-1.57,1.43-.84,4-4.55,4.82.14,2-1.57,2.45.38,3.36-2.36.86-1.33.73-.89-2.47-1.65.65-1-.12-1,1.69-4.43,0-1.58-.87-.75.52-1.74-1.66.3-1.73-.72-.67-1.22.57.23-1.89,1.17-1.49-2.35-2.43-.68-1.61-1.27-1.28-1.14-.15-1.38.82-1.85.78-1.57,1.25-2.45-.46-1.59-1.48-1-.19-1.49.77h-.91l-.33-2.13.26-1.82-.49-2.25-2.14-1.65-1.13-3.35Z" transform="translate(-246.58 2.14)"/><path class="cls-1" d="M1787,826.92l-3.34,2.63-4,.27-2.61,6.51-2.42,1.09,2.77,5.25L1781,847l2.35,3.92-2.1,5.14-2,1.09,1.36,3,3.82,4.66.66,3.27-.09,2.71,2.23,5.31-3.14,5.41-2.77,5.94-.55-4.29,1.75-4.44-1.92-3.43.46-6.35-2.32-3-1.87-7-1-7.45-2.48-4.92-3.77,3-6.5,4.22-3.21-.53-3.55-1.38,2-7.36-1.19-5.6-4.49-6.93.7-2.17-3.35-.78L1745.9,824l-.37-4.9,2,.92.12-4.39,2.83-1.46-.61-2.62,1.29-2.1.23-6.43,4.47,1.42,2.55-5.15.29-3,3.16-5.3-.17-3.63,7.41-4.42,4.09,1.16-.47-3.95,2-1.18-.43-2.44,3.34-.48,1.92,3.79,2.49,1.54.17,4.89-.23,5.24-5.42,5.27-.69,7.42,6.05-1,1.36,5.72,3.63,1.2-1.67,5.11,4.25,2.31,2.48,1.13,4.2-1.79.17,2.53-4.87,4-1.22,2.24Z" transform="translate(-246.58 2.14)"/><path class="cls-1" d="M1719.47,620.58l6-1.52,10.93-7.64,8.7-4.22,5,2.76,6,.13,3.83,4.17,5.71.32,8.28,2.23,5.57-6.2-2.33-5.3,5.93-9.52,6.41,3.82,5.2,1.08,6.73,2.35,1.09,6.78,8.13,3.76,5.41-1.65,7.25-1.17,5.73,1.18,5.61,4.27,3.47,4.5,5.31-.1,7.21,1.43,5.26-2.17,7.54-1.46,8.38-6.24,3.44,1,3,3,6.82-.74-2.78,6.63-4,8.63,1.48,3.48L1883,633l5.64,1.32,4.4-3.14,4.6,2.73,5.19,5.89-.63,3-4.52-.94-8.31,1.1-4,2.36-4.2,5.44-8.72,3.15-5.71,4.29-5.88-1.63-3.22-.73-3,5.18,1.83,3.06.93,2.61-4,2.65-4.11,4.19-6.69,2.73-8.58.29-9.25,2.68-6.66,4.11-2.54-2.37h-6.92l-8.47-4.68-5.65-1.15-7.62,1.08L1775,674.48l-6.31.18-3.36-4.63-2.61-7.29-3.54-.88-6.91-5-7.71-1.13-6.81-1.38-2.06-3.53,2.21-9.65-4-6.78-8.17-3.19-4.81-4.56Z" transform="translate(-246.58 2.14)"/><path class="cls-1" d="M1147.46,860.15l-3.78-4-3.46-4.34-3.8-1.57-2.74-1.75-3.2.07-2.79,1.29-2.84-.51-2,1.9-.5-3.19,1.6-2.94.71-5.62-.63-5.93-.69-3,.57-3-1.48-2.88-3-2.63,1.25-2,22.42,0-1.09-8.87,1.4-3.17,5.37-.56-.19-16,18.79.33,0-9.65L1189,797.4l-8.76.11,2.76,26.66,2.76,25.89,1,.74-1.27,4.14-23,.09-.86,1.31-2.21-.39-3.23,1.16-4-1.64-1.81.14-1,3.47Z" transform="translate(-246.58 2.14)"/><path class="cls-1" d="M1415,1010.15l-1.6,4.42,1.6,7.58,2-.08L1419,1024l2.4,4.24.49,7.58-2.48,1.25-1.75,4.12-3.73-3.67-.43-4.17,1.21-2.74-.33-2.36-2.26-1.48-1.58.54-3.29-2.82-3-1.52,1.73-5.43,1.81-2-1.1-4.83,1.15-4.7,1-1.56-1.45-4.91-2.71-2.57,5.62,1.08,1.15,1.59,1.94,2.69Z" transform="translate(-246.58 2.14)"/><path class="cls-1" d="M661.05,791.75l-2.22,5.54-1,4.5-.42,8.33-.55,3,1,3.35,1.77,3,1.15,4.73,3.8,4.52,1.33,3.44,2.24,3,6.08,1.59,2.37,2.51,5-1.68L686,837l4.29-1.08,3.6-1,3.64-2.46,1.37-3.52.47-5.1,1-1.78,3.87-1.6,6.06-1.42,5.07.22,3.47-.52,1.37,1.29-.19,2.94-3.08,3.62-1.36,3.68,1.06,1-.86,2.61-1.44,4.69L712.85,837l-1.2.1-1.08.07-2.06,3.62-1-.71-.69.28.05.88-5.3-.07h-5.34v3.36H693.6l2.13,2,2.12,1.38.63,1.28.93.36-.15,2-7.34,0-2.76,4.81.81,1.11-.66,1.38-.14,1.71-6.48-6.35-3-1.91-4.68-1.55-3.19.43-4.6,2.23-2.89.58-4-1.56-4.29-1.12-5.35-2.72-4.29-.84L639.93,845l-4.79-2.85-1.45-1.6-3.2-.35-5.86-1.9-2.38-2.74-6.15-3.41-2.87-3.81-1.36-3,1.91-.59-.59-1.74,1.31-1.58,0-2.11-1.93-2.75-.52-2.44-1.92-3.11-5-6.16-5.76-4.88-2.78-3.91-4.91-2.57L590.61,792l.88-3.92-2.92-1.49-3.38-3.1-1.43-4.48-3.08-.52-3.32-3.41L574.68,772l-.25-2L571.35,765l-2-5.05.09-2.55-4.14-2.65-1.91.29-3.27-1.84-.92,2.71,1,3.2.55,5,2,2.71,4.25,4.51.94,1.53.87.46.76,2.23,1-.09,1.15,4.16,1.74,1.64,1.22,2.27,3.6,3.25,1.9,5.9,1.7,2.76,1.59,3,.31,3.3,2.76.21,2.3,2.83,2.07,2.77-.14,1.11-2.4,2.27-1,0L585.74,807,582,803.49l-4.13-3-2.93-1.59.19-4.6-.87-3.43-2.73-2-3.93-2.84-.76.82-1.44-1.66-3.53-1.55-3.38-3.73.42-.48,2.36.36,2.12-2.41.22-2.91-4.41-4.65L555.84,768l-2.11-4.1-2.12-4.33L549,754.27l-2.32-6,6.5-.52,7.27-.73-.53,1.32,8.64,3.28,13.06,4.71,11.39,0h4.53l0-2.75h9.91l2.09,2.37,2.93,2.1,3.4,2.92,1.9,3.45,1.42,3.61,3,2,4.75,2,3.61-5.16,4.68-.13,4,2.61,2.87,4.46,2,3.8,3.37,3.67,1.26,4.48,1.61,3,4.46,2,4.07,1.39Z" transform="translate(-246.58 2.14)"/><path class="cls-1" d="M1795.74,908.84l.45,2.94,3.78-.69,1.87-2.34,1.32.53,3.38,3.45,2.4,3.83.33,3.84-.61,2.59.56,2,.42,3.37,2,1.57,2.25,5-.11,1.92-4,.38-5.42-4.21-6.77-4.52-.67-2.9-3.31-3.81-.79-4.72-2.07-3.11.63-4.16-1.26-2.43,1-1Zm100.43,9.86-4.22,1.95-5-1h-6.58l-2,6.48-2.21,2-2.93,7.92-4.67,1.21-5.42-1.59-2.74.49-3.34,2.88-3.65-.41-3.7,1.16-3.91-3.22-1-3.8,4.2,2,4.42-1.06,1.15-4.82,2.44-1.07,6.87-1.24,4.1-4.5,2.81-3.61,2.61,3,1.2-1.94,2.74.18.33-3.64.26-2.81,4.41-4,2.89-4.47,2.31,0,2.94,2.9.26,2.48,3.77,1.6,4.78,1.72-.41,2.23-3.84.28Z" transform="translate(-246.58 2.14)"/><path class="cls-1" d="M2166.15,1066.89l4.69,3.79,3,2.83-2.18,1.47-3.15-1.66-4.09-2.76-3.69-3.24-3.79-4.29-.79-2.06,2.46.09,3.21,2.06,2.52,2.07Z" transform="translate(-246.58 2.14)"/><path class="cls-1" d="M1229.47,875.79l.12-4-6.59-1.32-.18-2.83-3.23-3.82-.77-2.68.46-2.85,3.67-.23,2.11-2.09,7.81-.51,5.09-.94.49-3.64,3.13-4,0-13.78,8.07-2.69,16.58-12,19.61-11.74,9.06,2.67,3.22,3.39,4.05-2.29,1.41,9.55,2.14,1.58.09,1.94,2.38,2.08-1.25,2.61-2.2,12.21-.3,7.75-7.3,5.59-2.48,7.76,2.39,2.17,0,3.77,3.67.13-.57,2.75-1.61.34-.19,1.85-1.06.13-3.87-6.39-1.35-.24-4.48,3.27-4.43-1.7-3.08-.34-1.65.82L1275,868l-3.37,2.49-2.92.14-6.93-3-2.71,1.44-2.93-.1-2.14-2.21-5.74-2.18-6.15.69-1.49,1.27-.81,3.36-1.64,2.35-.4,5.19-4.36-3.34h-2Z" transform="translate(-246.58 2.14)"/><path class="cls-1" d="M1245.36,585.32l-.35,1.86,1,.32.43.83.17.76.8.28.06.41-.71.54-.79,0V591l.55.95-.79.92.8.26,1.61-1.57,1-1.45v-1l-.34-.68-.93-.47.21-1.06-.21-.94.85-2,.84-1.06,2.37-.86,4.76.27,1.07,3.23-1.43,8.63-1.45,3.49h-3.44l1,9.57-3.14-2.11-3.63-4-5.3,1.9-4.19-.72,1.43-2.52,1.87-2.47,2.62-2.55,1.54-4.27.5-4.46Z" transform="translate(-246.58 2.14)"/><path class="cls-1" d="M1378.37,356.64l17.9,12.74-7.37,4.55,6.27,10.44-9.74,6.51-4.62,1.48,2.42-11.42-7.34-6.64L1367,380l-2.81,11.95-5.46,7-6.15-3.82-7.47.79-6.36-8.48-3.43,4.26-3.55.66-.85,10.38-10.78-2.5-1.52,8.61-5.5,0-3.77,10.7-5.73,16.06-8.89,19.4,2.08,4.56-2,5.21-5.68-.22-3.71,12.06.35,16.42,3.65,6.08-1.89,13.73-4.76,7.79-2.53,6.42-3.84-6.84L1265.11,533l-7.63,2.54-7.92-5.54-2-12-1.81-27.06L1251,483l15.11-10.59L1277.4,459l10.47-19,13.76-28.1,9.59-11.58L1327,380.1l12.56-7.34,9.42.9,8.72-14.28,10.44.78Z" transform="translate(-246.58 2.14)"/><path class="cls-1" d="M1721.58,778.94l-.44,2.77.75,4.07-.65,2.52-4.77.1-6.89-1.48-4.42-.6-3.3-3.26-7.85-.83-7.47-3.6-5.39-3.17L1675.6,773l2.22-6.1,3.64-3,2.37-1.57,4.59,2,5.78,4.28,3.21.94,1.93,3.13,4.44,1.28,4.65,2.84,6.48,1.48Z" transform="translate(-246.58 2.14)"/><path class="cls-1" d="M2207.6,1199.9l1.29,3.12L2213,1200l1.65,3.2v3.21l-2.13,3.55-3.74,5.71-2.93,3.15,2.11,3.79-4.42.1-4.9,3-1.53,5.24-3.26,8.22-4.49,3.68-2.86,2.37-5.27-.18-3.7-2.73-6.23-.58-1-3,3.08-6,7.2-7.92,3.69-1.49,4.12-3,4.9-4.11,3.44-4,2.54-5.73,2.17-1.93.85-4.24,4-3.48Zm9.11-34.74,4.14,7.48.12-4.86,2.59,1.94.85,5.41,4.61,2.35,3.87.57,3.27-2.75,2.91.83-1.39,6.44-1.75,4.27-4.37-.15-1.53,2.24.54,3.19-.84,1.38-2.17,4-2.84,5.17-4.42,3-1-2-2.39-1.1,3.3-6.2-1.87-4.11-6.16-3,.16-2.67,4.13-2.56,1-5.6-.27-4.66-2.32-4.79.16-1.25-2.74-2.92-4.5-6.21-2.4-4.92,2.13-.54,3.11,3.85,4.46,1.81Z" transform="translate(-246.58 2.14)"/><path class="cls-1" d="M1554.08,821.28l-2.13,4.17-2.6-.32-1.19,1.45-.92,3.07.71,4-.54.74-2.64,0-3.57,2.25-.56,2.92-1.31,1.26-3.56-.05-2.24,1.51,0,2.41-2.77,1.65-3.16-.56-3.83,2-2.65.34-1.86-4.16-4.48-9.88,17.17-6,3.82-12.19-2.62-4.36.15-2.49,1.66-2.56,0-2.55,2.59-1.22-1-.87.47-4.08,2.92,0,2.57,4.28,3.19,2.26,4.2.81,3.39,1.13,2.59,3.56,1.54,2,2,.78V814l-2.09,3.66-.91,1.72ZM1540,791.59l-.75,1.14-1.09-2.15,1.67-2.17.71.56Z" transform="translate(-246.58 2.14)"/><path class="cls-1" d="M771.3,903l-1.91-1.66-1.23-3.1,1.41-1.53-1.45-.4-1.06-1.9-2.86-1.59-2.5.36-1.16,2-2.32,1.45-1.24.2-.56,1.19,2.73,3.12-1.57.73-.82.85-2.67.29-1-3.42-.74,1-1.89-.34-1.16-2.3-2.34-.39-1.49-.67H743l-.17,1.25-.66-.87.3-1.14L743,895l-.23-1,.86-.68-1.19-.86,0-2.31,2.21-.52,2.06,2.07-.12,1.22,2.28.26.55-.47,1.57,1.41,2.82-.41,2.43-1.46,3.48-1.16,2-1.72,3.16.34-.21.56,3.19.2,2.55,1,1.87,1.73,2.15,1.59-.7.84,1.33,3.38-1.08,1.71-1.84-.41Z" transform="translate(-246.58 2.14)"/><path class="cls-1" d="M818.76,1045.78l-1.54,3.07-2.94,1.53-5.74-3.44-.5-2.45-11.35-6-10.26-6.46-4.42-3.63-2.37-4.85.94-1.69-4.85-7.66-5.64-10.7-5.41-11.48-2.34-2.61-1.8-4.23-4.45-3.74L752,979.16l1.86-2.56-2.78-5.44,1.78-4,4.57-3.59.67,2.37-1.63,1.35.16,2.09,2.36-.45,2.31.62,2.41,2.88,3.23-2.35,1.09-3.85,3.5-5,6.89-2.25,6.24-6,1.78-3.69-.8-4.32,1.53-.54,3.81,2.69,1.82,2.68,2.65,1.47,3.38,6,4.26.72,3.15-1.51,2.07,1,3.44-.49,4.38,2.66-3.69,5.8,1.71.14,2.86,3-5.16-.27-.76.86-4.7,1.09-6.54,3.89-.42,2.66-1.46,2,.57,3.1-3.46,1.65v2.42l-1.51,1.05,2.38,5.17,3.18,3.5-1.21,2.48,3.8.33,2.17,3.08,5.05.15,4.69-3.4-.38,8.78,2.61.66,3.23-1,4.94,9.35-1.22,2-.29,4.11-.11,5-2.24,2.94,1,2.18-1.31,2,2.46,5Z" transform="translate(-246.58 2.14)"/><path class="cls-1" d="M2109.47,983.07l-1.6.57-2.48-2.2-2.51-3.63-1.23-4.35.8-.56.61,1.7,1.74,1.3,2.77,3.62,2.7,1.94Zm-22.3-7.68-3,.47-.91,1.6-3.13,1.39-2.93,1.34h-3l-4.7-1.66-3.27-1.59.47-1.77,5.14.84,3.13-.45.86-2.74.82-.14.56,3,3.27-.43,1.61-2,3.2-2-.63-3.36,3.43-.11,1.15.93-.12,3.17Zm-27.43,10.93,5.11,3.77,3.72,6.1,3.27-.2-.23,2.56,4.42,1-1.71,1.08,6.08,2.43-.64,1.68-3.79.4-1.4-1.5-4.92-.65-5.78-.87-4.46-3.68-3.25-3.17-3-5-7.47-2.51-4.85,1.64-3.49,1.89.73,4.25-4.5,2-3.2-1-5.92-.24-.1-18.69-.1-18.59,9.94,3.92,10.58,3.26,3.94,2.92,3.19,2.87.87,3.36,9.54,3.54,1.39,3-5.26.62Zm34.05-16.51-1.79,1.52-1.08-3.37-1.33-2.2-2.59-1.87-3.26-2.43-4.13-1.67,1.59-1.38,3.09,1.6,1.94,1.25,2.41,1.36,2.29,2.4,2.17,1.82Z" transform="translate(-246.58 2.14)"/><path class="cls-1" d="M1940.58,896.17l.58,3.82.34,3.21-2,5.24-2.09-5.83-2.68,2.9,1.83,4.22-1.64,2.68-6.74-3.32-1.61-4.14,1.75-2.73-3.63-2.71-1.79,2.38-2.7-.22-4.23,3.2-1-1.68,2.25-4.84,3.6-1.61,3.12-2.17,2,2.6,4.35-1.57.93-2.57,4.05-.15-.34-4.46,4.64,2.73.48,2.9Zm-13.7-10.75-2.06,1.9L1923,891l-1.8,1.7-3.53-4,1.18-1.55,1.44-1.62.63-3.59,3.16-.34-.93,3.9,4.24-5.59ZM1895.52,891l-7.62,5.46,2.81-4,4.13-3.56,3.44-4,3-5.75,1,4.72-3.78,3.19Zm19.34-14.9,3.44,1.79h3.64l-.11,2.42-2.65,2.46-3.64,1.74-.2-2.69.4-3Zm20.72-1.58,1.61,6.48-4.42-1.54.12,1.95,1.4,3.57-2.72,1.3-.24-4.07-1.72-.3-.9-3.51,3.37.46-.08-2.2-3.49-4.44,5.49.13Zm-22.76-5.29-1.52,5-2.45-2.9-2.92-4.45,4.9.21Zm-1.18-32.14,3.53,1.71,1.77-1.56.52,1.53-.94,2.48,2,4.27-1.51,4.94-3.37,2-.9,4.76,1.28,4.68,3,.65,2.53-.69,7.15,3.25-.54,3.18,1.87,1.4-.6,2.69-4.46-2.86-2.12-3.07-1.47,2.14-3.65-3.5-5.2.87-2.85-1.3.3-2.42,1.78-1.49-1.7-1.36-.74,2.12-2.83-3.38-.86-2.57-.21-5.66,2.31,1.95.59-9.3,1.86-5.43Z" transform="translate(-246.58 2.14)"/><path class="cls-1" d="M1303.1,604.44l-2.35-5.85.45-3.19-1.42-5L1297.7,587l1.6-2.54L1298,579.6l3.91-2.84,8.94-4.53,7.2-3.34,5.72,1.67.43,2.41,5.52.12,7,1.11,10.53-.14,2.93,1,1.38,3,.25,4.27,1.58,3.63,0,3.77-3.43,1.92,1.76,4.32.11,4.11,2.88,8-.61,2.52-2.84,1L1346,619l1.48,3.93-1.25-.51-5.44-3.36-4.12,1.24-2.71-.9-3.38,1.88-2.89-3.11-2.35,1.19-.32-.53-2.64-4.35-4.25-.54-.55-2.79-3.92-1-.86,2.31-3.11-1.85.36-2.47-4.28-.79Z" transform="translate(-246.58 2.14)"/><path class="cls-1" d="M1647.38,716.29l4.23,3.32,1.69,5.43,9.42,2.84-5.53,5.85-6.38,1-8.69-1.69-2.8,3,2,6,2,4.6L1648,750l-4.88,3.88.09,4.76-5.56,6.63-3.59,6.64-6,6.79-6.65-.49-6.31,6.72,3.75,2.87.65,4.88,3.22,3.2,1.13,5.38-12.6,0-3.81,4.16-4.19-1.57-1.71-4.49-4.42-4.79-10.55,1.19-9.3.11-8.06.89,2.15-7.34,8.26-3.29-.47-2.94-2.74-1-.16-5.67-5.47-2.85-2.31-3.93-2.83-3.44,9.59,3.34,5.73-1,3.42.83,1.16-1.43,4,.58,7.43-2.73.21-5.61,3.18-3.77h4.27l.62-1.86,4.38-.88,2.12.63,2.23-1.89-.31-4,2.43-4.09,3.64-1.73-2.25-4.53,5.45.22,1.57-2.48-.24-2.66,2.85-2.92-.65-3.48-1.35-3,3.34-3.08,6.15-1.49,6.57-.83,2.91-1.31Z" transform="translate(-246.58 2.14)"/><path class="cls-1" d="M837.69,837l2.93.53,1,1.19-1.46,1.51-4.31,0-3.35.21-.33-2.56L833,837Z" transform="translate(-246.58 2.14)"/><path class="cls-1" d="M1420.61,749.18v4.11l-.84,2-2.7.91.25-1.76,1.46-.92-1.43-.75,1.19-4.49Z" transform="translate(-246.58 2.14)"/><path class="cls-1" d="M1165.41,681.18l2.08-1.95,2.34-1.12,1.43,3.75h3.38l1-1,3.34.27,1.6,3.82-2.65,2.06-.07,5.87-.93,1.09-.23,3.52-2.47.61,2.29,4.42-1.58,4.79,2,2.16-.78,2-2.13,2.7.48,2.37-2.3,1.85-3-1-3,.78.87-5.6-.53-4.45-2.57-.67-1.36-2.76.45-4.81,2.28-2.68.41-3,1.19-4.51-.12-3.2-1.15-2.73Z" transform="translate(-246.58 2.14)"/><path class="cls-1" d="M858.29,1074.05l2.25-7.33.15-3.27,2.74-5.33,10-1.76,5.31.08,5.34,3.09.1,1.87,1.69,3.38-.38,8.3,6,1.18,2.34-1.21,3.86,1.67,1.08,1.84.53,5.67.67,2.39,2.13.28,2.15-1,2.06,1.13v3.44l-.78,3.71-1.12,3.64-.94,5.6-5.19,4.89-4.53,1-6.43-1-5.77-1.74,5.64-9.66-.83-2.78-5.89-2.46-7-4.61-4.68-.95Z" transform="translate(-246.58 2.14)"/><path class="cls-1" d="M1508,798.78l-.38-4.58,1.54-3.31,1.56-.69,1.74,2,.1,3.69-1.25,3.69-1.58.45Z" transform="translate(-246.58 2.14)"/><path class="cls-1" d="M1347.14,632.79l2.47-1.83,3.54.95,3.67,0,2.66,2.08,2-1.31,4.23-.82,1.44-2h2.42l1.74.83,1.77,2.53,1.82,3.57,3.3,5,.18,3.65-.6,3.52,1,3.73,2.55,1.49,2.69-1.3,2.6,1.39.13,2.09-2.78,1.73-1.74-.75-1.6,9.62-3.36-.83-4.17-2.89-6.74,1.85-2.84,2-8.4-.42-4.4-1.23-2.22.58-1.65-3.27-1-1.39,1.32-1.35-1.41-1-1.8,1.79-3.34-2.33-.44-3.32-3.49-1.91-.64-2.59-3.11-3.23,4.59-1.55,3.46-5.64,2.71-5.71Z" transform="translate(-246.58 2.14)"/><path class="cls-1" d="M1336.63,653.29l3.49,1.91.44,3.32,3.34,2.33,1.8-1.79,1.41,1-1.32,1.35,1,1.39-1.41,1.81.51,2.89,2.79,3.39-2.19,2.44-1,2.47.62.92-.94,1.09-2.65.13-1.95.45-.19-.58.68-.92.64-1.89-.81,0-1.11-1.44-.94-.37-.75-1.24-1.07-.49-.81-1.1-1,.43-.79,2.6-1.37.56.47-.67-2.18-1.62-1.89-.84-.83-1.09-1.52-1.35,1.35-.35.83-3.71-2.76-3.07,1.43-3.52-2.07,0,2.2-3-1.82-2.31-1.39-3.17,4.39-2.16,3.57.36,3.11,3.23Z" transform="translate(-246.58 2.14)"/><path class="cls-1" d="M2305.37,438.61l-5.67,6.07-9.39,1.43-.14,13.19-2.29,2.75-5.36-.39-4.37-4.63-7.61-3.91-1.28-5.9-5.81-2.25-6.51,1.79-3.11-4.84,1.24-5.21-6.85,3.34,2.58,6.52-3.25,5.78,0,.08-7.36,5.89-7.42-1,5.16,7L2241.3,475l2.65,3.4.66,5.17-1.48,3.27-10.67-2.69-16,9.21-5.09,1.41-8.76,8.36-8.31,7.16-2.1,5.21-8.19-8-14.92,9-2.6-4.24-5.51,4.88-7.66-1.55-1.84,7.41-6.87,10.65.2,4.37,6.52,2.39-.76,15.23-5.32.38-2.45,8.48,2.38,4.3-10,5-2,11-8.53,2.32-1.72,9.52-8.25,8.54-2.11-6.3-2.46-13.67-3.19-21.73,2.75-14.2,4.83-6.27.3-5,8.89-2.4,10.23-13.85,9.85-11.69,10.29-9.33,4.61-17.08-7,1-3.44,10.05-14.52,13-4.69-14.58-14.77,4.08L2100,516.89l4.72,6.9-12.77,2.89-8.85,1.14.41-8.05-8.9-1.72-7.09,5.52-17.5-1.92L2031.15,525l-18.55,21.09-21.93,24,9,1.25,2.82,6.12,5.56,2.16,3.66-4.86,6.28.64,8.27,10.6.19,8-4.47,9.21-.48,10.75-2.59,14-8.63,12.28-1.91,5.75-7.77,9.52-7.72,9.24-3.69,4.66-7.63,4.59-3.61.1-3.6-3.8-7.68,5.7-.9,2.57-.8-1.35,0-3.94,2.92-.21.83-9.29-1.51-6.86,4.91-2.85,7,1.43,3.85-7.94,2-9.11,2.22-3.08,3-7.68-9.46,2.53-5,3.36H1967l-2.32-8-6.78-6.2-10-2.81-2.12-8.75-2-5.58-2.14-3.95-3.54-9.42-5-3.49-8.56-2.85-7.59.26-7.12,1.73-4.72,4.72,3.14,2.24.07,5.15-3.19,3-5.16,9.64,0,3.94-8.07,5.59-6.87-3.33-6.83.74-3-3-3.43-1-8.39,6.25-7.53,1.45-5.26,2.17-7.21-1.42-5.31.09-3.48-4.5-5.6-4.27-5.74-1.18-7.24,1.17-5.41,1.65-8.14-3.76L1801.4,603l-6.73-2.35-5.19-1.08-6.42-3.82-5.92,9.52,2.32,5.31-5.57,6.19-8.27-2.23-5.72-.31-3.82-4.17-6-.14-5-2.76-8.71,4.23-10.92,7.63-6,1.52-2.24.72-3-5.38-7.37,1.18-2.44-3.76-4-1.73-2.75-5.2-3.16-1.63-8.23,2.33-7.89-5.24-3,4.77L1662.5,583l-7.3-7.47,2.09-3.07L1643,581.63l-5.49.54.47-5.27-7.35-3.33-6,2.38-1.8-10.23-10.29-2.16-5.15,4.15L1593,571.36l-2.8,2.43-21.42,3.4-2.62,3.3,4.13,6.55-5.5,2.46,1.08,2.56-5.5,4.54,9.28,6.32-1.43,4.3-8-.39-1.67,2.67-7.32-4.68-9.07.19-6.08,3.81-6.78-3.66-12.61-6.33-9,.24-11.81,9.9-.72,6.52-5.88-5.17-4.57,9.74,1.67,1.78-3.3,6.56,4.86,5.8,4.25-.24,3.64,5.64-.58,4.29,2.91,1.34-2.61,4.88-5.55,1.35-5.69,8.34,5.21,7.55-.57,5.28,6.25,9.09-3.41,3.08-1,1.93-2.53-.52-3.93-4.63-1.61-.25-3.6-1.78-1.75-3.17-5.34-1.62-3.47,1.22-1-1.44-7.79-3.74-8.43-1.27-4.84-1.34-.7.93-7.3-6.69-6.53-3-4.94-4.74,4.16-1.3,4.76-6.84-3.21-3.28,8.44-3.4-.15-1.84-5.14,1.35.18-3.74,3-2.36,5.54-.63.9-2.84-1.27-4.76,2.33-4.55-.07-2.58-8.44-2.88-3.34.1-3.53-4.18-4.4,1.42-7.27-3.15.13-1.77-2-3.93-4.56-.44-.48-2.85,1.43-1.86-3.66-5.26-5.93.9-1.74-.46-1.45,2.11-2.13-.37-1.41-6-1.34-3.14,1.1-.89,4.62.33,2.22-2.09-1.64-2.55-3.87-1.7.35-1.75-2.33-1.78-3.59-6.44,1.23-2.68-.56-4.71-5.6-2.42-3,1.21-.81-2.52-6-2.56-1.84-6.11-.49-5.08-2.76-2.44,2.46-3.39-1.7-10.13,4.07-6.4-.86-1.95,6.5-6.27-6-5.48,12.25-15.12,5.32-7.05,2.15-6.34-8.47-8.69,2.34-8.46-5.15-9.91,3.85-11.77-6.66-16.25,5.29-11.18L1380,403.39l.83-11,4.63-1.48,9.74-6.51,5.91-5.74,9.4,9.92,15.68,3.83L1447.78,410l4.4,7.17.38,9.79-6.36,7.54-9.35,3.77-25.55-10.85-4.21,1.84,9.34,10.41.36,6.44.38,13.78,7.37,4,4.47,3.38.74-6.34-3.45-5.72,3.64-5.12,13.84,8.37,4.82-3.25-3.85-10,13.34-13.76,5.29.82,5.34,5,3.34-9.82-4.78-8.74,2.81-9-4.21-9.58,16,5,3.27,8.54-7.25,1.85,0,8.25,4.51,5,8.84-3.14,1.4-9.42,12-7.19,20-13.36,4.31.78-5.64,9.47,7.1,1.6,4.1-5.27,10.73-.43,8.5-6.52,6.53,9.43,6.5-10.38-6-9.35,3-5.43,16.91,5,7.92,5.08,20.75,18,3.83-8.12-5.82-8.39-.17-3.43-6.9-1.59,1.89-7.82L1599.1,365l-.18-5.59,10.57-16.31,3.76-17.19,4.25-3.83,15.16,5.13,1.19,10.58-5.42,14.87,3.56,5.68,1.84,12.12-1.3,22.61,6.31,9.65L1636.39,413l-11.22,20.82,6.55,2.09,2.27-5.13,6.3-3.71,1.52-7.25,5-7.13-3.34-8.69,2.67-10.38-6.26-1.32-1.37-9,4.57-16.9L1635.6,352l10.24-12.33-1.32-13.52,2.86-.44,3,10.6L1648.13,354l6.12,3.25-2.61-13,9.58-7.31,11.88-1,10.58,10.57-5.09-15.56-.57-21,10-4.13,13.77.91,12.4-2.7-4.65-11,6.62-14.33,6.58-.61,11.13-11.26,15.12-3.09,1.91-6.43,15-2.21,4.68,5.32,12.85-12.74,10.52.41,1.57-10.69,5.47-10.89,13.52-10.85,9.82,8.59-7.8,6.39,13,3.92,1.54,12.32,5.24-6,16.73.33,12.9,11.93,4.6,8.88-1.42,12-6.34,6.62-15,12.08-4.3,6.28,7.1,2.93,8.47,5.21,5.15-3.9,2.92,13.05,2.51-5.22,9.16-3.22,18.36,3.36,1.4,9.34,23.93,2.92.33-15.25,12.15,3.55,9.14-.11,9.24,10.49,2.64,12.33-3.39,7.83,7.19,14.26,9,7.13,5.52-18.74,9.19,8.16,9.75-4.85,11.08,5.54,4.22-5.05,9.36,2.54-4.13-17.15,7.56-8.3,51.7,12.37,4.87,10.93,15,13.59,23.12-3.32,11.39,2.89,4.77,7.14-.7,12.28,7.05,4.67,7.67-3.35,10.15-.43,10.81,3.22,10.85-1.81,10,14.27,7.09-5.06-4.63-10.36,2.55-7.39,18.26,4.67,11.91-1,16.46,7.85,8,7,14,12,15,15-.49,9.06,3.86,3.56-1.33-10.5,15.54,2.18ZM2045.21,623.38l-5.76-15.69-2.36-9.21.15-9.18-2-9.19-1.48-6.43-2.55,1.37,2.27,4.5L2028.2,584l-.51,12.85,3.36,9-.25,11.94-1.33,6.61.65,9.27-.64,8.19,1.07,6.94,3.75-6.39,4.34,5,.16-5.79-5.58-8.64,3.52-12.46Zm-700.33-56.12-6-1.75-7.89,3.24-1.31,4.34,7,1.11,10.53-.15-.46-2.5.61-2.71Zm902.67-204.41,7.48-1.06,5.89-4.22.49-2.42-8.28-5.14-4.85,0-.73.75-7.3,7.45,1,5.56Zm-224.34-55.3-5.43,8,1,1.06,11.73,2.21,8.68-.14-.7-5.24-8.13-7.78Zm50.18-19.46,6.61-8.67-14.36-5.87L2055,270.12l-1.37,7.32,10.64,8.71Zm-51.31-3.46,21.1.61,4.51-16.63-20.7-12.4-15.11-1-7.56,4.45-3.07,15.83,11.34,14.31Zm-504.53,53-5.86,4,.84,9.86,10.36,4.8,1.52,7.79,18.71,2.25,3.38-1.52-11-14.5-1.17-15.35,9-18.67,8.53-20,17.78-20.76,17.48-10.9,20.29-11.72,3.84-7.57-4-9.85-11.15,3.27-9.8,9.17-19,4.54-18.9,15.13-12.81,11.94,1.55,9.94-13.7,18.44,5.26,2.49-11.35,16.88Zm301.09-138.72,1.7-11.68-14.51-17-4.3-2-4.7,3.47-10.46,38ZM1483.34,139l6.2,7.91,6.69-5.5.8-5.55,5.15-2.59,7.68-4.57,2.22-5.36-8.5-7.85-5.39,5.93-3.29,8.42-1.17-9.49-8.7.43-11.17,6.43,12.74,1.07Zm268,26.63,9.5,11.7,15.94,8.58,12.49-3.68,1.41-27.81-13.18-32.75-11.12-18.42L1754,111.68l-14.87,24.16,7.81,6.67Z" transform="translate(-246.58 2.14)"/><path class="cls-1" d="M1391.27,950.64l2.27,3.22-.33,3.34-1.65.72-3-.37-1.76,3.24-3.47-.45.53-3.11.78-.44.21-3.38,1.65-1.59,1.39.58Z" transform="translate(-246.58 2.14)"/><path class="cls-1" d="M1462,849.93l-.74-2.53-1.73-1.79-.44-2.38-2.95-2.14-3.05-5-1.62-4.91-4-4.16-2.55-1-3.79-5.8-.66-4.26.24-3.64-3.28-6.87L1434.8,803l-3.09-1.29-1.88-3.59.31-1.41-1.59-3.27-1.67-1.41-2.24-4.72-3.48-5.15-2.92-4.42-2.85,0,.89-3.55.25-2.28.71-2.6,6.37,1,2.47-2,1.37-2.36,4.37-.91.94-2.21,1.9-1.12-5.71-6.65,11.47-3.36,1.09-1,6.89,1.82,8.53,4.68,16.14,13.25,10.65.52,5.1.63,1.42,3.1,4-.17,2.24,5.57,2.82,1.46,1,2.25,3.9,2.69.35,2.62-.57,2.11.72,2.13,1.65,1.76.76,2.07.86,1.54,1.73,1.24,1.58-.45,1.09,2.39.22,1.44,2.19,6.29L1532,812.8l1.15-1.3,2.63,4.36L1532,828.05l-17.17,6-16.51,2.31-5.34,2.69-4.1,6.27-2.67,1-1.44-2-2.19.3-5.53-.6-1-.59-6.61.13-1.55.54-2.35-1.55-1.52,2.93.59,2.51Z" transform="translate(-246.58 2.14)"/><path class="cls-1" d="M2145.19,1004.14l1.6,2-4,0-2.17-3.56,3.42,1.4Zm-7.25-3.52-2.23.12-3.51-.58-1.2-.89.36-2.29,3.78.91,1.86,1.21Zm4.74-1.58-.87,1.07-4.24-5-1.19-3.44h1.95l2.06,4.61Zm-10.34-7.27.25,1.16-4.49-2.44-3.13-2.06-2.15-1.91.85-.59,2.63,1.38L2131,990ZM2119,986.09l-1.14.33-2.51-1.31-2.35-2.35.3-1,3.42,2.42Z" transform="translate(-246.58 2.14)"/><path class="cls-1" d="M1411.56,890.13l-.8-.12.1-2.87-.69-2-2.94-2.29-.69-4.18.69-4.29-2.66-.4-.39,1.3-3.44.3,1.38,1.7.49,3.48-3.15,3.18-2.85,4.17-2.95.6-4.81-3.38-2.16,1.2-.59,1.68-2.95,1.09-.2,1.19h-5.7l-.78-1.19-4.13-.2-2.06,1-1.58-.49-3-3.37-1-1.59-4.13.79-1.57,2.68-1.47,5.15-2,1.08-1.76.63-.46-.27-2-1.66-.36-1.79.93-2.39,0-2.36-3.3-3.61-.65-2.49.07-1.4-2.11-1.71-.06-3.38-1.2-2.24-2,.33.58-2.14,1.48-2.43-.65-2.43,1.88-1.79-1.19-1.38,1.51-3.63,2.62-4.34,4.93.41-.28-23.7.07-2.54h6.58V815.86h67.93l1.85,6-1.25,1.11.83,6.25,2.1,7.19,2.18,1.48,3.13,2.21-2.9,3.41-4.21,1-1.8,1.83-.57,3.94-2.46,8.68.6,2.35-.91,5-2.33,5.75L1419,875l-2.45,4.43-.58,2.37-2.71,1.62-1.69,6.05Z" transform="translate(-246.58 2.14)"/><path class="cls-1" d="M1344.12,442.15l-5.55,9.58.89,8.2-9.1,10.49-11.06,10.9-4.17,17.17,4.08,8.31,5.47,6.41-5.26,12.71-6,2.58-2.18,18-3.26,9.71-6.94-1-3.24,8.06-6.63.46-1.82-9.61-4.79-11.87L1280.26,527l2.52-6.42,4.76-7.78,1.9-13.74-3.66-6.08-.35-16.42,3.72-12.06,5.68.22,2-5.21-2.09-4.56,8.89-19.4,5.73-16.06,3.78-10.7,5.49,0,1.52-8.61,10.79,2.5.84-10.38,3.55-.66,7.63,7.77,8.93,10.52.15,22.7,1.94,5.51Z" transform="translate(-246.58 2.14)"/><path class="cls-1" d="M1296.17,644.32l4.73.64,2.88-1.88,5-.21,1.09-1.4,1,.09,1.12,2.8-4.56,2.2-.56,3.32-2,.84,0,2.28-2.24-.16-2-1.33-1,1.38-4-.28,1.28-.74-1.37-3.49Z" transform="translate(-246.58 2.14)"/><path class="cls-1" d="M1358.67,211.44l-12.79,10.94-10.1-6.16,4-7-3.46-8.86,11.87-5.68,2.27,10.56ZM1321.61,157,1340.46,180l-14.41,11.56-3.18,20.59-5,5.08-2.73,21.45-6.9,1-12.31-15.61,5.2-9.44-8.59-7.88-11.15-24.14-4.45-24.06,15.6-11.61,3.14,11.35,8.15-.44,2.18-11.1,8.4-1.15Zm41.2-23.4L1374,145.42l-8.49,17.39-16.61,3.69-16.88-5.23-1-8.82-8.21-.57-6.27-15.27,17.68-9.64,8.31,8.32,5.79-10.4Z" transform="translate(-246.58 2.14)"/><path class="cls-1" d="M1325.06,618.83l.32.53,2.35-1.19,2.89,3.11,3.38-1.88,2.71.9,4.12-1.24,5.44,3.36-1.59,2.27-1.12,3.48-1.22.88-6.13-2.62-1.88.53-1.34,2-2.69,1.07-.62-.55-2.78,1.33-2.28.26-.46,1.71-4.8,1-2.12-.93-2.91-2.18-.57-3,.46-1.1.81-1.9,2.54.15,2-.9.16-.81,1.09-.41.38-2,1.31-.38.89-1.58Z" transform="translate(-246.58 2.14)"/><path class="cls-1" d="M1151.65,905.51l-1.54-.42-4.12-2.31-3-3.07-1-2.1-.7-4.25,3.06-2.53.66-1.6,1-1.25,1.58-.13,1.33-1.09h4.58l1.59,2.06,1.24,2.43-.18,1.67.92,1.51-.07,2.11,1.58-.33-2.67,2.68-2.58,3.12-.3,1.66Z" transform="translate(-246.58 2.14)"/><path class="cls-1" d="M1121.45,866.14l-2.36-4.56-2.85-2.09,2.51-1.12,2.78-4.14,1.36-3,2-1.9,2.84.51,2.79-1.29,3.2-.07,2.74,1.75,3.8,1.57,3.46,4.34,3.78,4,.26,3.65,1.13,3.35,2.14,1.65.49,2.25-.26,1.82-.83.33-3.12-.46-.43.64-1.26.14-4.11-1.43-2.77-.06-10.58-.24-1.53.66-1.9-.19-3,1-.94-4.47,5.21.12,1.38-.82,1,0,2.12-1.35,2.46,1.24,2.49.1,2.48-1.31-1.16-1.69-1.89,1-1.77,0-2.26-1.44-1.82.09-1.29,1.39Z" transform="translate(-246.58 2.14)"/><path class="cls-1" d="M1509.85,876.91l-.13-1.61-2.17,0-2.71,2-3,.58-2.64.86-1.83.12-3.26.2-2,1.06-2.84.38-5,1.8-6.24.69-5.39,1.48-2.84,0L1467.1,882l-1.12-2.4-1.86-1.07-2.11,3.1-1.25,2.06,2.12,3.18,2.11,2.78,2.18,2,18.72,6.83,4.82,0-16.18,17.19-7.46.25-5.1,4-3.67.1-1.57,1.8-5,6.46.07,20.72,3.39,4.7,1.29-1.35,1.32-3,6.27-6.89,5.33-4.32,8.57-5.65,5.72-4.61,6.74-7.77,4.88-6.39,4.92-8.38,3.54-7.33,2.75-6.42,1.61-6.24,1.21-2.09,0-3Z" transform="translate(-246.58 2.14)"/><path class="cls-1" d="M890,910.17l6.86,1.14.61-1,4.63-.41,6.15,1.53-3,4.91.45,3.91,2.25,3.37-1,2.46-.5,2.6L905,931l-3.28-1.2-2.7.58-2.31-.51-.57,1.65,1,1.13-.52,1.17-3.11-.47-3.5-4.95-.75-3.21h-1.83l-2.54-4.14,1.06-2.94-.31-1.35,3.47-1.49Z" transform="translate(-246.58 2.14)"/><path class="cls-1" d="M1411.56,890.13l.06,4.49-.85,1.75-3,.15-2,3.27,3.52.41,2.89,2.79,1,2.29,2.61,1.33,3.39,6.22-3.88,3.77-3.53,3.4-3.52,2.63-4,0-4.61,1.34-3.64-1.28-2.36,1.55-5-3.78-1.36-2.44-3.19,1.21-2.64-.38-1.53,1-2.58-.69-3.46-4.71-.92-1.81-4.28-2.26-1.45-3.44-2.38-2.47-3.85-3-.06-1.86-3.13-2.32-3.9-2.25,1.76-.63,2-1.08,1.47-5.15,1.57-2.68,4.13-.79,1,1.59,3,3.37,1.58.49,2.06-1,4.13.2.78,1.19h5.7l.2-1.19,2.95-1.09.59-1.68,2.16-1.2,4.81,3.38,2.95-.6,2.85-4.17,3.15-3.18-.49-3.48-1.38-1.7,3.44-.3.39-1.3,2.66.4-.69,4.29.69,4.18,2.94,2.29.69,2-.1,2.87Z" transform="translate(-246.58 2.14)"/><path class="cls-1" d="M714.56,867.37l-.64,1.38-3.32-.09-2.06-.56-2.36-1.16-3.18-.36-1.63-1.26.18-.86,2-1.48,1.08-.64-.31-.7,1.34-.36,1.69.5,1.23,1.17,1.73.94.22.79L713,864l1.18.42.77.63Z" transform="translate(-246.58 2.14)"/><path class="cls-1" d="M1439.2,742.5,1428,749.72l-6.38-2.67-.11,0,.78-1-.09-2.78,1.41-3.74,3.12-2.6-.94-2.71-2.57-.35-.54-5.32,1.4-2.89,1.53-1.54,1.54-1.54.31-4,1.87,1.38,6.31-2,3,1.34,4.71,0,6.59-2.68,3.08.12,6.51-1.11-2.93,4.45-3.13,1.75.54,5.15-2.17,8.41Z" transform="translate(-246.58 2.14)"/><path class="cls-1" d="M1400.73,1102.12l-1.17,2.84-3.35.69-3.42-3.47,0-2.2,1.56-2.38.54-1.84,1.66-.45,2.89,1.15.85,2.85Z" transform="translate(-246.58 2.14)"/><path class="cls-1" d="M1300.11,870.44l.57-2.75-3.67-.13,0-3.77-2.39-2.17,2.48-7.76,7.3-5.59.3-7.75,2.2-12.21,1.25-2.61-2.38-2.08-.09-1.94-2.14-1.58-1.41-9.55,5.78-3.39,22.83,11.8,22.83,11.63.28,23.7-4.93-.41-2.62,4.34-1.51,3.63,1.19,1.38-1.88,1.79.65,2.43-1.48,2.43-.58,2.14,2-.33,1.2,2.24.06,3.38,2.11,1.71-.07,1.4-3.62,1-2.91,2.35-4.14,6.3-5.38,2.67-5.53-.36-1.62.53.57,2-3,2-2.43,2.24-7.2,2.19-1.43-1.3-.95-.11-1.06,1.48-4.73.43.9-1.55-1.81-4-.8-2.38-2.5-1-3.38-3.36,1.25-2.73,2.61.58,1.61-.41,3.2.06-3.12-5.26.21-3.85-.38-3.86Z" transform="translate(-246.58 2.14)"/><path class="cls-1" d="M1611.75,1262l3.7,2.73,5.4,1.09.21,1.66-1.61,4-8.78.57-.15-4.68.85-3.59Z" transform="translate(-246.58 2.14)"/><path class="cls-1" d="M1227.81,909.2l-4.61,1.22-1.28-2-1.52-3.63-.46-2.85,1.27-5.17-1.44-2.1-.54-4.54v-4.19l-2.39-3,.42-1.81,5,.13-.73,3,1.75,1.71,2,2,.22,2.83,1.15,1.19-.26,13.19Z" transform="translate(-246.58 2.14)"/><path class="cls-1" d="M1804.38,874.36l-5.14-2.67-4.89.11.84-4.59-5,0-.46,6.42-3.09,8.48-1.86,5.11.39,4.17,3.73.18,2.33,5.26,1,5,3.19,3.28,3.47.66,3,3-1.87,2.35-3.78.69-.45-2.94-4.67-2.51-1,1-2.26-2.19-1-2.84-3-3.24-2.78-2.72-.94,3.37-1.08-3.19.62-3.59,1.69-5.53,2.77-5.94,3.14-5.41-2.23-5.31.09-2.71-.66-3.27-3.82-4.66-1.36-3,2-1.09,2.1-5.14L1781,847l-3.63-4.35-2.77-5.25,2.42-1.09,2.61-6.51,4-.27,3.34-2.63,3.28-1.4,2.48,1.87.33,3.64,3.86.27-1.4,6.34.13,5.36,6-3.56,1.72,1,3.35-.17,1.16-2.08,4.32.41,4.36,4.85.36,5.87,4.63,5.16-.25,5-1.87,2.65-5.36-.85-7.41,1.13-3.66,4.87Z" transform="translate(-246.58 2.14)"/><path class="cls-1" d="M1623.65,693.55l-2.09,2.3-6.23-1.24-.54,4.28,6.2-.58,7.07,2.4,10.83-1.12,1.45,6.79,1.88-.73,3.48,1.65-.2,2.82.86,4.11h-5.91l-3.94-.53-3.57,3.21-2.54.71-2,1.49-2.27-2.33.54-6-1.73-.34.62-2.22-3.1-1.65-2.47,2.53-.6,2.91-.88,1.06-3.42-.15-1.85,3.29-1.93-1.39-4.14,2.3-1.75-.87,3.21-7.29-1.23-5.42-4.2-1.75,1.48-3.25,4.78.35,2.72-4.11,1.82-4.8,7.66-1.75-1.2,3.49.82,2.08Z" transform="translate(-246.58 2.14)"/><path class="cls-1" d="M1932.52,995l.67-1.36,4.93-1.29,4-.2,1.8-.72,2.16.71-2.1,1.56-6,2.52-4.79,1.66-.11-1.75Z" transform="translate(-246.58 2.14)"/><path class="cls-1" d="M1567.54,726.79l-.51-5.94-4.26-.25-6.55-6.32-4.57-.78-6.33-3.66-4.07-.67-2.51,1.35-3.83-.21-4.07,4.12-5,1.38-1.07-5.08.84-7.61-4.47-2.49,1.47-5.07-3.8-.43,1.27-6.32,5.4,1.85,5-2.41-4.17-4.55-1.65-4.38-4.6,1.95-.59,5.58-1.79-4.93,2.53-2.55,6.5-1.6,3.87,2.15,4,6,2.93-.37,6.46-.11-.94-3.83,4.89-2.65,4.83-4.49,7.71,4.09.61,6.1,2.19,1.56,6.19-.35,1.92,1.38,2.82,7.74,6.54,5.11,3.74,3.46,6,3.58,7.62,3.1-.16,4.41-1.72-.22-2.7-1.92-.9,2.55-4.83,1.39-1.14,5.68-3.23,2.15-4.51,1.06-1.2,3.18-4.32.93Z" transform="translate(-246.58 2.14)"/><path class="cls-1" d="M1271.41,763.1l-2.44-12-3.53-2.72,0-1.64-4.68-4-.5-5.16,3.52-3.85,1.35-5.74-.91-6.71,1.17-3.65,6.23-2.89,4,.86-.17,3.61,4.86-2.62.4,1.37-2.86,3.48,0,3.27,2,1.74-.76,6-3.77,3.47,1.09,3.75,3,.12,1.44,3.25,2.18,1.06-.32,5.21-2.8,1.93-1.76,2.15-3.93,2.58.61,2.76-.49,2.8Z" transform="translate(-246.58 2.14)"/><path class="cls-1" d="M1428.44,685.34l8.21,2.93,6.67-1.17,4.93.67,6.76-4,6.1-.36,5.51,3.73,1,2.66-.56,3.65,4.26,1.85,2.26,2.17-3.92,2.11,1.78,8.4-1.12,2.24,3.13,5.76-2.74,1.21-2-1.82-6.66-.93-2.46,1.12-6.51,1.11-3.08-.12-6.59,2.67-4.71,0-3.05-1.34-6.3,2-1.87-1.38-.31,4L1425.6,724l-1.53,1.54-2.11-3.19,2.17-2.67-3.49.61-4.79-1.64-3.93,4.08-8.69.8-4.63-3.8-6.17-.24-1.32,2.94-4,.84-5.53-3.77-6.25.13-3.4-7.12-4.18-4,2.79-5.67-3.63-3.52,6.35-7.11,8.82-.3,2.4-5.73,10.91,1,6.88-4.93,6.67-2.16,9.47-.17Zm-55.64,4.87-4.78,4-1.8-3.48.08-1.56,1.36-.84,1.77-4.75-2.79-2,5.83-2.42,4.93,1,.68,2.94,5,2.46-1,1.85-6.8.42Z" transform="translate(-246.58 2.14)"/><path class="cls-1" d="M864,882.64l3.29-.75,1.2.2-.22,4.31-4.78.64-1-.53,1.66-1.58Z" transform="translate(-246.58 2.14)"/><path class="cls-1" d="M1914.25,801l-3.44,10-2.46,5-3-5.2-.66-4.59,3.37-6.12,4.59-4.75,2.61,1.87Z" transform="translate(-246.58 2.14)"/><path class="cls-1" d="M1411.21,949.59l1,.63,20.76,11.59.39,3.31,8.22,5.7-2.65,7,.34,3.24,3.67,2.09.17,1.49-1.58,3.46.33,1.75-.37,2.74,2,3.61,2.38,5.69,2.1,1.26-4.56,3.36-6.26,2.25-3.43-.1-2,1.74-4,.15-1.49.74-6.88-1.64-4.31.47-1.6-7.88-1.94-2.69-1.15-1.59-5.62-1.08-3.25-1.73-3.63-1-2.28-1-2.4-1.46-3.09-7.23-3.32-3.21-1.14-3.32.57-3-1-5.25,2.37-.27,2.07-2.07,2.23-3,1.41-1.19-.05-1.86-1.23-1.29-.33-2.24,1.65-.72.33-3.34-2.27-3.22,2-.68,6.28.08Z" transform="translate(-246.58 2.14)"/><path class="cls-1" d="M1399.09,595.29l2.14.37,1.45-2.11,1.73.46,5.94-.9,3.66,5.26-1.43,1.86.47,2.85,4.57.44,2,3.93-.12,1.77,7.27,3.15,4.39-1.41,3.53,4.17,3.35-.1,8.44,2.88.07,2.58-2.33,4.56,1.26,4.75-.9,2.85-5.53.62-2.95,2.37-.19,3.74-4.57.67-3.81,2.7-5.35.43-4.94,3.09-2.7,2.11,3,3,2.8,2,5.84-.49-1.12,2.9-6.27,1.4-7.77,4.64-3.18-1.63,1.26-3.78-6.25-2.37,1-1.55,6.46-3.34-.81-1.67-.92.84-.91-.43-8.9-2.08-.39-3.1-5.31,1-2.12,4.55-4.43,6-2.6-1.39-2.69,1.3-2.55-1.49,1.44-.89,1-2.8,1.56-2.63-.4-1.48,1.2-.66.56,1.15,3.37.24L1389,645l-1.07-.84.41-1.24-2-2.12-.83-3.51-2.08-1.38.41-2.87-2.59-2.29-2.35-.33-4.22-2.67-3.81.85-1.36,1.27h-2.42l-1.44,2-4.23.82-2,1.31-2.66-2.08-3.67,0-3.54-.95-2.47,1.83-.4-2.29-3.18-2.33,1.12-3.48,1.59-2.27,1.25.51L1346,619l5.2-7.37,2.84-1,.61-2.52-2.88-8,2.74-.35,3.14-2.5,4.43-.21,5.78.72,6.39,2.22,4.51.18,2.16,1.33,2.14-1.6,1.5,2.14,5.17-.44,2.28.89.36-4.63,1.77-2Z" transform="translate(-246.58 2.14)"/><path class="cls-1" d="M1399.55,950l-6.28-.08-2,.68-3.42,1.76-1.39-.58,0-4.29,1.32-2.17.33-4.57,1.2-2.64,2.19-3,2.2-1.52,1.84-2-2.29-.77.34-6.66,2.36-1.55,3.64,1.28,4.61-1.34,4,0,3.52-2.63,2.72,4,.67,2.86,2.52,6.53-2.09,4.15-2.81,3.76-1.64,2.31,0,6Z" transform="translate(-246.58 2.14)"/><path class="cls-1" d="M469.87,569.37h0l-3.15-3.74-5-3.21-1.62-8.89-7.38-8.43L449.59,535l-5.49-.7-9.1-.26-6.71-3.14-11.84-11.52L411,517.25l-10-4.07-7.92,1-11.26-5.29-6.8-5-6.36,2.47,1.18,8-3.16.73L360,517.49l-5,3.81-6.35,2.37-.82-6.62,2.58-11.29,6.08-3.62-1.57-3-7.3,6.57-3.9,7.7-8.25,8,4.19,5.41-5.41,7.86-6.16,4.5-5.73,3.25-1.41,4.67L312,552.56l-1.81,4.83-6.7,4.34-3.93-.78-5.34,2.81-5.81,3.41-4.76,3.32-9.82,2.81-.9-1.65,6.26-4.63,5.6-3.09,6.11-5.53,7.1-1.16L300.8,553l7.93-6.23,1.28-2.11,4.23-3.74,1-8.17,2.91-6.48-6.6,3.34-1.85-1.89-3.1,4-3.74-5.58-1.54,4-2.14-5.51L293.45,529h-3.52l-.49-6.6,1-4.12-3.69-4-7.45,2.19-4.83-5.38-3.91-2.77,0-6.64-4.41-5.07,2.22-6.95,4.66-6.87,2-6.44,4.63-.93,3.93,2,4.61-6.14,4.16,1.1,4.36-4-1.06-6-3.2-2.37,4.23-5.14-3.51.15L287.16,458l-1.74,2.93L280.91,458l-8.1,1.49-8.38-3.19L262,450.87l-7.24-8,8-5.86,12.77-7h4.71l-.78,7.11,12.08-.55L287,427.79l-7-5.55-4.07-7.43-5.49-6.47-7.87-4.87,3.21-8.22,10.15-.52,7.23-7.32,1.36-8,5.85-8,5.57-1.95,10.85-7.67L312,363l8.81-9.41,8.66,3.74,4.14,7.89,2.54-3.36,9.68,1.05-.35,4,8.76,2.92,5.84-1.71,12.06,5.37,11,1.59,4.41,2.18,7.62-2.73,8.68,5,6.22,2.32,0,56.45,0,72.33,5.64.34,5.57,3.18,4,5,5.09,7.35,5.57-6.24,5.74-3.66,3,5.83,3.86,4.55,5.24,4.95,3.58,7.74,5.85,12,9.73,6.54.16,6.38Zm359.19,70.31-2.54-2.43-3.84,1.43-1.9-2.21-4.37,6.32-1.74,6.43-2,3.72-2.44,1.26-1.83.4-.57,2H797.25l-8.7,0L786,658.14l-5.86,5.58.59,1.11.33,3.07-4.29,2.6-4.69-.65-4.5-.3-2.71.9.51,2.35h0l.11.76-4.93,4.63-4.32,2.22-3,1-3.39,2.11-4.14,1-2.86-.39-3.53-1.58,2-3,1.25-2.7,2.7-4.27-.29-3.21-1-4.57-2.12-.79-3.55,3.48-1.13-.07-.3-2,3.15-3.17.52-3.65-.46-3.66-4.24-3.17L731,650.24l-.8,3.1-1.27.83-1,4-.53-2.71-2.29,1.94-1.43,2.69L722.13,664l-.29,3.36,1.9,4.85-.15,5.13-2.33,3.74-1.16,1.06-1.54.84-1.95,0-.53-.52-1.54-4,0-2,.15-1.91-.72-3.82,1.09-4.45,1.29-5.54,3-6.2-.86,0-4.2,5.19-.78-.94,2.24-2.91,3.42-5.25,3.89-.74,4.47-1.64,4.5.87.19,0,5-.74-2.84-3.28-1.54-.26-1.75-.33-1.2-2.33-5.62.73-5.08,1.84-4-3.16-3.24-1.07,1.84-4.43-5.05,2.79-4.6,2.71-4.42,2.12-3.51-2.86-5.73,1.74,0-1.23,3.88-3.53,4.07-3.38,5.84-2.8-7.05-2.23-4.63,1.12L687,627.93l-5.84-1.37-4-.53-1.78-1.46-1-4.79-1.93,0,0,3.36H513.93l2,7.07.91,7-1.41,2.22-3-8-8.28-2.91-.69,1.68,1.66,3.95,1.81,7.2,1,11.06-.7,7.33-.7,7.22-2.23,7.37,1.82,5.92.2,6.54L505,693.05l3.05,4.06.79,6,4.43,6.1,2.52,2.39-.2,1.67,4.77,9.9,5.55,7,.7,3.81,1.46,1.12,5.32.68,2,1.86,3.21.34.63,2,2.67.82,3.71,3.92,1,3.47,6.5-.52,7.27-.74-.54,1.33,8.65,3.27,13.06,4.72,11.38,0h4.54v-2.76h9.92l2.08,2.37,2.93,2.11,3.4,2.92,1.9,3.45,1.43,3.61,3,2,4.75,2,3.61-5.16,4.67-.13,4,2.61,2.87,4.46,2,3.79,3.38,3.67,1.26,4.48,1.6,3,4.46,2,4.07,1.4,2.23-.19L660,789.6l-.28-3.05.05-4.41,1.32-2.89,3.13-3.08,5.69-2.8,5.21-4.83,4.81-1.53,3.56-.46,4.17,1.52,5-.82,4.27,3.45,4.16.21,2.15-1.24,2.12,1,1.09-.85-1.21-1.29.09-2.66-1-1.75,2.36-1,4.37-.45,5.08.72,6.47-.82,3.59,1.63,2.78,3.06,1,.33,5.78-3,2.23,1,4.47,5.47,1.6,3.58-1.18,4.29.86,2.51,2.66,4.9,3,5.46,2.17,1.45.9,2.77,2.82.76L757,796l1.43-3.86.25-2.46.18-4.29-2.71-7.45,0-2.79-2.54-4.6-1.91-5.61-1-4.58.88-4.73,2.7-4,3.23-3.21,6.28-4.4.82-2.29,2.9-2.51,2.85-.44,3.77-4,5.92-2.06,3.64-5.17-.81-7-.59-2.46-1.64-.5-.25-6.83-3.94-2.33,3.78,1.14-1.22-4.62,1.11-3.17.67,6.07,2.92,2.77-1.77,4.9.52.28,3.22-5.74,1.84-2.82-.09-2.76-1.42-1.31-1.19-4,1.88,1.85,1.26.38.42,1.89,4.17-5.68,1.23-5.35-1.68-.34,1.74-2.09-.17.93,3.65,0,8-2.26L803.57,687l-8.41,1.42,4.77-2.19,3.33-.37,2.49-.38,4.23-1.33,2.75.15L816.6,683l.46-2.18-1.72-1.71.6,2.81-2.38-.2-1.89-4.07.06-4.11,1-1.75,3-4.66,6-2.34,5.88-2.75,6.11-3.88-1-2.64L829,651ZM340,536.68l-3.06,1.63-5.2,3.8.89,4.94,2.92,2.7,5.72-4,4.95-5-2.42-3.32Zm-93.15-58.32L251,475.8l.47-1.39L246.82,473Zm17.36,31.37-5.65,2,3.47,3.11,3.75,2.13,3.52-1.77-.55-4.4Zm198.74,66.35-5.49.78-2.69-1.27-.34,3.1,1.05,4.24,2.89,3,2.12,4.36,3.45,4.28,2.28,0-5-7.56ZM322.63,822.48l-2-.58-.56.52.06.38.65.5,1,1.28,1.92-.43.48-.73Zm-6.11-1.1,3.06.18.18-.66-2.82-.26Zm12,6.72-1-.53-2.19-1-.43-.11-.34.56.4,1.19-1,1-.28.67.94,2.2-.16,1.69,1.42.86.84-1,1.83-.94,2.24-1.29.14-.33-1.46-2.12Zm-16-10.5-1.53.84.22.25.73,1.38,2,.22.41.08.31-.36L313,818Zm-9-3.19-.88.6-.29.45,1.92,1.12L305,816l-.12-1.43Z" transform="translate(-246.58 2.14)"/><path class="cls-1" d="M887.25,1124.69,891,1124l5.74,5.12,2.13-.2,5.89,4.27,4.49,3.7,3.31,4.59-2.52,3.22,1.58,3.87-2.48,4.33-6.46,3.85-4.23-1.39-3.09.74-5.3-3-3.88.22-3.49-3.81.45-4.42,1.24-1.51-.06-6.74,1.53-6.87Z" transform="translate(-246.58 2.14)"/><path class="cls-1" d="M1597.92,714.64l.16-4.41-7.62-3.1-6-3.58-3.74-3.46L1574.2,695l-2.82-7.74-1.92-1.38-6.19.35-2.19-1.56-.61-6.1-7.71-4.09-4.83,4.49L1543,681.6l.94,3.83-6.46.11-.22-28.84,14.74-4.8,1.06.71,8.88,5.79,4.68,3,5.47,7.14,6.71-1.14,9.82-.62,6.85,5.73-.42,7.76,2.78.06,1.17,6.24,7.28.25,1.57,3.57,2.13,0,2.51-5.4,7.55-5.33,3.28-1.42,1.7.75-4.81,5,4.23,2.86,4.08-1.89,6.78,4-7.33,5.4-4.36-.74-2.36.2-.82-2.08,1.2-3.49-7.66,1.75-1.82,4.8-2.72,4.11-4.78-.35-1.48,3.25,4.2,1.75,1.23,5.42-3.21,7.29-4.32-1.51Z" transform="translate(-246.58 2.14)"/><path class="cls-1" d="M808.79,876.75l-.16,1.37-3.36.68,1.86,2.63-.07,3-2.52,3.36,2.17,4.58,2.46-.38,1.29-4.17-1.78-2-.29-4.38,7.13-2.36-.79-2.73,2-1.84,2,4.09,4,.09,3.72,3.23.22,1.92,5.14,0,6.12-.59,3.28,2.59,4.37.71,3.22-1.81.06-1.45L856,883l6.86-.08L858,884.61l2,2.73,4.57.43,4.34,2.83.92,4.62,3-.13,2.24,1.35-4.53,3.38-.5,2.09,2,2.13-1.42,1.07L867,906l.12,2.64-1.56,1.58,3.88,4.33.76,1.61-2.1,2.18-6.4,2.13-4.12.89L856,922.74l-4.55-1.43-4.24-.73-1.07.53,2.56,1.48-.23,3.81.79,3.59,4.85.49.31,1.19-4.09,1.62-.66,2.41-2.36.94L843,938l-1.11,1.74-4.45.37-3.15-3-1.75-5.67-1.52-2L829,928.15l2.9-2.84-.2-1.27-1.62-1.7-1.16-3.79.45-4.09,1.28-1.92,1-3.07-2-1-3.26.65-4.13-.3-2.31.61-4-4.93-3.33-.72-7.36.55-1.36-2-1.41-.48-.2-1.2.68-2.12-.45-2.32L801.18,895l-.73-2.65-3-.38,1.59-3.38.7-4.12,1.66-2.15,2.22-1.66,1.45-2.9Z" transform="translate(-246.58 2.14)"/><path class="cls-1" d="M1835.67,818.6l-7.64,5.23-4.77,5.72-1.26,4.19,4.38,6.33,5.35,7.79,5.19,3.66,3.48,4.74,2.63,10.87-.78,10.25-4.77,3.82-6.56,3.73-4.67,4.81-7.13,5.36-2.08-3.69,1.6-3.9-4.24-3.29,4.95-2.33,6-.42-2.51-3.51,9.62-4.48.71-7-1.33-3.91,1-5.88-1.44-4.17-4.33-4.12-3.61-5.24-4.76-7.08-6.86-3.6,1.64-2.17,3.66-1.58-2.22-5.29-7-.05-2.57-5.55L1802,813l3.07-1.5,4.57,0,5.56-.71,4.88-3.3,2.76,2.32,5.24,1.13-.91,3.55,2.73,2.5Z" transform="translate(-246.58 2.14)"/><path class="cls-1" d="M2178,1039.16l-1.89.78-1.92-2.6.21-1.59Zm-4.22-9.06.93,4.76-1.54-.74-1.19.32-.82-1.64-.12-4.51Z" transform="translate(-246.58 2.14)"/><path class="cls-1" d="M1521.15,848.13l-4.14,1.6-1.1,2.63-.14,2-5.7,2.49-9.15,2.75-5.12,4.14-2.52.32-1.72-.34-3.35,2.43-3.64,1.12-4.81.31-1.45.33-1.25,1.54-1.5.43-.88,1.48-2.84-.12L1470,872l-4-.3-1.49-3.41.17-3.2-.94-1.73-1.12-4.34-1.64-2.42,1.14-.29-.59-2.7.7-1.14-.26-2.58,2.52-1.89-.59-2.51,1.52-2.93,2.35,1.55,1.55-.54,6.61-.13,1,.59,5.53.6,2.19-.3,1.44,2,2.67-1,4.1-6.27,5.34-2.69,16.51-2.31,4.47,9.88Z" transform="translate(-246.58 2.14)"/><path class="cls-1" d="M1395.69,1074.07l-3-.62-1.93.74-2.77-1-2.33-.07-3.65-2.77-4.43-.94-1.68-3.87,0-2.14-2.45-.65-6.48-6.65-1.8-3.48-1.15-1.08-2.2-4.78,6.4.65,1.86.69,1.93-.14,3.17-3.86,5-4.89,2.05-.47.69-2,3.26-2.36,4.34-.81.37,2.21,4.77-.12,2.66,1.25,1.23,1.47,2.72.43,3,1.9v7.55l-1.11,4.15-.25,4.5.92,1.79-.65,3.56-.86.56-1.51,4.39Z" transform="translate(-246.58 2.14)"/><path class="cls-1" d="M1397.57,1118.4l-1.11.94-2.43,3.33-1.6,3.38-3.24,4.76-6.47,6.9-4,4-4.33,3.09-6,2.65-2.92.36-.74,1.9-3.48-1-2.83,1.3-6.2-1.32-3.47.84-2.37-.36-5.91,2.71-4.89,1.09-3.53,2.62-2.6.17-2.43-2.47-1.93-.13-2.47-3.07-.27.95-.76-1.85,0-4-1.86-4.55,1.85-1.23-.15-5.16-3.75-6.23-2.87-5.59v0l-4.11-8.48,2.74-3.2,2.26,1.77,1,2.78,2.57.47,3.6,1.23,3.08-.47,5.11-3.32v-23.53l1.55.94,3.39,6-.53,3.86,1.28,2.24,4.1-.65,2.86-2.84,2.71-1.91,1.41-3,2.79-1.46,2.41.77,2.74,1.76,4.66.32,3.66-1.47.58-2,1-3,3.12-.5,1.72-2.35,1.91-4.15,5.13-4.62,8.1-4.54,2.33.07,2.77,1,1.93-.74,3,.62,2.74,8.69,1.49,4.43-1,7,.48,2.27-2.89-1.16-1.65.45-.54,1.84-1.57,2.39.06,2.2,3.41,3.46,3.35-.69,1.17-2.84,4.34.06-1.43,4.65-.68,5.36-1.48,2.92Zm-14.55-2-2.5-2-2.68,1.32-3.1,2.55-3,4.15,4.29,5.07,2-.66,1.06-2.11,3.19-1,1-2.14,1.76-3.18Z" transform="translate(-246.58 2.14)"/><path class="cls-1" d="M1404.66,996.91l2.71,2.57,1.45,4.91-1,1.56-1.15,4.7,1.1,4.83-1.81,2-1.73,5.43,3,1.52-17.37,4.84.54,4.19-4.34.81-3.26,2.36-.69,2-2.05.47-5,4.89-3.17,3.86-1.93.14-1.86-.69-6.4-.65-1-.45,0-.49-2.26-1.35-3.71-.34-4.69,1.35-3.74-3.72-3.86-4.85.26-18.7,11.92.08-.48-2,.85-2.18-1-2.73.65-2.81-.6-1.8,2,.15.33,1.8,2.68-.14,3.64.53,1.91,2.64,4.59.81,3.5-1.84,1.28,3.05,4.39.81,2.11,2.49,2.35,3.21,4.38,0-.48-6.29-1.57,1.06-4-2.27-1.55-1,.71-5.82,1-6.84-1.29-2.55,1.63-3.67,1.54-.69,7.69-1,2.25.59,2.4,1.46,2.28,1,3.63,1Z" transform="translate(-246.58 2.14)"/><path class="cls-1" d="M1415,1010.15l4.31-.47,6.88,1.64,1.49-.74,4-.15,2-1.74,3.43.1,6.26-2.25,4.56-3.36.92,2.6-.23,5.77.7,5.11.23,9.14,1,2.88-1.71,4.21-2.22,4.1-3.64,3.68-5.23,2.26-6.46,2.89-6.47,6.43-2.2,1.1-4,4.28-2.36,1.39-.49,4.33,2.72,4.61,1.13,3.59.07,1.83,1-.3-.16,6-.93,2.88,1.35,1.06-.85,2.6-2.4,2.22L1413,1090l-6.88,3.41-2.51,2.33.49,2.67,1.46.42-.49,3.35-4.34-.05-.49-2.81-.85-2.85-.49-2.26,1-7-1.49-4.43-2.74-8.7,6-7,1.51-4.39.86-.56.65-3.56-.92-1.79.25-4.5,1.11-4.15v-7.55l-3-1.9-2.72-.43-1.23-1.47-2.66-1.25-4.77.12-.37-2.21-.54-4.19,17.37-4.84,3.29,2.82,1.58-.54,2.26,1.48.33,2.36-1.21,2.74.43,4.17,3.73,3.67,1.75-4.12,2.48-1.25-.49-7.58L1419,1024l-2.06-1.89-2,.08-1.6-7.58Z" transform="translate(-246.58 2.14)"/><path class="cls-1" d="M1310.7,1114l-4.26-4.88-2.24-4.69-1.26-6.2-1.41-4.58-1.92-9.64-.13-7.42-.73-3.35-2.23-2.53-3-5-3-7.28-1.25-3.78-4.66-5.86-.35-4.58,2.76-1.14,3.43-1,3.71.18,3.41,2.69.87-.42,23.2-.26,4,2.86,13.86.85,10.52-2.44,4.69-1.35,3.71.34,2.26,1.35,0,.49-3.23,1.35h-1.73l-3.66,2.35-2.19-2.47-8.82,2.1-4.27.19-.16,21.58-5.65.22v41.62l-5.11,3.32-3.08.47-3.59-1.23-2.57-.47-1-2.77-2.26-1.77Z" transform="translate(-246.58 2.14)"/><path class="cls-1" d="M1265.79,917l-5.94,2.05-2.18-.3-2.2,1.28-4.57-.13-3.07-3.57-1.88-4.13-4.06-3.77-4.3.07h-5l.33-9.23-.15-3.66,1.08-3.63,1.77-1.77,2.77-3.57-.6-1.55,1.13-2.33-1.29-3.44.22-1.93.4-5.19,1.64-2.35.81-3.36,1.49-1.27,6.15-.69,5.74,2.18,2.14,2.21,2.93.1,2.71-1.44,6.93,3,2.92-.14L1275,868l3.36.18,1.65-.82,3.08.34,4.43,1.7,4.48-3.27,1.35.24,3.87,6.39,1.06-.13,2.27,2.32-.62,1-.31,1.93-4.82,4.49-1.51,3.69-.81,3-1.21,1.28-1.16,4-3.06,2.36-.89,2.91-1.28,2.31-.54,2.39-3.93,1.93-3.22-2.36-2.17.1-3.41,3.35-1.65.05-2.73,5.52Z" transform="translate(-246.58 2.14)"/><path class="cls-1" d="M726.47,880.74l-2-1.83-2.68-2.34-1.26-2-2.41-1.83-2.87-2.63.64-.91.94.88.43-.41,1.78-.24.72-1.33.84-.06-.12-2.87,1.34-.14,1.19,0,1.24-1.56,1.69,1.18.59-.73,1.05-.69,2-1.62.09-1.21.55,0,.74-1.4.59-.17,1,.89,1.15.27,1.26-.75h1.45l2-.77.79-.8,2,.12-.49.56-.29,1.32L741,862l-1.32,2L739,866.3l-.19,2.58.31,1.5.14,2.63-.87.57-.53,2.49.39,1.53-1.17,1.49.26,1.56.88,1-1.37,1.23-1.69-.38-.95-1.19-1.81-.49-1.32.76L727.33,880Z" transform="translate(-246.58 2.14)"/><path class="cls-1" d="M1201,889.1l-3.92-1.49-2.69.22-2,1.45-2.57-1.22-1-1.91-2.58-1.26-.38-3.36,1.57-2.45-.14-2,4.55-4.82.84-4,1.57-1.43,2.76.79,2.4-1.19.78-1.51,4.44-2.62,1.1-1.84,5.35-2.44,3.15-.84,1.43,1.13,3.67,0-.46,2.85.77,2.68,3.23,3.82.18,2.83,6.59,1.32-.12,4-1.26,1.74-2.79.54-1.17,2.54-2,.66-5-.13-2.65-.46-1.85.94-2.53-.43-9.94.28-.14,3.28Z" transform="translate(-246.58 2.14)"/><path class="cls-1" d="M1346.83,662.79l1.65,3.27,2.22-.58,4.4,1.23,8.4.42,2.84-2,6.74-1.85,4.17,2.89,3.36.83-3,3.25-2.09,5.58,1.85,4.4-4.93-1-5.83,2.42-.06,3.8-5.21.71-4-2.65-4.58,2.09-4.24-.22-.4-5.05-2.87-2.47.94-1.09-.62-.92,1-2.47,2.19-2.44-2.79-3.39-.51-2.89Z" transform="translate(-246.58 2.14)"/><path class="cls-1" d="M1393.64,924.22l-.34,6.66,2.29.77-1.84,2-2.2,1.52-2.19,3-1.2,2.64-.33,4.57-1.32,2.17,0,4.29-1.65,1.59-.21,3.38-.78.44-.53,3.11,1.44,2.59.36,6.88,1,5.25-.57,3,1.14,3.32,3.32,3.2,3.09,7.24-2.25-.59-7.69,1-1.54.69-1.63,3.67,1.29,2.55-1,6.84-.71,5.82,1.55,1,4,2.27,1.57-1.06.48,6.29-4.38,0-2.35-3.21-2.11-2.49-4.39-.81-1.28-3.05-3.5,1.84-4.59-.81-1.91-2.64-3.64-.53-2.68.14-.33-1.8-2-.15-2.61-.34-3.54.87-2.49-.15-1.42.53.31-6.88-1.91-2.14-.42-3.54.84-3.47-1.16-2.22-.11-3.61-6.94,0,.5-2.06-2.92,0-.31,1-3.55.23-1.44,3.34-.86,1.44-3.16-.81-1.89.8-3.78.47-2.2-3-1.31-1.85-1.64-3.43-1.42-4.27-16.89-.07-2,.68-1.66-.1-2.36.77-.8-1.78,1.46-.6.17-2.49.94-1.47,2.08-1.2,1.51.58,2-2.18,3.11.05.37,1.62,2.14,1,3.37-3.58,3.33-2.78,1.45-1.82-.19-4.69,2.48-5.53,2.63-2.93,3.77-2.74.65-1.81.15-2.09.93-2-.3-3.22.71-5,1.12-3.55,1.72-3,.34-3.44.51-4,2.23-2.9,3.07-1.83,4.71,1.94,3.64,2.1,4.19.56,4.27,1.11,1.71-3.44.79-.44,2.61.57,6.37-2.85,2.26,1.21,1.85-.17.86-1.39,2.13-.49,4.3.6,3.68.13,1.89-.6,3.46,4.71,2.58.69,1.53-1,2.64.38,3.19-1.21,1.36,2.44Z" transform="translate(-246.58 2.14)"/><path class="cls-1" d="M1304.6,901.87l4.73-.43,1.06-1.48.95.11,1.43,1.3,7.2-2.19,2.43-2.24,3-2-.57-2,1.62-.53,5.53.36,5.38-2.67,4.14-6.3,2.91-2.35,3.62-1,.65,2.49,3.3,3.61,0,2.36-.93,2.39.36,1.79,2,1.66,4.36,2.52,3.13,2.32.06,1.86,3.85,3,2.38,2.47,1.45,3.44,4.28,2.26.92,1.81-1.89.6-3.68-.13-4.3-.6-2.13.49-.86,1.39-1.85.17-2.26-1.21L1350.5,918l-2.61-.57-.79.44-1.71,3.44-4.27-1.11-4.19-.56-3.64-2.1-4.71-1.94-3.07,1.83-2.23,2.9-.51,4-3.69-.32-3.87-.95-3.41,3-3,5.29-.61-1.64-.25-2.6-2.62-1.83-2.11-3-.49-2-2.71-3,.46-1.7-.57-2.41.45-4.43,1.37-1Z" transform="translate(-246.58 2.14)"/></svg>